<?xml version="1.0" encoding="utf-8" standalone="no"?>
<!DOCTYPE svg PUBLIC "-//W3C//DTD SVG 1.1//EN"
  "http://www.w3.org/Graphics/SVG/1.1/DTD/svg11.dtd">
<svg xmlns:xlink="http://www.w3.org/1999/xlink" width="1160.39952pt" height="440.39952pt" viewBox="0 0 1160.39952 440.39952" xmlns="http://www.w3.org/2000/svg" version="1.1">
 <metadata>
  <rdf:RDF xmlns:dc="http://purl.org/dc/elements/1.1/" xmlns:cc="http://creativecommons.org/ns#" xmlns:rdf="http://www.w3.org/1999/02/22-rdf-syntax-ns#">
   <cc:Work>
    <dc:type rdf:resource="http://purl.org/dc/dcmitype/StillImage"/>
    <dc:date>2026-04-25T16:53:06.349983</dc:date>
    <dc:format>image/svg+xml</dc:format>
    <dc:creator>
     <cc:Agent>
      <dc:title>Matplotlib v3.10.9, https://matplotlib.org/</dc:title>
     </cc:Agent>
    </dc:creator>
   </cc:Work>
  </rdf:RDF>
 </metadata>
 <defs>
  <style type="text/css">*{stroke-linejoin: round; stroke-linecap: butt}</style>
 </defs>
 <g id="figure_1">
  <g id="patch_1">
   <path d="M 0 440.39952 
L 1160.39952 440.39952 
L 1160.39952 0 
L 0 0 
z
" style="fill: #ffffff"/>
  </g>
  <g id="axes_1">
   <g id="patch_2">
    <path d="M 46.965625 402.84327 
L 574.43976 402.84327 
L 574.43976 22.318125 
L 46.965625 22.318125 
z
" style="fill: #ffffff"/>
   </g>
   <g id="FillBetweenPolyCollection_1">
    <defs>
     <path id="m0ecb95c18f" d="M 511.960485 -38.850553 
L 511.960485 -37.55625 
L 513.850176 -37.55625 
L 513.850176 -37.55625 
L 515.645887 -37.55625 
L 515.645887 -37.55625 
L 517.356525 -37.55625 
L 517.356525 -37.55625 
L 518.989788 -37.55625 
L 518.989788 -37.55625 
L 520.552373 -37.55625 
L 520.552373 -37.55625 
L 522.050145 -37.55625 
L 522.050145 -37.55625 
L 523.488267 -37.55625 
L 523.488267 -37.55625 
L 524.871308 -37.55625 
L 524.871308 -37.55625 
L 526.203333 -37.55625 
L 526.203333 -37.55625 
L 527.487971 -37.55625 
L 527.487971 -37.55625 
L 528.72848 -37.55625 
L 528.72848 -37.55625 
L 529.92779 -37.55625 
L 529.92779 -37.55625 
L 531.088549 -37.55625 
L 531.088549 -37.55625 
L 532.213161 -37.55625 
L 532.213161 -37.55625 
L 533.303807 -37.55625 
L 533.303807 -37.55625 
L 534.362479 -37.55625 
L 534.362479 -37.55625 
L 535.391 -37.55625 
L 535.391 -37.55625 
L 536.391039 -37.55625 
L 536.391039 -37.55625 
L 537.364131 -37.55625 
L 537.364131 -37.55625 
L 538.31169 -37.55625 
L 538.31169 -37.55625 
L 539.235023 -37.55625 
L 539.235023 -37.55625 
L 540.135336 -37.55625 
L 540.135336 -37.55625 
L 541.01375 -37.55625 
L 541.01375 -37.55625 
L 541.871305 -37.55625 
L 541.871305 -37.55625 
L 542.708969 -37.55625 
L 542.708969 -37.55625 
L 543.527644 -37.55625 
L 543.527644 -37.55625 
L 544.328171 -37.55625 
L 544.328171 -37.55625 
L 545.111337 -37.55625 
L 545.111337 -37.55625 
L 545.87788 -37.55625 
L 545.87788 -37.55625 
L 546.628491 -37.55625 
L 546.628491 -37.55625 
L 546.628491 -41.43916 
L 546.628491 -41.43916 
L 546.628491 -41.43916 
L 545.87788 -41.43916 
L 545.87788 -38.850553 
L 545.111337 -38.850553 
L 545.111337 -47.910676 
L 544.328171 -47.910676 
L 544.328171 -47.910676 
L 543.527644 -47.910676 
L 543.527644 -77.67965 
L 542.708969 -77.67965 
L 542.708969 -94.505591 
L 541.871305 -94.505591 
L 541.871305 -120.391656 
L 541.01375 -120.391656 
L 541.01375 -164.397965 
L 540.135336 -164.397965 
L 540.135336 -220.053003 
L 539.235023 -220.053003 
L 539.235023 -222.64161 
L 538.31169 -222.64161 
L 538.31169 -170.869481 
L 537.364131 -170.869481 
L 537.364131 -89.328379 
L 536.391039 -89.328379 
L 536.391039 -82.856863 
L 535.391 -82.856863 
L 535.391 -81.562559 
L 534.362479 -81.562559 
L 534.362479 -63.442314 
L 533.303807 -63.442314 
L 533.303807 -51.793585 
L 532.213161 -51.793585 
L 532.213161 -58.265101 
L 531.088549 -58.265101 
L 531.088549 -75.091043 
L 529.92779 -75.091043 
L 529.92779 -86.739772 
L 528.72848 -86.739772 
L 528.72848 -95.799895 
L 527.487971 -95.799895 
L 527.487971 -77.67965 
L 526.203333 -77.67965 
L 526.203333 -71.208134 
L 524.871308 -71.208134 
L 524.871308 -89.328379 
L 523.488267 -89.328379 
L 523.488267 -81.562559 
L 522.050145 -81.562559 
L 522.050145 -111.331533 
L 520.552373 -111.331533 
L 520.552373 -152.749236 
L 518.989788 -152.749236 
L 518.989788 -169.575178 
L 517.356525 -169.575178 
L 517.356525 -90.622682 
L 515.645887 -90.622682 
L 515.645887 -51.793585 
L 513.850176 -51.793585 
L 513.850176 -38.850553 
L 511.960485 -38.850553 
z
" style="stroke: #1f77b4"/>
    </defs>
    <g clip-path="url(#p9d0e8f46e4)">
     <use xlink:href="#m0ecb95c18f" x="0" y="440.39952" style="fill: #1f77b4; fill-opacity: 0.4; stroke: #1f77b4"/>
    </g>
   </g>
   <g id="FillBetweenPolyCollection_2">
    <defs>
     <path id="m61e5d71e69" d="M 423.976459 -141.100507 
L 423.976459 -37.55625 
L 435.334183 -37.55625 
L 435.334183 -37.55625 
L 443.961654 -37.55625 
L 443.961654 -37.55625 
L 450.920381 -37.55625 
L 450.920381 -37.55625 
L 456.752457 -37.55625 
L 456.752457 -37.55625 
L 461.77237 -37.55625 
L 461.77237 -37.55625 
L 466.178918 -37.55625 
L 466.178918 -37.55625 
L 470.105801 -37.55625 
L 470.105801 -37.55625 
L 473.64727 -37.55625 
L 473.64727 -37.55625 
L 476.872263 -37.55625 
L 476.872263 -37.55625 
L 479.832731 -37.55625 
L 479.832731 -37.55625 
L 482.5688 -37.55625 
L 482.5688 -37.55625 
L 485.112103 -37.55625 
L 485.112103 -37.55625 
L 487.488024 -37.55625 
L 487.488024 -37.55625 
L 489.717241 -37.55625 
L 489.717241 -37.55625 
L 491.816822 -37.55625 
L 491.816822 -37.55625 
L 493.801019 -37.55625 
L 493.801019 -37.55625 
L 495.681857 -37.55625 
L 495.681857 -37.55625 
L 497.469572 -37.55625 
L 497.469572 -37.55625 
L 499.172953 -37.55625 
L 499.172953 -37.55625 
L 500.799599 -37.55625 
L 500.799599 -37.55625 
L 502.356126 -37.55625 
L 502.356126 -37.55625 
L 503.848332 -37.55625 
L 503.848332 -37.55625 
L 505.281321 -37.55625 
L 505.281321 -37.55625 
L 506.659614 -37.55625 
L 506.659614 -37.55625 
L 507.987235 -37.55625 
L 507.987235 -37.55625 
L 509.267777 -37.55625 
L 509.267777 -37.55625 
L 510.504464 -37.55625 
L 510.504464 -37.55625 
L 511.700203 -37.55625 
L 511.700203 -37.55625 
L 512.857617 -37.55625 
L 512.857617 -37.55625 
L 513.979087 -37.55625 
L 513.979087 -37.55625 
L 513.979087 -38.850553 
L 513.979087 -38.850553 
L 513.979087 -38.850553 
L 512.857617 -38.850553 
L 512.857617 -37.55625 
L 511.700203 -37.55625 
L 511.700203 -37.55625 
L 510.504464 -37.55625 
L 510.504464 -40.144856 
L 509.267777 -40.144856 
L 509.267777 -42.733463 
L 507.987235 -42.733463 
L 507.987235 -38.850553 
L 506.659614 -38.850553 
L 506.659614 -42.733463 
L 505.281321 -42.733463 
L 505.281321 -58.265101 
L 503.848332 -58.265101 
L 503.848332 -54.382192 
L 502.356126 -54.382192 
L 502.356126 -49.204979 
L 500.799599 -49.204979 
L 500.799599 -42.733463 
L 499.172953 -42.733463 
L 499.172953 -55.676495 
L 497.469572 -55.676495 
L 497.469572 -62.148011 
L 495.681857 -62.148011 
L 495.681857 -76.385346 
L 493.801019 -76.385346 
L 493.801019 -124.274565 
L 491.816822 -124.274565 
L 491.816822 -200.638455 
L 489.717241 -200.638455 
L 489.717241 -208.404274 
L 487.488024 -208.404274 
L 487.488024 -235.584642 
L 485.112103 -235.584642 
L 485.112103 -151.454933 
L 482.5688 -151.454933 
L 482.5688 -77.67965 
L 479.832731 -77.67965 
L 479.832731 -58.265101 
L 476.872263 -58.265101 
L 476.872263 -56.970798 
L 473.64727 -56.970798 
L 473.64727 -129.451778 
L 470.105801 -129.451778 
L 470.105801 -81.562559 
L 466.178918 -81.562559 
L 466.178918 -62.148011 
L 461.77237 -62.148011 
L 461.77237 -102.271411 
L 456.752457 -102.271411 
L 456.752457 -51.793585 
L 450.920381 -51.793585 
L 450.920381 -107.448624 
L 443.961654 -107.448624 
L 443.961654 -399.96115 
L 435.334183 -399.96115 
L 435.334183 -141.100507 
L 423.976459 -141.100507 
z
" style="stroke: #ff7f0e"/>
    </defs>
    <g clip-path="url(#p9d0e8f46e4)">
     <use xlink:href="#m61e5d71e69" x="0" y="440.39952" style="fill: #ff7f0e; fill-opacity: 0.4; stroke: #ff7f0e"/>
    </g>
   </g>
   <g id="FillBetweenPolyCollection_3">
    <path d="M -83109.109868 127.156685 
L -83109.109868 402.84327 
L 205.646276 402.84327 
L 205.646276 402.84327 
L 230.679361 402.84327 
L 230.679361 402.84327 
L 245.322777 402.84327 
L 245.322777 402.84327 
L 255.712446 402.84327 
L 255.712446 402.84327 
L 263.7713 402.84327 
L 263.7713 402.84327 
L 270.355863 402.84327 
L 270.355863 402.84327 
L 275.923031 402.84327 
L 275.923031 402.84327 
L 280.745532 402.84327 
L 280.745532 402.84327 
L 284.999279 402.84327 
L 284.999279 402.84327 
L 288.804385 402.84327 
L 288.804385 402.84327 
L 292.246523 402.84327 
L 292.246523 402.84327 
L 295.388948 402.84327 
L 295.388948 402.84327 
L 298.279699 402.84327 
L 298.279699 402.84327 
L 300.956116 402.84327 
L 300.956116 402.84327 
L 303.447801 402.84327 
L 303.447801 402.84327 
L 305.778617 402.84327 
L 305.778617 402.84327 
L 307.968082 402.84327 
L 307.968082 402.84327 
L 310.032364 402.84327 
L 310.032364 402.84327 
L 311.985008 402.84327 
L 311.985008 402.84327 
L 313.837471 402.84327 
L 313.837471 402.84327 
L 315.599533 402.84327 
L 315.599533 402.84327 
L 317.279608 402.84327 
L 317.279608 402.84327 
L 318.884988 402.84327 
L 318.884988 402.84327 
L 320.422033 402.84327 
L 320.422033 402.84327 
L 321.896324 402.84327 
L 321.896324 402.84327 
L 323.312784 402.84327 
L 323.312784 402.84327 
L 324.67578 402.84327 
L 324.67578 402.84327 
L 325.989202 402.84327 
L 325.989202 402.84327 
L 327.256529 402.84327 
L 327.256529 402.84327 
L 328.480887 402.84327 
L 328.480887 402.84327 
L 328.480887 398.96036 
L 328.480887 398.96036 
L 328.480887 398.96036 
L 327.256529 398.96036 
L 327.256529 398.96036 
L 325.989202 398.96036 
L 325.989202 395.077451 
L 324.67578 395.077451 
L 324.67578 376.957206 
L 323.312784 376.957206 
L 323.312784 373.074296 
L 321.896324 373.074296 
L 321.896324 369.191386 
L 320.422033 369.191386 
L 320.422033 366.60278 
L 318.884988 366.60278 
L 318.884988 375.662902 
L 317.279608 375.662902 
L 317.279608 371.779993 
L 315.599533 371.779993 
L 315.599533 366.60278 
L 313.837471 366.60278 
L 313.837471 360.131264 
L 311.985008 360.131264 
L 311.985008 361.425567 
L 310.032364 361.425567 
L 310.032364 342.011019 
L 307.968082 342.011019 
L 307.968082 344.599625 
L 305.778617 344.599625 
L 305.778617 369.191386 
L 303.447801 369.191386 
L 303.447801 352.365445 
L 300.956116 352.365445 
L 300.956116 369.191386 
L 298.279699 369.191386 
L 298.279699 342.011019 
L 295.388948 342.011019 
L 295.388948 274.707252 
L 292.246523 274.707252 
L 292.246523 288.944587 
L 288.804385 288.944587 
L 288.804385 310.947742 
L 284.999279 310.947742 
L 284.999279 162.102872 
L 280.745532 162.102872 
L 280.745532 318.713561 
L 275.923031 318.713561 
L 275.923031 364.014174 
L 270.355863 364.014174 
L 270.355863 349.776838 
L 263.7713 349.776838 
L 263.7713 392.488844 
L 255.712446 392.488844 
L 255.712446 386.017328 
L 245.322777 386.017328 
L 245.322777 395.077451 
L 230.679361 395.077451 
L 230.679361 342.011019 
L 205.646276 342.011019 
L 205.646276 127.156685 
L -83109.109868 127.156685 
z
" clip-path="url(#p9d0e8f46e4)" style="fill: #2ca02c; fill-opacity: 0.4; stroke: #2ca02c"/>
   </g>
   <g id="matplotlib.axis_1">
    <g id="xtick_1">
     <g id="line2d_1">
      <path d="M 48.999701 402.84327 
L 48.999701 22.318125 
" clip-path="url(#p9d0e8f46e4)" style="fill: none; stroke: #b0b0b0; stroke-opacity: 0.8; stroke-width: 0.8; stroke-linecap: square"/>
     </g>
     <g id="line2d_2">
      <defs>
       <path id="me4ad1feb24" d="M 0 0 
L 0 3.5 
" style="stroke: #000000; stroke-width: 0.8"/>
      </defs>
      <g>
       <use xlink:href="#me4ad1feb24" x="48.999701" y="402.84327" style="stroke: #000000; stroke-width: 0.8"/>
      </g>
     </g>
     <g id="text_1">
      <!-- $\mathdefault{10^{0}}$ -->
      <g transform="translate(40.199701 417.441707) scale(0.1 -0.1)">
       <defs>
        <path id="DejaVuSans-31" d="M 794 531 
L 1825 531 
L 1825 4091 
L 703 3866 
L 703 4441 
L 1819 4666 
L 2450 4666 
L 2450 531 
L 3481 531 
L 3481 0 
L 794 0 
L 794 531 
z
" transform="scale(0.015625)"/>
        <path id="DejaVuSans-30" d="M 2034 4250 
Q 1547 4250 1301 3770 
Q 1056 3291 1056 2328 
Q 1056 1369 1301 889 
Q 1547 409 2034 409 
Q 2525 409 2770 889 
Q 3016 1369 3016 2328 
Q 3016 3291 2770 3770 
Q 2525 4250 2034 4250 
z
M 2034 4750 
Q 2819 4750 3233 4129 
Q 3647 3509 3647 2328 
Q 3647 1150 3233 529 
Q 2819 -91 2034 -91 
Q 1250 -91 836 529 
Q 422 1150 422 2328 
Q 422 3509 836 4129 
Q 1250 4750 2034 4750 
z
" transform="scale(0.015625)"/>
       </defs>
       <use xlink:href="#DejaVuSans-31" transform="translate(0 0.765625)"/>
       <use xlink:href="#DejaVuSans-30" transform="translate(63.623047 0.765625)"/>
       <use xlink:href="#DejaVuSans-30" transform="translate(128.203125 39.046875) scale(0.7)"/>
      </g>
     </g>
    </g>
    <g id="xtick_2">
     <g id="line2d_3">
      <path d="M 132.157811 402.84327 
L 132.157811 22.318125 
" clip-path="url(#p9d0e8f46e4)" style="fill: none; stroke: #b0b0b0; stroke-opacity: 0.8; stroke-width: 0.8; stroke-linecap: square"/>
     </g>
     <g id="line2d_4">
      <g>
       <use xlink:href="#me4ad1feb24" x="132.157811" y="402.84327" style="stroke: #000000; stroke-width: 0.8"/>
      </g>
     </g>
     <g id="text_2">
      <!-- $\mathdefault{10^{1}}$ -->
      <g transform="translate(123.357811 417.441707) scale(0.1 -0.1)">
       <use xlink:href="#DejaVuSans-31" transform="translate(0 0.684375)"/>
       <use xlink:href="#DejaVuSans-30" transform="translate(63.623047 0.684375)"/>
       <use xlink:href="#DejaVuSans-31" transform="translate(128.203125 38.965625) scale(0.7)"/>
      </g>
     </g>
    </g>
    <g id="xtick_3">
     <g id="line2d_5">
      <path d="M 215.31592 402.84327 
L 215.31592 22.318125 
" clip-path="url(#p9d0e8f46e4)" style="fill: none; stroke: #b0b0b0; stroke-opacity: 0.8; stroke-width: 0.8; stroke-linecap: square"/>
     </g>
     <g id="line2d_6">
      <g>
       <use xlink:href="#me4ad1feb24" x="215.31592" y="402.84327" style="stroke: #000000; stroke-width: 0.8"/>
      </g>
     </g>
     <g id="text_3">
      <!-- $\mathdefault{10^{2}}$ -->
      <g transform="translate(206.51592 417.441707) scale(0.1 -0.1)">
       <defs>
        <path id="DejaVuSans-32" d="M 1228 531 
L 3431 531 
L 3431 0 
L 469 0 
L 469 531 
Q 828 903 1448 1529 
Q 2069 2156 2228 2338 
Q 2531 2678 2651 2914 
Q 2772 3150 2772 3378 
Q 2772 3750 2511 3984 
Q 2250 4219 1831 4219 
Q 1534 4219 1204 4116 
Q 875 4013 500 3803 
L 500 4441 
Q 881 4594 1212 4672 
Q 1544 4750 1819 4750 
Q 2544 4750 2975 4387 
Q 3406 4025 3406 3419 
Q 3406 3131 3298 2873 
Q 3191 2616 2906 2266 
Q 2828 2175 2409 1742 
Q 1991 1309 1228 531 
z
" transform="scale(0.015625)"/>
       </defs>
       <use xlink:href="#DejaVuSans-31" transform="translate(0 0.765625)"/>
       <use xlink:href="#DejaVuSans-30" transform="translate(63.623047 0.765625)"/>
       <use xlink:href="#DejaVuSans-32" transform="translate(128.203125 39.046875) scale(0.7)"/>
      </g>
     </g>
    </g>
    <g id="xtick_4">
     <g id="line2d_7">
      <path d="M 298.47403 402.84327 
L 298.47403 22.318125 
" clip-path="url(#p9d0e8f46e4)" style="fill: none; stroke: #b0b0b0; stroke-opacity: 0.8; stroke-width: 0.8; stroke-linecap: square"/>
     </g>
     <g id="line2d_8">
      <g>
       <use xlink:href="#me4ad1feb24" x="298.47403" y="402.84327" style="stroke: #000000; stroke-width: 0.8"/>
      </g>
     </g>
     <g id="text_4">
      <!-- $\mathdefault{10^{3}}$ -->
      <g transform="translate(289.67403 417.441707) scale(0.1 -0.1)">
       <defs>
        <path id="DejaVuSans-33" d="M 2597 2516 
Q 3050 2419 3304 2112 
Q 3559 1806 3559 1356 
Q 3559 666 3084 287 
Q 2609 -91 1734 -91 
Q 1441 -91 1130 -33 
Q 819 25 488 141 
L 488 750 
Q 750 597 1062 519 
Q 1375 441 1716 441 
Q 2309 441 2620 675 
Q 2931 909 2931 1356 
Q 2931 1769 2642 2001 
Q 2353 2234 1838 2234 
L 1294 2234 
L 1294 2753 
L 1863 2753 
Q 2328 2753 2575 2939 
Q 2822 3125 2822 3475 
Q 2822 3834 2567 4026 
Q 2313 4219 1838 4219 
Q 1578 4219 1281 4162 
Q 984 4106 628 3988 
L 628 4550 
Q 988 4650 1302 4700 
Q 1616 4750 1894 4750 
Q 2613 4750 3031 4423 
Q 3450 4097 3450 3541 
Q 3450 3153 3228 2886 
Q 3006 2619 2597 2516 
z
" transform="scale(0.015625)"/>
       </defs>
       <use xlink:href="#DejaVuSans-31" transform="translate(0 0.765625)"/>
       <use xlink:href="#DejaVuSans-30" transform="translate(63.623047 0.765625)"/>
       <use xlink:href="#DejaVuSans-33" transform="translate(128.203125 39.046875) scale(0.7)"/>
      </g>
     </g>
    </g>
    <g id="xtick_5">
     <g id="line2d_9">
      <path d="M 381.63214 402.84327 
L 381.63214 22.318125 
" clip-path="url(#p9d0e8f46e4)" style="fill: none; stroke: #b0b0b0; stroke-opacity: 0.8; stroke-width: 0.8; stroke-linecap: square"/>
     </g>
     <g id="line2d_10">
      <g>
       <use xlink:href="#me4ad1feb24" x="381.63214" y="402.84327" style="stroke: #000000; stroke-width: 0.8"/>
      </g>
     </g>
     <g id="text_5">
      <!-- $\mathdefault{10^{4}}$ -->
      <g transform="translate(372.83214 417.441707) scale(0.1 -0.1)">
       <defs>
        <path id="DejaVuSans-34" d="M 2419 4116 
L 825 1625 
L 2419 1625 
L 2419 4116 
z
M 2253 4666 
L 3047 4666 
L 3047 1625 
L 3713 1625 
L 3713 1100 
L 3047 1100 
L 3047 0 
L 2419 0 
L 2419 1100 
L 313 1100 
L 313 1709 
L 2253 4666 
z
" transform="scale(0.015625)"/>
       </defs>
       <use xlink:href="#DejaVuSans-31" transform="translate(0 0.684375)"/>
       <use xlink:href="#DejaVuSans-30" transform="translate(63.623047 0.684375)"/>
       <use xlink:href="#DejaVuSans-34" transform="translate(128.203125 38.965625) scale(0.7)"/>
      </g>
     </g>
    </g>
    <g id="xtick_6">
     <g id="line2d_11">
      <path d="M 464.790249 402.84327 
L 464.790249 22.318125 
" clip-path="url(#p9d0e8f46e4)" style="fill: none; stroke: #b0b0b0; stroke-opacity: 0.8; stroke-width: 0.8; stroke-linecap: square"/>
     </g>
     <g id="line2d_12">
      <g>
       <use xlink:href="#me4ad1feb24" x="464.790249" y="402.84327" style="stroke: #000000; stroke-width: 0.8"/>
      </g>
     </g>
     <g id="text_6">
      <!-- $\mathdefault{10^{5}}$ -->
      <g transform="translate(455.990249 417.441707) scale(0.1 -0.1)">
       <defs>
        <path id="DejaVuSans-35" d="M 691 4666 
L 3169 4666 
L 3169 4134 
L 1269 4134 
L 1269 2991 
Q 1406 3038 1543 3061 
Q 1681 3084 1819 3084 
Q 2600 3084 3056 2656 
Q 3513 2228 3513 1497 
Q 3513 744 3044 326 
Q 2575 -91 1722 -91 
Q 1428 -91 1123 -41 
Q 819 9 494 109 
L 494 744 
Q 775 591 1075 516 
Q 1375 441 1709 441 
Q 2250 441 2565 725 
Q 2881 1009 2881 1497 
Q 2881 1984 2565 2268 
Q 2250 2553 1709 2553 
Q 1456 2553 1204 2497 
Q 953 2441 691 2322 
L 691 4666 
z
" transform="scale(0.015625)"/>
       </defs>
       <use xlink:href="#DejaVuSans-31" transform="translate(0 0.684375)"/>
       <use xlink:href="#DejaVuSans-30" transform="translate(63.623047 0.684375)"/>
       <use xlink:href="#DejaVuSans-35" transform="translate(128.203125 38.965625) scale(0.7)"/>
      </g>
     </g>
    </g>
    <g id="xtick_7">
     <g id="line2d_13">
      <path d="M 547.948359 402.84327 
L 547.948359 22.318125 
" clip-path="url(#p9d0e8f46e4)" style="fill: none; stroke: #b0b0b0; stroke-opacity: 0.8; stroke-width: 0.8; stroke-linecap: square"/>
     </g>
     <g id="line2d_14">
      <g>
       <use xlink:href="#me4ad1feb24" x="547.948359" y="402.84327" style="stroke: #000000; stroke-width: 0.8"/>
      </g>
     </g>
     <g id="text_7">
      <!-- $\mathdefault{10^{6}}$ -->
      <g transform="translate(539.148359 417.441707) scale(0.1 -0.1)">
       <defs>
        <path id="DejaVuSans-36" d="M 2113 2584 
Q 1688 2584 1439 2293 
Q 1191 2003 1191 1497 
Q 1191 994 1439 701 
Q 1688 409 2113 409 
Q 2538 409 2786 701 
Q 3034 994 3034 1497 
Q 3034 2003 2786 2293 
Q 2538 2584 2113 2584 
z
M 3366 4563 
L 3366 3988 
Q 3128 4100 2886 4159 
Q 2644 4219 2406 4219 
Q 1781 4219 1451 3797 
Q 1122 3375 1075 2522 
Q 1259 2794 1537 2939 
Q 1816 3084 2150 3084 
Q 2853 3084 3261 2657 
Q 3669 2231 3669 1497 
Q 3669 778 3244 343 
Q 2819 -91 2113 -91 
Q 1303 -91 875 529 
Q 447 1150 447 2328 
Q 447 3434 972 4092 
Q 1497 4750 2381 4750 
Q 2619 4750 2861 4703 
Q 3103 4656 3366 4563 
z
" transform="scale(0.015625)"/>
       </defs>
       <use xlink:href="#DejaVuSans-31" transform="translate(0 0.765625)"/>
       <use xlink:href="#DejaVuSans-30" transform="translate(63.623047 0.765625)"/>
       <use xlink:href="#DejaVuSans-36" transform="translate(128.203125 39.046875) scale(0.7)"/>
      </g>
     </g>
    </g>
    <g id="xtick_8">
     <g id="line2d_15">
      <defs>
       <path id="m3c2f966cf2" d="M 0 0 
L 0 2 
" style="stroke: #000000; stroke-width: 0.6"/>
      </defs>
      <g>
       <use xlink:href="#m3c2f966cf2" x="74.032787" y="402.84327" style="stroke: #000000; stroke-width: 0.6"/>
      </g>
     </g>
    </g>
    <g id="xtick_9">
     <g id="line2d_16">
      <g>
       <use xlink:href="#m3c2f966cf2" x="88.676203" y="402.84327" style="stroke: #000000; stroke-width: 0.6"/>
      </g>
     </g>
    </g>
    <g id="xtick_10">
     <g id="line2d_17">
      <g>
       <use xlink:href="#m3c2f966cf2" x="99.065872" y="402.84327" style="stroke: #000000; stroke-width: 0.6"/>
      </g>
     </g>
    </g>
    <g id="xtick_11">
     <g id="line2d_18">
      <g>
       <use xlink:href="#m3c2f966cf2" x="107.124726" y="402.84327" style="stroke: #000000; stroke-width: 0.6"/>
      </g>
     </g>
    </g>
    <g id="xtick_12">
     <g id="line2d_19">
      <g>
       <use xlink:href="#m3c2f966cf2" x="113.709288" y="402.84327" style="stroke: #000000; stroke-width: 0.6"/>
      </g>
     </g>
    </g>
    <g id="xtick_13">
     <g id="line2d_20">
      <g>
       <use xlink:href="#m3c2f966cf2" x="119.276457" y="402.84327" style="stroke: #000000; stroke-width: 0.6"/>
      </g>
     </g>
    </g>
    <g id="xtick_14">
     <g id="line2d_21">
      <g>
       <use xlink:href="#m3c2f966cf2" x="124.098957" y="402.84327" style="stroke: #000000; stroke-width: 0.6"/>
      </g>
     </g>
    </g>
    <g id="xtick_15">
     <g id="line2d_22">
      <g>
       <use xlink:href="#m3c2f966cf2" x="128.352704" y="402.84327" style="stroke: #000000; stroke-width: 0.6"/>
      </g>
     </g>
    </g>
    <g id="xtick_16">
     <g id="line2d_23">
      <g>
       <use xlink:href="#m3c2f966cf2" x="157.190896" y="402.84327" style="stroke: #000000; stroke-width: 0.6"/>
      </g>
     </g>
    </g>
    <g id="xtick_17">
     <g id="line2d_24">
      <g>
       <use xlink:href="#m3c2f966cf2" x="171.834312" y="402.84327" style="stroke: #000000; stroke-width: 0.6"/>
      </g>
     </g>
    </g>
    <g id="xtick_18">
     <g id="line2d_25">
      <g>
       <use xlink:href="#m3c2f966cf2" x="182.223982" y="402.84327" style="stroke: #000000; stroke-width: 0.6"/>
      </g>
     </g>
    </g>
    <g id="xtick_19">
     <g id="line2d_26">
      <g>
       <use xlink:href="#m3c2f966cf2" x="190.282835" y="402.84327" style="stroke: #000000; stroke-width: 0.6"/>
      </g>
     </g>
    </g>
    <g id="xtick_20">
     <g id="line2d_27">
      <g>
       <use xlink:href="#m3c2f966cf2" x="196.867398" y="402.84327" style="stroke: #000000; stroke-width: 0.6"/>
      </g>
     </g>
    </g>
    <g id="xtick_21">
     <g id="line2d_28">
      <g>
       <use xlink:href="#m3c2f966cf2" x="202.434566" y="402.84327" style="stroke: #000000; stroke-width: 0.6"/>
      </g>
     </g>
    </g>
    <g id="xtick_22">
     <g id="line2d_29">
      <g>
       <use xlink:href="#m3c2f966cf2" x="207.257067" y="402.84327" style="stroke: #000000; stroke-width: 0.6"/>
      </g>
     </g>
    </g>
    <g id="xtick_23">
     <g id="line2d_30">
      <g>
       <use xlink:href="#m3c2f966cf2" x="211.510814" y="402.84327" style="stroke: #000000; stroke-width: 0.6"/>
      </g>
     </g>
    </g>
    <g id="xtick_24">
     <g id="line2d_31">
      <g>
       <use xlink:href="#m3c2f966cf2" x="240.349006" y="402.84327" style="stroke: #000000; stroke-width: 0.6"/>
      </g>
     </g>
    </g>
    <g id="xtick_25">
     <g id="line2d_32">
      <g>
       <use xlink:href="#m3c2f966cf2" x="254.992422" y="402.84327" style="stroke: #000000; stroke-width: 0.6"/>
      </g>
     </g>
    </g>
    <g id="xtick_26">
     <g id="line2d_33">
      <g>
       <use xlink:href="#m3c2f966cf2" x="265.382091" y="402.84327" style="stroke: #000000; stroke-width: 0.6"/>
      </g>
     </g>
    </g>
    <g id="xtick_27">
     <g id="line2d_34">
      <g>
       <use xlink:href="#m3c2f966cf2" x="273.440945" y="402.84327" style="stroke: #000000; stroke-width: 0.6"/>
      </g>
     </g>
    </g>
    <g id="xtick_28">
     <g id="line2d_35">
      <g>
       <use xlink:href="#m3c2f966cf2" x="280.025507" y="402.84327" style="stroke: #000000; stroke-width: 0.6"/>
      </g>
     </g>
    </g>
    <g id="xtick_29">
     <g id="line2d_36">
      <g>
       <use xlink:href="#m3c2f966cf2" x="285.592676" y="402.84327" style="stroke: #000000; stroke-width: 0.6"/>
      </g>
     </g>
    </g>
    <g id="xtick_30">
     <g id="line2d_37">
      <g>
       <use xlink:href="#m3c2f966cf2" x="290.415177" y="402.84327" style="stroke: #000000; stroke-width: 0.6"/>
      </g>
     </g>
    </g>
    <g id="xtick_31">
     <g id="line2d_38">
      <g>
       <use xlink:href="#m3c2f966cf2" x="294.668924" y="402.84327" style="stroke: #000000; stroke-width: 0.6"/>
      </g>
     </g>
    </g>
    <g id="xtick_32">
     <g id="line2d_39">
      <g>
       <use xlink:href="#m3c2f966cf2" x="323.507115" y="402.84327" style="stroke: #000000; stroke-width: 0.6"/>
      </g>
     </g>
    </g>
    <g id="xtick_33">
     <g id="line2d_40">
      <g>
       <use xlink:href="#m3c2f966cf2" x="338.150532" y="402.84327" style="stroke: #000000; stroke-width: 0.6"/>
      </g>
     </g>
    </g>
    <g id="xtick_34">
     <g id="line2d_41">
      <g>
       <use xlink:href="#m3c2f966cf2" x="348.540201" y="402.84327" style="stroke: #000000; stroke-width: 0.6"/>
      </g>
     </g>
    </g>
    <g id="xtick_35">
     <g id="line2d_42">
      <g>
       <use xlink:href="#m3c2f966cf2" x="356.599054" y="402.84327" style="stroke: #000000; stroke-width: 0.6"/>
      </g>
     </g>
    </g>
    <g id="xtick_36">
     <g id="line2d_43">
      <g>
       <use xlink:href="#m3c2f966cf2" x="363.183617" y="402.84327" style="stroke: #000000; stroke-width: 0.6"/>
      </g>
     </g>
    </g>
    <g id="xtick_37">
     <g id="line2d_44">
      <g>
       <use xlink:href="#m3c2f966cf2" x="368.750785" y="402.84327" style="stroke: #000000; stroke-width: 0.6"/>
      </g>
     </g>
    </g>
    <g id="xtick_38">
     <g id="line2d_45">
      <g>
       <use xlink:href="#m3c2f966cf2" x="373.573286" y="402.84327" style="stroke: #000000; stroke-width: 0.6"/>
      </g>
     </g>
    </g>
    <g id="xtick_39">
     <g id="line2d_46">
      <g>
       <use xlink:href="#m3c2f966cf2" x="377.827033" y="402.84327" style="stroke: #000000; stroke-width: 0.6"/>
      </g>
     </g>
    </g>
    <g id="xtick_40">
     <g id="line2d_47">
      <g>
       <use xlink:href="#m3c2f966cf2" x="406.665225" y="402.84327" style="stroke: #000000; stroke-width: 0.6"/>
      </g>
     </g>
    </g>
    <g id="xtick_41">
     <g id="line2d_48">
      <g>
       <use xlink:href="#m3c2f966cf2" x="421.308641" y="402.84327" style="stroke: #000000; stroke-width: 0.6"/>
      </g>
     </g>
    </g>
    <g id="xtick_42">
     <g id="line2d_49">
      <g>
       <use xlink:href="#m3c2f966cf2" x="431.69831" y="402.84327" style="stroke: #000000; stroke-width: 0.6"/>
      </g>
     </g>
    </g>
    <g id="xtick_43">
     <g id="line2d_50">
      <g>
       <use xlink:href="#m3c2f966cf2" x="439.757164" y="402.84327" style="stroke: #000000; stroke-width: 0.6"/>
      </g>
     </g>
    </g>
    <g id="xtick_44">
     <g id="line2d_51">
      <g>
       <use xlink:href="#m3c2f966cf2" x="446.341727" y="402.84327" style="stroke: #000000; stroke-width: 0.6"/>
      </g>
     </g>
    </g>
    <g id="xtick_45">
     <g id="line2d_52">
      <g>
       <use xlink:href="#m3c2f966cf2" x="451.908895" y="402.84327" style="stroke: #000000; stroke-width: 0.6"/>
      </g>
     </g>
    </g>
    <g id="xtick_46">
     <g id="line2d_53">
      <g>
       <use xlink:href="#m3c2f966cf2" x="456.731396" y="402.84327" style="stroke: #000000; stroke-width: 0.6"/>
      </g>
     </g>
    </g>
    <g id="xtick_47">
     <g id="line2d_54">
      <g>
       <use xlink:href="#m3c2f966cf2" x="460.985143" y="402.84327" style="stroke: #000000; stroke-width: 0.6"/>
      </g>
     </g>
    </g>
    <g id="xtick_48">
     <g id="line2d_55">
      <g>
       <use xlink:href="#m3c2f966cf2" x="489.823335" y="402.84327" style="stroke: #000000; stroke-width: 0.6"/>
      </g>
     </g>
    </g>
    <g id="xtick_49">
     <g id="line2d_56">
      <g>
       <use xlink:href="#m3c2f966cf2" x="504.466751" y="402.84327" style="stroke: #000000; stroke-width: 0.6"/>
      </g>
     </g>
    </g>
    <g id="xtick_50">
     <g id="line2d_57">
      <g>
       <use xlink:href="#m3c2f966cf2" x="514.85642" y="402.84327" style="stroke: #000000; stroke-width: 0.6"/>
      </g>
     </g>
    </g>
    <g id="xtick_51">
     <g id="line2d_58">
      <g>
       <use xlink:href="#m3c2f966cf2" x="522.915273" y="402.84327" style="stroke: #000000; stroke-width: 0.6"/>
      </g>
     </g>
    </g>
    <g id="xtick_52">
     <g id="line2d_59">
      <g>
       <use xlink:href="#m3c2f966cf2" x="529.499836" y="402.84327" style="stroke: #000000; stroke-width: 0.6"/>
      </g>
     </g>
    </g>
    <g id="xtick_53">
     <g id="line2d_60">
      <g>
       <use xlink:href="#m3c2f966cf2" x="535.067005" y="402.84327" style="stroke: #000000; stroke-width: 0.6"/>
      </g>
     </g>
    </g>
    <g id="xtick_54">
     <g id="line2d_61">
      <g>
       <use xlink:href="#m3c2f966cf2" x="539.889505" y="402.84327" style="stroke: #000000; stroke-width: 0.6"/>
      </g>
     </g>
    </g>
    <g id="xtick_55">
     <g id="line2d_62">
      <g>
       <use xlink:href="#m3c2f966cf2" x="544.143252" y="402.84327" style="stroke: #000000; stroke-width: 0.6"/>
      </g>
     </g>
    </g>
    <g id="xtick_56">
     <g id="line2d_63">
      <g>
       <use xlink:href="#m3c2f966cf2" x="572.981444" y="402.84327" style="stroke: #000000; stroke-width: 0.6"/>
      </g>
     </g>
    </g>
    <g id="text_8">
     <!-- Hourly load sum -->
     <g transform="translate(269.801911 431.119832) scale(0.1 -0.1)">
      <defs>
       <path id="DejaVuSans-48" d="M 628 4666 
L 1259 4666 
L 1259 2753 
L 3553 2753 
L 3553 4666 
L 4184 4666 
L 4184 0 
L 3553 0 
L 3553 2222 
L 1259 2222 
L 1259 0 
L 628 0 
L 628 4666 
z
" transform="scale(0.015625)"/>
       <path id="DejaVuSans-6f" d="M 1959 3097 
Q 1497 3097 1228 2736 
Q 959 2375 959 1747 
Q 959 1119 1226 758 
Q 1494 397 1959 397 
Q 2419 397 2687 759 
Q 2956 1122 2956 1747 
Q 2956 2369 2687 2733 
Q 2419 3097 1959 3097 
z
M 1959 3584 
Q 2709 3584 3137 3096 
Q 3566 2609 3566 1747 
Q 3566 888 3137 398 
Q 2709 -91 1959 -91 
Q 1206 -91 779 398 
Q 353 888 353 1747 
Q 353 2609 779 3096 
Q 1206 3584 1959 3584 
z
" transform="scale(0.015625)"/>
       <path id="DejaVuSans-75" d="M 544 1381 
L 544 3500 
L 1119 3500 
L 1119 1403 
Q 1119 906 1312 657 
Q 1506 409 1894 409 
Q 2359 409 2629 706 
Q 2900 1003 2900 1516 
L 2900 3500 
L 3475 3500 
L 3475 0 
L 2900 0 
L 2900 538 
Q 2691 219 2414 64 
Q 2138 -91 1772 -91 
Q 1169 -91 856 284 
Q 544 659 544 1381 
z
M 1991 3584 
L 1991 3584 
z
" transform="scale(0.015625)"/>
       <path id="DejaVuSans-72" d="M 2631 2963 
Q 2534 3019 2420 3045 
Q 2306 3072 2169 3072 
Q 1681 3072 1420 2755 
Q 1159 2438 1159 1844 
L 1159 0 
L 581 0 
L 581 3500 
L 1159 3500 
L 1159 2956 
Q 1341 3275 1631 3429 
Q 1922 3584 2338 3584 
Q 2397 3584 2469 3576 
Q 2541 3569 2628 3553 
L 2631 2963 
z
" transform="scale(0.015625)"/>
       <path id="DejaVuSans-6c" d="M 603 4863 
L 1178 4863 
L 1178 0 
L 603 0 
L 603 4863 
z
" transform="scale(0.015625)"/>
       <path id="DejaVuSans-79" d="M 2059 -325 
Q 1816 -950 1584 -1140 
Q 1353 -1331 966 -1331 
L 506 -1331 
L 506 -850 
L 844 -850 
Q 1081 -850 1212 -737 
Q 1344 -625 1503 -206 
L 1606 56 
L 191 3500 
L 800 3500 
L 1894 763 
L 2988 3500 
L 3597 3500 
L 2059 -325 
z
" transform="scale(0.015625)"/>
       <path id="DejaVuSans-20" transform="scale(0.015625)"/>
       <path id="DejaVuSans-61" d="M 2194 1759 
Q 1497 1759 1228 1600 
Q 959 1441 959 1056 
Q 959 750 1161 570 
Q 1363 391 1709 391 
Q 2188 391 2477 730 
Q 2766 1069 2766 1631 
L 2766 1759 
L 2194 1759 
z
M 3341 1997 
L 3341 0 
L 2766 0 
L 2766 531 
Q 2569 213 2275 61 
Q 1981 -91 1556 -91 
Q 1019 -91 701 211 
Q 384 513 384 1019 
Q 384 1609 779 1909 
Q 1175 2209 1959 2209 
L 2766 2209 
L 2766 2266 
Q 2766 2663 2505 2880 
Q 2244 3097 1772 3097 
Q 1472 3097 1187 3025 
Q 903 2953 641 2809 
L 641 3341 
Q 956 3463 1253 3523 
Q 1550 3584 1831 3584 
Q 2591 3584 2966 3190 
Q 3341 2797 3341 1997 
z
" transform="scale(0.015625)"/>
       <path id="DejaVuSans-64" d="M 2906 2969 
L 2906 4863 
L 3481 4863 
L 3481 0 
L 2906 0 
L 2906 525 
Q 2725 213 2448 61 
Q 2172 -91 1784 -91 
Q 1150 -91 751 415 
Q 353 922 353 1747 
Q 353 2572 751 3078 
Q 1150 3584 1784 3584 
Q 2172 3584 2448 3432 
Q 2725 3281 2906 2969 
z
M 947 1747 
Q 947 1113 1208 752 
Q 1469 391 1925 391 
Q 2381 391 2643 752 
Q 2906 1113 2906 1747 
Q 2906 2381 2643 2742 
Q 2381 3103 1925 3103 
Q 1469 3103 1208 2742 
Q 947 2381 947 1747 
z
" transform="scale(0.015625)"/>
       <path id="DejaVuSans-73" d="M 2834 3397 
L 2834 2853 
Q 2591 2978 2328 3040 
Q 2066 3103 1784 3103 
Q 1356 3103 1142 2972 
Q 928 2841 928 2578 
Q 928 2378 1081 2264 
Q 1234 2150 1697 2047 
L 1894 2003 
Q 2506 1872 2764 1633 
Q 3022 1394 3022 966 
Q 3022 478 2636 193 
Q 2250 -91 1575 -91 
Q 1294 -91 989 -36 
Q 684 19 347 128 
L 347 722 
Q 666 556 975 473 
Q 1284 391 1588 391 
Q 1994 391 2212 530 
Q 2431 669 2431 922 
Q 2431 1156 2273 1281 
Q 2116 1406 1581 1522 
L 1381 1569 
Q 847 1681 609 1914 
Q 372 2147 372 2553 
Q 372 3047 722 3315 
Q 1072 3584 1716 3584 
Q 2034 3584 2315 3537 
Q 2597 3491 2834 3397 
z
" transform="scale(0.015625)"/>
       <path id="DejaVuSans-6d" d="M 3328 2828 
Q 3544 3216 3844 3400 
Q 4144 3584 4550 3584 
Q 5097 3584 5394 3201 
Q 5691 2819 5691 2113 
L 5691 0 
L 5113 0 
L 5113 2094 
Q 5113 2597 4934 2840 
Q 4756 3084 4391 3084 
Q 3944 3084 3684 2787 
Q 3425 2491 3425 1978 
L 3425 0 
L 2847 0 
L 2847 2094 
Q 2847 2600 2669 2842 
Q 2491 3084 2119 3084 
Q 1678 3084 1418 2786 
Q 1159 2488 1159 1978 
L 1159 0 
L 581 0 
L 581 3500 
L 1159 3500 
L 1159 2956 
Q 1356 3278 1631 3431 
Q 1906 3584 2284 3584 
Q 2666 3584 2933 3390 
Q 3200 3197 3328 2828 
z
" transform="scale(0.015625)"/>
      </defs>
      <use xlink:href="#DejaVuSans-48"/>
      <use xlink:href="#DejaVuSans-6f" transform="translate(75.195312 0)"/>
      <use xlink:href="#DejaVuSans-75" transform="translate(136.376953 0)"/>
      <use xlink:href="#DejaVuSans-72" transform="translate(199.755859 0)"/>
      <use xlink:href="#DejaVuSans-6c" transform="translate(240.869141 0)"/>
      <use xlink:href="#DejaVuSans-79" transform="translate(268.652344 0)"/>
      <use xlink:href="#DejaVuSans-20" transform="translate(327.832031 0)"/>
      <use xlink:href="#DejaVuSans-6c" transform="translate(359.619141 0)"/>
      <use xlink:href="#DejaVuSans-6f" transform="translate(387.402344 0)"/>
      <use xlink:href="#DejaVuSans-61" transform="translate(448.583984 0)"/>
      <use xlink:href="#DejaVuSans-64" transform="translate(509.863281 0)"/>
      <use xlink:href="#DejaVuSans-20" transform="translate(573.339844 0)"/>
      <use xlink:href="#DejaVuSans-73" transform="translate(605.126953 0)"/>
      <use xlink:href="#DejaVuSans-75" transform="translate(657.226562 0)"/>
      <use xlink:href="#DejaVuSans-6d" transform="translate(720.605469 0)"/>
     </g>
    </g>
   </g>
   <g id="matplotlib.axis_2">
    <g id="ytick_1">
     <g id="line2d_64">
      <path d="M 46.965625 402.84327 
L 574.43976 402.84327 
" clip-path="url(#p9d0e8f46e4)" style="fill: none; stroke: #b0b0b0; stroke-opacity: 0.8; stroke-width: 0.8; stroke-linecap: square"/>
     </g>
     <g id="line2d_65">
      <defs>
       <path id="m1433754b9f" d="M 0 0 
L -3.5 0 
" style="stroke: #000000; stroke-width: 0.8"/>
      </defs>
      <g>
       <use xlink:href="#m1433754b9f" x="46.965625" y="402.84327" style="stroke: #000000; stroke-width: 0.8"/>
      </g>
     </g>
     <g id="text_9">
      <!-- 0 -->
      <g transform="translate(33.603125 406.642489) scale(0.1 -0.1)">
       <use xlink:href="#DejaVuSans-30"/>
      </g>
     </g>
    </g>
    <g id="ytick_2">
     <g id="line2d_66">
      <path d="M 46.965625 338.128109 
L 574.43976 338.128109 
" clip-path="url(#p9d0e8f46e4)" style="fill: none; stroke: #b0b0b0; stroke-opacity: 0.8; stroke-width: 0.8; stroke-linecap: square"/>
     </g>
     <g id="line2d_67">
      <g>
       <use xlink:href="#m1433754b9f" x="46.965625" y="338.128109" style="stroke: #000000; stroke-width: 0.8"/>
      </g>
     </g>
     <g id="text_10">
      <!-- 50 -->
      <g transform="translate(27.240625 341.927328) scale(0.1 -0.1)">
       <use xlink:href="#DejaVuSans-35"/>
       <use xlink:href="#DejaVuSans-30" transform="translate(63.623047 0)"/>
      </g>
     </g>
    </g>
    <g id="ytick_3">
     <g id="line2d_68">
      <path d="M 46.965625 273.412949 
L 574.43976 273.412949 
" clip-path="url(#p9d0e8f46e4)" style="fill: none; stroke: #b0b0b0; stroke-opacity: 0.8; stroke-width: 0.8; stroke-linecap: square"/>
     </g>
     <g id="line2d_69">
      <g>
       <use xlink:href="#m1433754b9f" x="46.965625" y="273.412949" style="stroke: #000000; stroke-width: 0.8"/>
      </g>
     </g>
     <g id="text_11">
      <!-- 100 -->
      <g transform="translate(20.878125 277.212167) scale(0.1 -0.1)">
       <use xlink:href="#DejaVuSans-31"/>
       <use xlink:href="#DejaVuSans-30" transform="translate(63.623047 0)"/>
       <use xlink:href="#DejaVuSans-30" transform="translate(127.246094 0)"/>
      </g>
     </g>
    </g>
    <g id="ytick_4">
     <g id="line2d_70">
      <path d="M 46.965625 208.697788 
L 574.43976 208.697788 
" clip-path="url(#p9d0e8f46e4)" style="fill: none; stroke: #b0b0b0; stroke-opacity: 0.8; stroke-width: 0.8; stroke-linecap: square"/>
     </g>
     <g id="line2d_71">
      <g>
       <use xlink:href="#m1433754b9f" x="46.965625" y="208.697788" style="stroke: #000000; stroke-width: 0.8"/>
      </g>
     </g>
     <g id="text_12">
      <!-- 150 -->
      <g transform="translate(20.878125 212.497007) scale(0.1 -0.1)">
       <use xlink:href="#DejaVuSans-31"/>
       <use xlink:href="#DejaVuSans-35" transform="translate(63.623047 0)"/>
       <use xlink:href="#DejaVuSans-30" transform="translate(127.246094 0)"/>
      </g>
     </g>
    </g>
    <g id="ytick_5">
     <g id="line2d_72">
      <path d="M 46.965625 143.982627 
L 574.43976 143.982627 
" clip-path="url(#p9d0e8f46e4)" style="fill: none; stroke: #b0b0b0; stroke-opacity: 0.8; stroke-width: 0.8; stroke-linecap: square"/>
     </g>
     <g id="line2d_73">
      <g>
       <use xlink:href="#m1433754b9f" x="46.965625" y="143.982627" style="stroke: #000000; stroke-width: 0.8"/>
      </g>
     </g>
     <g id="text_13">
      <!-- 200 -->
      <g transform="translate(20.878125 147.781846) scale(0.1 -0.1)">
       <use xlink:href="#DejaVuSans-32"/>
       <use xlink:href="#DejaVuSans-30" transform="translate(63.623047 0)"/>
       <use xlink:href="#DejaVuSans-30" transform="translate(127.246094 0)"/>
      </g>
     </g>
    </g>
    <g id="ytick_6">
     <g id="line2d_74">
      <path d="M 46.965625 79.267466 
L 574.43976 79.267466 
" clip-path="url(#p9d0e8f46e4)" style="fill: none; stroke: #b0b0b0; stroke-opacity: 0.8; stroke-width: 0.8; stroke-linecap: square"/>
     </g>
     <g id="line2d_75">
      <g>
       <use xlink:href="#m1433754b9f" x="46.965625" y="79.267466" style="stroke: #000000; stroke-width: 0.8"/>
      </g>
     </g>
     <g id="text_14">
      <!-- 250 -->
      <g transform="translate(20.878125 83.066685) scale(0.1 -0.1)">
       <use xlink:href="#DejaVuSans-32"/>
       <use xlink:href="#DejaVuSans-35" transform="translate(63.623047 0)"/>
       <use xlink:href="#DejaVuSans-30" transform="translate(127.246094 0)"/>
      </g>
     </g>
    </g>
    <g id="text_15">
     <!-- Frequency -->
     <g transform="translate(14.798437 238.410385) rotate(-90) scale(0.1 -0.1)">
      <defs>
       <path id="DejaVuSans-46" d="M 628 4666 
L 3309 4666 
L 3309 4134 
L 1259 4134 
L 1259 2759 
L 3109 2759 
L 3109 2228 
L 1259 2228 
L 1259 0 
L 628 0 
L 628 4666 
z
" transform="scale(0.015625)"/>
       <path id="DejaVuSans-65" d="M 3597 1894 
L 3597 1613 
L 953 1613 
Q 991 1019 1311 708 
Q 1631 397 2203 397 
Q 2534 397 2845 478 
Q 3156 559 3463 722 
L 3463 178 
Q 3153 47 2828 -22 
Q 2503 -91 2169 -91 
Q 1331 -91 842 396 
Q 353 884 353 1716 
Q 353 2575 817 3079 
Q 1281 3584 2069 3584 
Q 2775 3584 3186 3129 
Q 3597 2675 3597 1894 
z
M 3022 2063 
Q 3016 2534 2758 2815 
Q 2500 3097 2075 3097 
Q 1594 3097 1305 2825 
Q 1016 2553 972 2059 
L 3022 2063 
z
" transform="scale(0.015625)"/>
       <path id="DejaVuSans-71" d="M 947 1747 
Q 947 1113 1208 752 
Q 1469 391 1925 391 
Q 2381 391 2643 752 
Q 2906 1113 2906 1747 
Q 2906 2381 2643 2742 
Q 2381 3103 1925 3103 
Q 1469 3103 1208 2742 
Q 947 2381 947 1747 
z
M 2906 525 
Q 2725 213 2448 61 
Q 2172 -91 1784 -91 
Q 1150 -91 751 415 
Q 353 922 353 1747 
Q 353 2572 751 3078 
Q 1150 3584 1784 3584 
Q 2172 3584 2448 3432 
Q 2725 3281 2906 2969 
L 2906 3500 
L 3481 3500 
L 3481 -1331 
L 2906 -1331 
L 2906 525 
z
" transform="scale(0.015625)"/>
       <path id="DejaVuSans-6e" d="M 3513 2113 
L 3513 0 
L 2938 0 
L 2938 2094 
Q 2938 2591 2744 2837 
Q 2550 3084 2163 3084 
Q 1697 3084 1428 2787 
Q 1159 2491 1159 1978 
L 1159 0 
L 581 0 
L 581 3500 
L 1159 3500 
L 1159 2956 
Q 1366 3272 1645 3428 
Q 1925 3584 2291 3584 
Q 2894 3584 3203 3211 
Q 3513 2838 3513 2113 
z
" transform="scale(0.015625)"/>
       <path id="DejaVuSans-63" d="M 3122 3366 
L 3122 2828 
Q 2878 2963 2633 3030 
Q 2388 3097 2138 3097 
Q 1578 3097 1268 2742 
Q 959 2388 959 1747 
Q 959 1106 1268 751 
Q 1578 397 2138 397 
Q 2388 397 2633 464 
Q 2878 531 3122 666 
L 3122 134 
Q 2881 22 2623 -34 
Q 2366 -91 2075 -91 
Q 1284 -91 818 406 
Q 353 903 353 1747 
Q 353 2603 823 3093 
Q 1294 3584 2113 3584 
Q 2378 3584 2631 3529 
Q 2884 3475 3122 3366 
z
" transform="scale(0.015625)"/>
      </defs>
      <use xlink:href="#DejaVuSans-46"/>
      <use xlink:href="#DejaVuSans-72" transform="translate(50.269531 0)"/>
      <use xlink:href="#DejaVuSans-65" transform="translate(89.132812 0)"/>
      <use xlink:href="#DejaVuSans-71" transform="translate(150.65625 0)"/>
      <use xlink:href="#DejaVuSans-75" transform="translate(214.132812 0)"/>
      <use xlink:href="#DejaVuSans-65" transform="translate(277.511719 0)"/>
      <use xlink:href="#DejaVuSans-6e" transform="translate(339.035156 0)"/>
      <use xlink:href="#DejaVuSans-63" transform="translate(402.414062 0)"/>
      <use xlink:href="#DejaVuSans-79" transform="translate(457.394531 0)"/>
     </g>
    </g>
   </g>
   <g id="line2d_76">
    <path d="M 499.45968 402.84327 
L 550.463663 402.84327 
L 550.463663 402.84327 
" clip-path="url(#p9d0e8f46e4)" style="fill: none; stroke: #1f77b4; stroke-width: 2.2; stroke-linecap: square"/>
   </g>
   <g id="line2d_77">
    <path d="M -1 402.84327 
L 518.555649 402.84327 
L 518.555649 402.84327 
" clip-path="url(#p9d0e8f46e4)" style="fill: none; stroke: #ff7f0e; stroke-width: 2.2; stroke-linecap: square"/>
   </g>
   <g id="line2d_78">
    <path d="M -1 402.842559 
L 334.329313 402.84327 
L 334.329313 402.84327 
" clip-path="url(#p9d0e8f46e4)" style="fill: none; stroke: #2ca02c; stroke-width: 2.2; stroke-linecap: square"/>
   </g>
   <g id="patch_3">
    <path d="M 46.965625 402.84327 
L 46.965625 22.318125 
" style="fill: none; stroke: #000000; stroke-width: 0.8; stroke-linejoin: miter; stroke-linecap: square"/>
   </g>
   <g id="patch_4">
    <path d="M 574.43976 402.84327 
L 574.43976 22.318125 
" style="fill: none; stroke: #000000; stroke-width: 0.8; stroke-linejoin: miter; stroke-linecap: square"/>
   </g>
   <g id="patch_5">
    <path d="M 46.965625 402.84327 
L 574.43976 402.84327 
" style="fill: none; stroke: #000000; stroke-width: 0.8; stroke-linejoin: miter; stroke-linecap: square"/>
   </g>
   <g id="patch_6">
    <path d="M 46.965625 22.318125 
L 574.43976 22.318125 
" style="fill: none; stroke: #000000; stroke-width: 0.8; stroke-linejoin: miter; stroke-linecap: square"/>
   </g>
   <g id="text_16">
    <!-- Cluster aggregate train-hourly load distribution -->
    <g transform="translate(168.825192 16.318125) scale(0.12 -0.12)">
     <defs>
      <path id="DejaVuSans-43" d="M 4122 4306 
L 4122 3641 
Q 3803 3938 3442 4084 
Q 3081 4231 2675 4231 
Q 1875 4231 1450 3742 
Q 1025 3253 1025 2328 
Q 1025 1406 1450 917 
Q 1875 428 2675 428 
Q 3081 428 3442 575 
Q 3803 722 4122 1019 
L 4122 359 
Q 3791 134 3420 21 
Q 3050 -91 2638 -91 
Q 1578 -91 968 557 
Q 359 1206 359 2328 
Q 359 3453 968 4101 
Q 1578 4750 2638 4750 
Q 3056 4750 3426 4639 
Q 3797 4528 4122 4306 
z
" transform="scale(0.015625)"/>
      <path id="DejaVuSans-74" d="M 1172 4494 
L 1172 3500 
L 2356 3500 
L 2356 3053 
L 1172 3053 
L 1172 1153 
Q 1172 725 1289 603 
Q 1406 481 1766 481 
L 2356 481 
L 2356 0 
L 1766 0 
Q 1100 0 847 248 
Q 594 497 594 1153 
L 594 3053 
L 172 3053 
L 172 3500 
L 594 3500 
L 594 4494 
L 1172 4494 
z
" transform="scale(0.015625)"/>
      <path id="DejaVuSans-67" d="M 2906 1791 
Q 2906 2416 2648 2759 
Q 2391 3103 1925 3103 
Q 1463 3103 1205 2759 
Q 947 2416 947 1791 
Q 947 1169 1205 825 
Q 1463 481 1925 481 
Q 2391 481 2648 825 
Q 2906 1169 2906 1791 
z
M 3481 434 
Q 3481 -459 3084 -895 
Q 2688 -1331 1869 -1331 
Q 1566 -1331 1297 -1286 
Q 1028 -1241 775 -1147 
L 775 -588 
Q 1028 -725 1275 -790 
Q 1522 -856 1778 -856 
Q 2344 -856 2625 -561 
Q 2906 -266 2906 331 
L 2906 616 
Q 2728 306 2450 153 
Q 2172 0 1784 0 
Q 1141 0 747 490 
Q 353 981 353 1791 
Q 353 2603 747 3093 
Q 1141 3584 1784 3584 
Q 2172 3584 2450 3431 
Q 2728 3278 2906 2969 
L 2906 3500 
L 3481 3500 
L 3481 434 
z
" transform="scale(0.015625)"/>
      <path id="DejaVuSans-69" d="M 603 3500 
L 1178 3500 
L 1178 0 
L 603 0 
L 603 3500 
z
M 603 4863 
L 1178 4863 
L 1178 4134 
L 603 4134 
L 603 4863 
z
" transform="scale(0.015625)"/>
      <path id="DejaVuSans-2d" d="M 313 2009 
L 1997 2009 
L 1997 1497 
L 313 1497 
L 313 2009 
z
" transform="scale(0.015625)"/>
      <path id="DejaVuSans-68" d="M 3513 2113 
L 3513 0 
L 2938 0 
L 2938 2094 
Q 2938 2591 2744 2837 
Q 2550 3084 2163 3084 
Q 1697 3084 1428 2787 
Q 1159 2491 1159 1978 
L 1159 0 
L 581 0 
L 581 4863 
L 1159 4863 
L 1159 2956 
Q 1366 3272 1645 3428 
Q 1925 3584 2291 3584 
Q 2894 3584 3203 3211 
Q 3513 2838 3513 2113 
z
" transform="scale(0.015625)"/>
      <path id="DejaVuSans-62" d="M 3116 1747 
Q 3116 2381 2855 2742 
Q 2594 3103 2138 3103 
Q 1681 3103 1420 2742 
Q 1159 2381 1159 1747 
Q 1159 1113 1420 752 
Q 1681 391 2138 391 
Q 2594 391 2855 752 
Q 3116 1113 3116 1747 
z
M 1159 2969 
Q 1341 3281 1617 3432 
Q 1894 3584 2278 3584 
Q 2916 3584 3314 3078 
Q 3713 2572 3713 1747 
Q 3713 922 3314 415 
Q 2916 -91 2278 -91 
Q 1894 -91 1617 61 
Q 1341 213 1159 525 
L 1159 0 
L 581 0 
L 581 4863 
L 1159 4863 
L 1159 2969 
z
" transform="scale(0.015625)"/>
     </defs>
     <use xlink:href="#DejaVuSans-43"/>
     <use xlink:href="#DejaVuSans-6c" transform="translate(69.824219 0)"/>
     <use xlink:href="#DejaVuSans-75" transform="translate(97.607422 0)"/>
     <use xlink:href="#DejaVuSans-73" transform="translate(160.986328 0)"/>
     <use xlink:href="#DejaVuSans-74" transform="translate(213.085938 0)"/>
     <use xlink:href="#DejaVuSans-65" transform="translate(252.294922 0)"/>
     <use xlink:href="#DejaVuSans-72" transform="translate(313.818359 0)"/>
     <use xlink:href="#DejaVuSans-20" transform="translate(354.931641 0)"/>
     <use xlink:href="#DejaVuSans-61" transform="translate(386.71875 0)"/>
     <use xlink:href="#DejaVuSans-67" transform="translate(447.998047 0)"/>
     <use xlink:href="#DejaVuSans-67" transform="translate(511.474609 0)"/>
     <use xlink:href="#DejaVuSans-72" transform="translate(574.951172 0)"/>
     <use xlink:href="#DejaVuSans-65" transform="translate(613.814453 0)"/>
     <use xlink:href="#DejaVuSans-67" transform="translate(675.337891 0)"/>
     <use xlink:href="#DejaVuSans-61" transform="translate(738.814453 0)"/>
     <use xlink:href="#DejaVuSans-74" transform="translate(800.09375 0)"/>
     <use xlink:href="#DejaVuSans-65" transform="translate(839.302734 0)"/>
     <use xlink:href="#DejaVuSans-20" transform="translate(900.826172 0)"/>
     <use xlink:href="#DejaVuSans-74" transform="translate(932.613281 0)"/>
     <use xlink:href="#DejaVuSans-72" transform="translate(971.822266 0)"/>
     <use xlink:href="#DejaVuSans-61" transform="translate(1012.935547 0)"/>
     <use xlink:href="#DejaVuSans-69" transform="translate(1074.214844 0)"/>
     <use xlink:href="#DejaVuSans-6e" transform="translate(1101.998047 0)"/>
     <use xlink:href="#DejaVuSans-2d" transform="translate(1165.376953 0)"/>
     <use xlink:href="#DejaVuSans-68" transform="translate(1201.460938 0)"/>
     <use xlink:href="#DejaVuSans-6f" transform="translate(1264.839844 0)"/>
     <use xlink:href="#DejaVuSans-75" transform="translate(1326.021484 0)"/>
     <use xlink:href="#DejaVuSans-72" transform="translate(1389.400391 0)"/>
     <use xlink:href="#DejaVuSans-6c" transform="translate(1430.513672 0)"/>
     <use xlink:href="#DejaVuSans-79" transform="translate(1458.296875 0)"/>
     <use xlink:href="#DejaVuSans-20" transform="translate(1517.476562 0)"/>
     <use xlink:href="#DejaVuSans-6c" transform="translate(1549.263672 0)"/>
     <use xlink:href="#DejaVuSans-6f" transform="translate(1577.046875 0)"/>
     <use xlink:href="#DejaVuSans-61" transform="translate(1638.228516 0)"/>
     <use xlink:href="#DejaVuSans-64" transform="translate(1699.507812 0)"/>
     <use xlink:href="#DejaVuSans-20" transform="translate(1762.984375 0)"/>
     <use xlink:href="#DejaVuSans-64" transform="translate(1794.771484 0)"/>
     <use xlink:href="#DejaVuSans-69" transform="translate(1858.248047 0)"/>
     <use xlink:href="#DejaVuSans-73" transform="translate(1886.03125 0)"/>
     <use xlink:href="#DejaVuSans-74" transform="translate(1938.130859 0)"/>
     <use xlink:href="#DejaVuSans-72" transform="translate(1977.339844 0)"/>
     <use xlink:href="#DejaVuSans-69" transform="translate(2018.453125 0)"/>
     <use xlink:href="#DejaVuSans-62" transform="translate(2046.236328 0)"/>
     <use xlink:href="#DejaVuSans-75" transform="translate(2109.712891 0)"/>
     <use xlink:href="#DejaVuSans-74" transform="translate(2173.091797 0)"/>
     <use xlink:href="#DejaVuSans-69" transform="translate(2212.300781 0)"/>
     <use xlink:href="#DejaVuSans-6f" transform="translate(2240.083984 0)"/>
     <use xlink:href="#DejaVuSans-6e" transform="translate(2301.265625 0)"/>
    </g>
   </g>
   <g id="legend_1">
    <g id="patch_7">
     <path d="M 53.965625 89.030625 
L 175.784375 89.030625 
Q 177.784375 89.030625 177.784375 87.030625 
L 177.784375 29.318125 
Q 177.784375 27.318125 175.784375 27.318125 
L 53.965625 27.318125 
Q 51.965625 27.318125 51.965625 29.318125 
L 51.965625 87.030625 
Q 51.965625 89.030625 53.965625 89.030625 
z
" style="fill: #ffffff; opacity: 0.8; stroke: #cccccc; stroke-linejoin: miter"/>
    </g>
    <g id="text_17">
     <!-- Cluster -->
     <g transform="translate(97.128906 38.916562) scale(0.1 -0.1)">
      <use xlink:href="#DejaVuSans-43"/>
      <use xlink:href="#DejaVuSans-6c" transform="translate(69.824219 0)"/>
      <use xlink:href="#DejaVuSans-75" transform="translate(97.607422 0)"/>
      <use xlink:href="#DejaVuSans-73" transform="translate(160.986328 0)"/>
      <use xlink:href="#DejaVuSans-74" transform="translate(213.085938 0)"/>
      <use xlink:href="#DejaVuSans-65" transform="translate(252.294922 0)"/>
      <use xlink:href="#DejaVuSans-72" transform="translate(313.818359 0)"/>
     </g>
    </g>
    <g id="patch_8">
     <path d="M 55.965625 53.594687 
L 75.965625 53.594687 
L 75.965625 46.594687 
L 55.965625 46.594687 
z
" style="fill: #1f77b4; fill-opacity: 0.4; stroke: #1f77b4; stroke-linejoin: miter"/>
    </g>
    <g id="text_18">
     <!-- Cluster 0 (n=362) -->
     <g transform="translate(83.965625 53.594687) scale(0.1 -0.1)">
      <defs>
       <path id="DejaVuSans-28" d="M 1984 4856 
Q 1566 4138 1362 3434 
Q 1159 2731 1159 2009 
Q 1159 1288 1364 580 
Q 1569 -128 1984 -844 
L 1484 -844 
Q 1016 -109 783 600 
Q 550 1309 550 2009 
Q 550 2706 781 3412 
Q 1013 4119 1484 4856 
L 1984 4856 
z
" transform="scale(0.015625)"/>
       <path id="DejaVuSans-3d" d="M 678 2906 
L 4684 2906 
L 4684 2381 
L 678 2381 
L 678 2906 
z
M 678 1631 
L 4684 1631 
L 4684 1100 
L 678 1100 
L 678 1631 
z
" transform="scale(0.015625)"/>
       <path id="DejaVuSans-29" d="M 513 4856 
L 1013 4856 
Q 1481 4119 1714 3412 
Q 1947 2706 1947 2009 
Q 1947 1309 1714 600 
Q 1481 -109 1013 -844 
L 513 -844 
Q 928 -128 1133 580 
Q 1338 1288 1338 2009 
Q 1338 2731 1133 3434 
Q 928 4138 513 4856 
z
" transform="scale(0.015625)"/>
      </defs>
      <use xlink:href="#DejaVuSans-43"/>
      <use xlink:href="#DejaVuSans-6c" transform="translate(69.824219 0)"/>
      <use xlink:href="#DejaVuSans-75" transform="translate(97.607422 0)"/>
      <use xlink:href="#DejaVuSans-73" transform="translate(160.986328 0)"/>
      <use xlink:href="#DejaVuSans-74" transform="translate(213.085938 0)"/>
      <use xlink:href="#DejaVuSans-65" transform="translate(252.294922 0)"/>
      <use xlink:href="#DejaVuSans-72" transform="translate(313.818359 0)"/>
      <use xlink:href="#DejaVuSans-20" transform="translate(354.931641 0)"/>
      <use xlink:href="#DejaVuSans-30" transform="translate(386.71875 0)"/>
      <use xlink:href="#DejaVuSans-20" transform="translate(450.341797 0)"/>
      <use xlink:href="#DejaVuSans-28" transform="translate(482.128906 0)"/>
      <use xlink:href="#DejaVuSans-6e" transform="translate(521.142578 0)"/>
      <use xlink:href="#DejaVuSans-3d" transform="translate(584.521484 0)"/>
      <use xlink:href="#DejaVuSans-33" transform="translate(668.310547 0)"/>
      <use xlink:href="#DejaVuSans-36" transform="translate(731.933594 0)"/>
      <use xlink:href="#DejaVuSans-32" transform="translate(795.556641 0)"/>
      <use xlink:href="#DejaVuSans-29" transform="translate(859.179688 0)"/>
     </g>
    </g>
    <g id="patch_9">
     <path d="M 55.965625 68.272812 
L 75.965625 68.272812 
L 75.965625 61.272812 
L 55.965625 61.272812 
z
" style="fill: #ff7f0e; fill-opacity: 0.4; stroke: #ff7f0e; stroke-linejoin: miter"/>
    </g>
    <g id="text_19">
     <!-- Cluster 1 (n=1) -->
     <g transform="translate(83.965625 68.272812) scale(0.1 -0.1)">
      <use xlink:href="#DejaVuSans-43"/>
      <use xlink:href="#DejaVuSans-6c" transform="translate(69.824219 0)"/>
      <use xlink:href="#DejaVuSans-75" transform="translate(97.607422 0)"/>
      <use xlink:href="#DejaVuSans-73" transform="translate(160.986328 0)"/>
      <use xlink:href="#DejaVuSans-74" transform="translate(213.085938 0)"/>
      <use xlink:href="#DejaVuSans-65" transform="translate(252.294922 0)"/>
      <use xlink:href="#DejaVuSans-72" transform="translate(313.818359 0)"/>
      <use xlink:href="#DejaVuSans-20" transform="translate(354.931641 0)"/>
      <use xlink:href="#DejaVuSans-31" transform="translate(386.71875 0)"/>
      <use xlink:href="#DejaVuSans-20" transform="translate(450.341797 0)"/>
      <use xlink:href="#DejaVuSans-28" transform="translate(482.128906 0)"/>
      <use xlink:href="#DejaVuSans-6e" transform="translate(521.142578 0)"/>
      <use xlink:href="#DejaVuSans-3d" transform="translate(584.521484 0)"/>
      <use xlink:href="#DejaVuSans-31" transform="translate(668.310547 0)"/>
      <use xlink:href="#DejaVuSans-29" transform="translate(731.933594 0)"/>
     </g>
    </g>
    <g id="patch_10">
     <path d="M 55.965625 82.950937 
L 75.965625 82.950937 
L 75.965625 75.950937 
L 55.965625 75.950937 
z
" style="fill: #2ca02c; fill-opacity: 0.4; stroke: #2ca02c; stroke-linejoin: miter"/>
    </g>
    <g id="text_20">
     <!-- Cluster 2 (n=6) -->
     <g transform="translate(83.965625 82.950937) scale(0.1 -0.1)">
      <use xlink:href="#DejaVuSans-43"/>
      <use xlink:href="#DejaVuSans-6c" transform="translate(69.824219 0)"/>
      <use xlink:href="#DejaVuSans-75" transform="translate(97.607422 0)"/>
      <use xlink:href="#DejaVuSans-73" transform="translate(160.986328 0)"/>
      <use xlink:href="#DejaVuSans-74" transform="translate(213.085938 0)"/>
      <use xlink:href="#DejaVuSans-65" transform="translate(252.294922 0)"/>
      <use xlink:href="#DejaVuSans-72" transform="translate(313.818359 0)"/>
      <use xlink:href="#DejaVuSans-20" transform="translate(354.931641 0)"/>
      <use xlink:href="#DejaVuSans-32" transform="translate(386.71875 0)"/>
      <use xlink:href="#DejaVuSans-20" transform="translate(450.341797 0)"/>
      <use xlink:href="#DejaVuSans-28" transform="translate(482.128906 0)"/>
      <use xlink:href="#DejaVuSans-6e" transform="translate(521.142578 0)"/>
      <use xlink:href="#DejaVuSans-3d" transform="translate(584.521484 0)"/>
      <use xlink:href="#DejaVuSans-36" transform="translate(668.310547 0)"/>
      <use xlink:href="#DejaVuSans-29" transform="translate(731.933594 0)"/>
     </g>
    </g>
   </g>
  </g>
  <g id="axes_2">
   <g id="patch_11">
    <path d="M 625.725385 402.84327 
L 1153.19952 402.84327 
L 1153.19952 22.318125 
L 625.725385 22.318125 
z
" style="fill: #ffffff"/>
   </g>
   <g id="FillBetweenPolyCollection_4">
    <defs>
     <path id="m3f388d6149" d="M 894.753845 -38.850553 
L 894.753845 -37.55625 
L 896.773582 -37.55625 
L 896.773582 -37.55625 
L 898.692873 -37.55625 
L 898.692873 -37.55625 
L 900.521236 -37.55625 
L 900.521236 -37.55625 
L 902.266899 -37.55625 
L 902.266899 -37.55625 
L 903.93702 -37.55625 
L 903.93702 -37.55625 
L 905.537867 -37.55625 
L 905.537867 -37.55625 
L 907.074959 -37.55625 
L 907.074959 -37.55625 
L 908.55318 -37.55625 
L 908.55318 -37.55625 
L 909.976874 -37.55625 
L 909.976874 -37.55625 
L 911.349921 -37.55625 
L 911.349921 -37.55625 
L 912.6758 -37.55625 
L 912.6758 -37.55625 
L 913.957645 -37.55625 
L 913.957645 -37.55625 
L 915.198287 -37.55625 
L 915.198287 -37.55625 
L 916.400293 -37.55625 
L 916.400293 -37.55625 
L 917.565997 -37.55625 
L 917.565997 -37.55625 
L 918.697527 -37.55625 
L 918.697527 -37.55625 
L 919.79683 -37.55625 
L 919.79683 -37.55625 
L 920.86569 -37.55625 
L 920.86569 -37.55625 
L 921.90575 -37.55625 
L 921.90575 -37.55625 
L 922.918519 -37.55625 
L 922.918519 -37.55625 
L 923.905394 -37.55625 
L 923.905394 -37.55625 
L 924.867667 -37.55625 
L 924.867667 -37.55625 
L 925.806533 -37.55625 
L 925.806533 -37.55625 
L 926.723104 -37.55625 
L 926.723104 -37.55625 
L 927.618415 -37.55625 
L 927.618415 -37.55625 
L 928.49343 -37.55625 
L 928.49343 -37.55625 
L 929.349049 -37.55625 
L 929.349049 -37.55625 
L 930.186113 -37.55625 
L 930.186113 -37.55625 
L 931.005409 -37.55625 
L 931.005409 -37.55625 
L 931.807676 -37.55625 
L 931.807676 -37.55625 
L 931.807676 -41.43916 
L 931.807676 -41.43916 
L 931.807676 -41.43916 
L 931.005409 -41.43916 
L 931.005409 -38.850553 
L 930.186113 -38.850553 
L 930.186113 -47.910676 
L 929.349049 -47.910676 
L 929.349049 -47.910676 
L 928.49343 -47.910676 
L 928.49343 -77.67965 
L 927.618415 -77.67965 
L 927.618415 -94.505591 
L 926.723104 -94.505591 
L 926.723104 -120.391656 
L 925.806533 -120.391656 
L 925.806533 -164.397965 
L 924.867667 -164.397965 
L 924.867667 -220.053003 
L 923.905394 -220.053003 
L 923.905394 -222.64161 
L 922.918519 -222.64161 
L 922.918519 -170.869481 
L 921.90575 -170.869481 
L 921.90575 -89.328379 
L 920.86569 -89.328379 
L 920.86569 -82.856863 
L 919.79683 -82.856863 
L 919.79683 -81.562559 
L 918.697527 -81.562559 
L 918.697527 -63.442314 
L 917.565997 -63.442314 
L 917.565997 -51.793585 
L 916.400293 -51.793585 
L 916.400293 -58.265101 
L 915.198287 -58.265101 
L 915.198287 -75.091043 
L 913.957645 -75.091043 
L 913.957645 -86.739772 
L 912.6758 -86.739772 
L 912.6758 -95.799895 
L 911.349921 -95.799895 
L 911.349921 -77.67965 
L 909.976874 -77.67965 
L 909.976874 -71.208134 
L 908.55318 -71.208134 
L 908.55318 -89.328379 
L 907.074959 -89.328379 
L 907.074959 -81.562559 
L 905.537867 -81.562559 
L 905.537867 -111.331533 
L 903.93702 -111.331533 
L 903.93702 -152.749236 
L 902.266899 -152.749236 
L 902.266899 -169.575178 
L 900.521236 -169.575178 
L 900.521236 -90.622682 
L 898.692873 -90.622682 
L 898.692873 -51.793585 
L 896.773582 -51.793585 
L 896.773582 -38.850553 
L 894.753845 -38.850553 
z
" style="stroke: #1f77b4"/>
    </defs>
    <g clip-path="url(#pb56855784c)">
     <use xlink:href="#m3f388d6149" x="0" y="440.39952" style="fill: #1f77b4; fill-opacity: 0.4; stroke: #1f77b4"/>
    </g>
   </g>
   <g id="FillBetweenPolyCollection_5">
    <defs>
     <path id="m24ada365ba" d="M 1028.135366 -141.100507 
L 1028.135366 -37.55625 
L 1040.27472 -37.55625 
L 1040.27472 -37.55625 
L 1049.495927 -37.55625 
L 1049.495927 -37.55625 
L 1056.933549 -37.55625 
L 1056.933549 -37.55625 
L 1063.166983 -37.55625 
L 1063.166983 -37.55625 
L 1068.532363 -37.55625 
L 1068.532363 -37.55625 
L 1073.242166 -37.55625 
L 1073.242166 -37.55625 
L 1077.439294 -37.55625 
L 1077.439294 -37.55625 
L 1081.224484 -37.55625 
L 1081.224484 -37.55625 
L 1084.671418 -37.55625 
L 1084.671418 -37.55625 
L 1087.835624 -37.55625 
L 1087.835624 -37.55625 
L 1090.759987 -37.55625 
L 1090.759987 -37.55625 
L 1093.478318 -37.55625 
L 1093.478318 -37.55625 
L 1096.017748 -37.55625 
L 1096.017748 -37.55625 
L 1098.400378 -37.55625 
L 1098.400378 -37.55625 
L 1100.644451 -37.55625 
L 1100.644451 -37.55625 
L 1102.765199 -37.55625 
L 1102.765199 -37.55625 
L 1104.775474 -37.55625 
L 1104.775474 -37.55625 
L 1106.686219 -37.55625 
L 1106.686219 -37.55625 
L 1108.506825 -37.55625 
L 1108.506825 -37.55625 
L 1110.245415 -37.55625 
L 1110.245415 -37.55625 
L 1111.909062 -37.55625 
L 1111.909062 -37.55625 
L 1113.503959 -37.55625 
L 1113.503959 -37.55625 
L 1115.035566 -37.55625 
L 1115.035566 -37.55625 
L 1116.508712 -37.55625 
L 1116.508712 -37.55625 
L 1117.927699 -37.55625 
L 1117.927699 -37.55625 
L 1119.296366 -37.55625 
L 1119.296366 -37.55625 
L 1120.618162 -37.55625 
L 1120.618162 -37.55625 
L 1121.89619 -37.55625 
L 1121.89619 -37.55625 
L 1123.133256 -37.55625 
L 1123.133256 -37.55625 
L 1124.331905 -37.55625 
L 1124.331905 -37.55625 
L 1124.331905 -38.850553 
L 1124.331905 -38.850553 
L 1124.331905 -38.850553 
L 1123.133256 -38.850553 
L 1123.133256 -37.55625 
L 1121.89619 -37.55625 
L 1121.89619 -37.55625 
L 1120.618162 -37.55625 
L 1120.618162 -40.144856 
L 1119.296366 -40.144856 
L 1119.296366 -42.733463 
L 1117.927699 -42.733463 
L 1117.927699 -38.850553 
L 1116.508712 -38.850553 
L 1116.508712 -42.733463 
L 1115.035566 -42.733463 
L 1115.035566 -58.265101 
L 1113.503959 -58.265101 
L 1113.503959 -54.382192 
L 1111.909062 -54.382192 
L 1111.909062 -49.204979 
L 1110.245415 -49.204979 
L 1110.245415 -42.733463 
L 1108.506825 -42.733463 
L 1108.506825 -55.676495 
L 1106.686219 -55.676495 
L 1106.686219 -62.148011 
L 1104.775474 -62.148011 
L 1104.775474 -76.385346 
L 1102.765199 -76.385346 
L 1102.765199 -124.274565 
L 1100.644451 -124.274565 
L 1100.644451 -200.638455 
L 1098.400378 -200.638455 
L 1098.400378 -208.404274 
L 1096.017748 -208.404274 
L 1096.017748 -235.584642 
L 1093.478318 -235.584642 
L 1093.478318 -151.454933 
L 1090.759987 -151.454933 
L 1090.759987 -77.67965 
L 1087.835624 -77.67965 
L 1087.835624 -58.265101 
L 1084.671418 -58.265101 
L 1084.671418 -56.970798 
L 1081.224484 -56.970798 
L 1081.224484 -129.451778 
L 1077.439294 -129.451778 
L 1077.439294 -81.562559 
L 1073.242166 -81.562559 
L 1073.242166 -62.148011 
L 1068.532363 -62.148011 
L 1068.532363 -102.271411 
L 1063.166983 -102.271411 
L 1063.166983 -51.793585 
L 1056.933549 -51.793585 
L 1056.933549 -107.448624 
L 1049.495927 -107.448624 
L 1049.495927 -399.96115 
L 1040.27472 -399.96115 
L 1040.27472 -141.100507 
L 1028.135366 -141.100507 
z
" style="stroke: #ff7f0e"/>
    </defs>
    <g clip-path="url(#pb56855784c)">
     <use xlink:href="#m24ada365ba" x="0" y="440.39952" style="fill: #ff7f0e; fill-opacity: 0.4; stroke: #ff7f0e"/>
    </g>
   </g>
   <g id="FillBetweenPolyCollection_6">
    <defs>
     <path id="m2c3233084a" d="M 677.665882 -135.923294 
L 677.665882 -37.55625 
L 735.119159 -37.55625 
L 735.119159 -37.55625 
L 757.252232 -37.55625 
L 757.252232 -37.55625 
L 771.230683 -37.55625 
L 771.230683 -37.55625 
L 781.471012 -37.55625 
L 781.471012 -37.55625 
L 789.556415 -37.55625 
L 789.556415 -37.55625 
L 796.23803 -37.55625 
L 796.23803 -37.55625 
L 801.931948 -37.55625 
L 801.931948 -37.55625 
L 806.892922 -37.55625 
L 806.892922 -37.55625 
L 811.288308 -37.55625 
L 811.288308 -37.55625 
L 815.233971 -37.55625 
L 815.233971 -37.55625 
L 818.813457 -37.55625 
L 818.813457 -37.55625 
L 822.088998 -37.55625 
L 822.088998 -37.55625 
L 825.108196 -37.55625 
L 825.108196 -37.55625 
L 827.908278 -37.55625 
L 827.908278 -37.55625 
L 830.518907 -37.55625 
L 830.518907 -37.55625 
L 832.964104 -37.55625 
L 832.964104 -37.55625 
L 835.263591 -37.55625 
L 835.263591 -37.55625 
L 837.433762 -37.55625 
L 837.433762 -37.55625 
L 839.48839 -37.55625 
L 839.48839 -37.55625 
L 841.43916 -37.55625 
L 841.43916 -37.55625 
L 843.296067 -37.55625 
L 843.296067 -37.55625 
L 845.067731 -37.55625 
L 845.067731 -37.55625 
L 846.761636 -37.55625 
L 846.761636 -37.55625 
L 848.384323 -37.55625 
L 848.384323 -37.55625 
L 849.941537 -37.55625 
L 849.941537 -37.55625 
L 851.43836 -37.55625 
L 851.43836 -37.55625 
L 852.8793 -37.55625 
L 852.8793 -37.55625 
L 854.26838 -37.55625 
L 854.26838 -37.55625 
L 855.609205 -37.55625 
L 855.609205 -37.55625 
L 856.905013 -37.55625 
L 856.905013 -37.55625 
L 856.905013 -41.43916 
L 856.905013 -41.43916 
L 856.905013 -41.43916 
L 855.609205 -41.43916 
L 855.609205 -41.43916 
L 854.26838 -41.43916 
L 854.26838 -45.322069 
L 852.8793 -45.322069 
L 852.8793 -62.148011 
L 851.43836 -62.148011 
L 851.43836 -64.736618 
L 849.941537 -64.736618 
L 849.941537 -73.79674 
L 848.384323 -73.79674 
L 848.384323 -71.208134 
L 846.761636 -71.208134 
L 846.761636 -67.325224 
L 845.067731 -67.325224 
L 845.067731 -63.442314 
L 843.296067 -63.442314 
L 843.296067 -78.973953 
L 841.43916 -78.973953 
L 841.43916 -77.67965 
L 839.48839 -77.67965 
L 839.48839 -76.385346 
L 837.433762 -76.385346 
L 837.433762 -103.565714 
L 835.263591 -103.565714 
L 835.263591 -90.622682 
L 832.964104 -90.622682 
L 832.964104 -71.208134 
L 830.518907 -71.208134 
L 830.518907 -85.445469 
L 827.908278 -85.445469 
L 827.908278 -72.502437 
L 825.108196 -72.502437 
L 825.108196 -88.034075 
L 822.088998 -88.034075 
L 822.088998 -147.572023 
L 818.813457 -147.572023 
L 818.813457 -166.986571 
L 815.233971 -166.986571 
L 815.233971 -129.451778 
L 811.288308 -129.451778 
L 811.288308 -260.176403 
L 806.892922 -260.176403 
L 806.892922 -144.983417 
L 801.931948 -144.983417 
L 801.931948 -77.67965 
L 796.23803 -77.67965 
L 796.23803 -93.211288 
L 789.556415 -93.211288 
L 789.556415 -59.559405 
L 781.471012 -59.559405 
L 781.471012 -54.382192 
L 771.230683 -54.382192 
L 771.230683 -41.43916 
L 757.252232 -41.43916 
L 757.252232 -85.445469 
L 735.119159 -85.445469 
L 735.119159 -135.923294 
L 677.665882 -135.923294 
z
" style="stroke: #2ca02c"/>
    </defs>
    <g clip-path="url(#pb56855784c)">
     <use xlink:href="#m2c3233084a" x="0" y="440.39952" style="fill: #2ca02c; fill-opacity: 0.4; stroke: #2ca02c"/>
    </g>
   </g>
   <g id="matplotlib.axis_3">
    <g id="xtick_57">
     <g id="line2d_79">
      <path d="M 627.353001 402.84327 
L 627.353001 22.318125 
" clip-path="url(#pb56855784c)" style="fill: none; stroke: #b0b0b0; stroke-opacity: 0.8; stroke-width: 0.8; stroke-linecap: square"/>
     </g>
     <g id="line2d_80">
      <g>
       <use xlink:href="#me4ad1feb24" x="627.353001" y="402.84327" style="stroke: #000000; stroke-width: 0.8"/>
      </g>
     </g>
     <g id="text_21">
      <!-- $\mathdefault{10^{0}}$ -->
      <g transform="translate(618.553001 417.441707) scale(0.1 -0.1)">
       <use xlink:href="#DejaVuSans-31" transform="translate(0 0.765625)"/>
       <use xlink:href="#DejaVuSans-30" transform="translate(63.623047 0.765625)"/>
       <use xlink:href="#DejaVuSans-30" transform="translate(128.203125 39.046875) scale(0.7)"/>
      </g>
     </g>
    </g>
    <g id="xtick_58">
     <g id="line2d_81">
      <path d="M 716.233987 402.84327 
L 716.233987 22.318125 
" clip-path="url(#pb56855784c)" style="fill: none; stroke: #b0b0b0; stroke-opacity: 0.8; stroke-width: 0.8; stroke-linecap: square"/>
     </g>
     <g id="line2d_82">
      <g>
       <use xlink:href="#me4ad1feb24" x="716.233987" y="402.84327" style="stroke: #000000; stroke-width: 0.8"/>
      </g>
     </g>
     <g id="text_22">
      <!-- $\mathdefault{10^{1}}$ -->
      <g transform="translate(707.433987 417.441707) scale(0.1 -0.1)">
       <use xlink:href="#DejaVuSans-31" transform="translate(0 0.684375)"/>
       <use xlink:href="#DejaVuSans-30" transform="translate(63.623047 0.684375)"/>
       <use xlink:href="#DejaVuSans-31" transform="translate(128.203125 38.965625) scale(0.7)"/>
      </g>
     </g>
    </g>
    <g id="xtick_59">
     <g id="line2d_83">
      <path d="M 805.114973 402.84327 
L 805.114973 22.318125 
" clip-path="url(#pb56855784c)" style="fill: none; stroke: #b0b0b0; stroke-opacity: 0.8; stroke-width: 0.8; stroke-linecap: square"/>
     </g>
     <g id="line2d_84">
      <g>
       <use xlink:href="#me4ad1feb24" x="805.114973" y="402.84327" style="stroke: #000000; stroke-width: 0.8"/>
      </g>
     </g>
     <g id="text_23">
      <!-- $\mathdefault{10^{2}}$ -->
      <g transform="translate(796.314973 417.441707) scale(0.1 -0.1)">
       <use xlink:href="#DejaVuSans-31" transform="translate(0 0.765625)"/>
       <use xlink:href="#DejaVuSans-30" transform="translate(63.623047 0.765625)"/>
       <use xlink:href="#DejaVuSans-32" transform="translate(128.203125 39.046875) scale(0.7)"/>
      </g>
     </g>
    </g>
    <g id="xtick_60">
     <g id="line2d_85">
      <path d="M 893.995958 402.84327 
L 893.995958 22.318125 
" clip-path="url(#pb56855784c)" style="fill: none; stroke: #b0b0b0; stroke-opacity: 0.8; stroke-width: 0.8; stroke-linecap: square"/>
     </g>
     <g id="line2d_86">
      <g>
       <use xlink:href="#me4ad1feb24" x="893.995958" y="402.84327" style="stroke: #000000; stroke-width: 0.8"/>
      </g>
     </g>
     <g id="text_24">
      <!-- $\mathdefault{10^{3}}$ -->
      <g transform="translate(885.195958 417.441707) scale(0.1 -0.1)">
       <use xlink:href="#DejaVuSans-31" transform="translate(0 0.765625)"/>
       <use xlink:href="#DejaVuSans-30" transform="translate(63.623047 0.765625)"/>
       <use xlink:href="#DejaVuSans-33" transform="translate(128.203125 39.046875) scale(0.7)"/>
      </g>
     </g>
    </g>
    <g id="xtick_61">
     <g id="line2d_87">
      <path d="M 982.876944 402.84327 
L 982.876944 22.318125 
" clip-path="url(#pb56855784c)" style="fill: none; stroke: #b0b0b0; stroke-opacity: 0.8; stroke-width: 0.8; stroke-linecap: square"/>
     </g>
     <g id="line2d_88">
      <g>
       <use xlink:href="#me4ad1feb24" x="982.876944" y="402.84327" style="stroke: #000000; stroke-width: 0.8"/>
      </g>
     </g>
     <g id="text_25">
      <!-- $\mathdefault{10^{4}}$ -->
      <g transform="translate(974.076944 417.441707) scale(0.1 -0.1)">
       <use xlink:href="#DejaVuSans-31" transform="translate(0 0.684375)"/>
       <use xlink:href="#DejaVuSans-30" transform="translate(63.623047 0.684375)"/>
       <use xlink:href="#DejaVuSans-34" transform="translate(128.203125 38.965625) scale(0.7)"/>
      </g>
     </g>
    </g>
    <g id="xtick_62">
     <g id="line2d_89">
      <path d="M 1071.75793 402.84327 
L 1071.75793 22.318125 
" clip-path="url(#pb56855784c)" style="fill: none; stroke: #b0b0b0; stroke-opacity: 0.8; stroke-width: 0.8; stroke-linecap: square"/>
     </g>
     <g id="line2d_90">
      <g>
       <use xlink:href="#me4ad1feb24" x="1071.75793" y="402.84327" style="stroke: #000000; stroke-width: 0.8"/>
      </g>
     </g>
     <g id="text_26">
      <!-- $\mathdefault{10^{5}}$ -->
      <g transform="translate(1062.95793 417.441707) scale(0.1 -0.1)">
       <use xlink:href="#DejaVuSans-31" transform="translate(0 0.684375)"/>
       <use xlink:href="#DejaVuSans-30" transform="translate(63.623047 0.684375)"/>
       <use xlink:href="#DejaVuSans-35" transform="translate(128.203125 38.965625) scale(0.7)"/>
      </g>
     </g>
    </g>
    <g id="xtick_63">
     <g id="line2d_91">
      <g>
       <use xlink:href="#m3c2f966cf2" x="654.108844" y="402.84327" style="stroke: #000000; stroke-width: 0.6"/>
      </g>
     </g>
    </g>
    <g id="xtick_64">
     <g id="line2d_92">
      <g>
       <use xlink:href="#m3c2f966cf2" x="669.760009" y="402.84327" style="stroke: #000000; stroke-width: 0.6"/>
      </g>
     </g>
    </g>
    <g id="xtick_65">
     <g id="line2d_93">
      <g>
       <use xlink:href="#m3c2f966cf2" x="680.864687" y="402.84327" style="stroke: #000000; stroke-width: 0.6"/>
      </g>
     </g>
    </g>
    <g id="xtick_66">
     <g id="line2d_94">
      <g>
       <use xlink:href="#m3c2f966cf2" x="689.478144" y="402.84327" style="stroke: #000000; stroke-width: 0.6"/>
      </g>
     </g>
    </g>
    <g id="xtick_67">
     <g id="line2d_95">
      <g>
       <use xlink:href="#m3c2f966cf2" x="696.515851" y="402.84327" style="stroke: #000000; stroke-width: 0.6"/>
      </g>
     </g>
    </g>
    <g id="xtick_68">
     <g id="line2d_96">
      <g>
       <use xlink:href="#m3c2f966cf2" x="702.466148" y="402.84327" style="stroke: #000000; stroke-width: 0.6"/>
      </g>
     </g>
    </g>
    <g id="xtick_69">
     <g id="line2d_97">
      <g>
       <use xlink:href="#m3c2f966cf2" x="707.620529" y="402.84327" style="stroke: #000000; stroke-width: 0.6"/>
      </g>
     </g>
    </g>
    <g id="xtick_70">
     <g id="line2d_98">
      <g>
       <use xlink:href="#m3c2f966cf2" x="712.167016" y="402.84327" style="stroke: #000000; stroke-width: 0.6"/>
      </g>
     </g>
    </g>
    <g id="xtick_71">
     <g id="line2d_99">
      <g>
       <use xlink:href="#m3c2f966cf2" x="742.98983" y="402.84327" style="stroke: #000000; stroke-width: 0.6"/>
      </g>
     </g>
    </g>
    <g id="xtick_72">
     <g id="line2d_100">
      <g>
       <use xlink:href="#m3c2f966cf2" x="758.640994" y="402.84327" style="stroke: #000000; stroke-width: 0.6"/>
      </g>
     </g>
    </g>
    <g id="xtick_73">
     <g id="line2d_101">
      <g>
       <use xlink:href="#m3c2f966cf2" x="769.745672" y="402.84327" style="stroke: #000000; stroke-width: 0.6"/>
      </g>
     </g>
    </g>
    <g id="xtick_74">
     <g id="line2d_102">
      <g>
       <use xlink:href="#m3c2f966cf2" x="778.35913" y="402.84327" style="stroke: #000000; stroke-width: 0.6"/>
      </g>
     </g>
    </g>
    <g id="xtick_75">
     <g id="line2d_103">
      <g>
       <use xlink:href="#m3c2f966cf2" x="785.396837" y="402.84327" style="stroke: #000000; stroke-width: 0.6"/>
      </g>
     </g>
    </g>
    <g id="xtick_76">
     <g id="line2d_104">
      <g>
       <use xlink:href="#m3c2f966cf2" x="791.347134" y="402.84327" style="stroke: #000000; stroke-width: 0.6"/>
      </g>
     </g>
    </g>
    <g id="xtick_77">
     <g id="line2d_105">
      <g>
       <use xlink:href="#m3c2f966cf2" x="796.501515" y="402.84327" style="stroke: #000000; stroke-width: 0.6"/>
      </g>
     </g>
    </g>
    <g id="xtick_78">
     <g id="line2d_106">
      <g>
       <use xlink:href="#m3c2f966cf2" x="801.048002" y="402.84327" style="stroke: #000000; stroke-width: 0.6"/>
      </g>
     </g>
    </g>
    <g id="xtick_79">
     <g id="line2d_107">
      <g>
       <use xlink:href="#m3c2f966cf2" x="831.870815" y="402.84327" style="stroke: #000000; stroke-width: 0.6"/>
      </g>
     </g>
    </g>
    <g id="xtick_80">
     <g id="line2d_108">
      <g>
       <use xlink:href="#m3c2f966cf2" x="847.52198" y="402.84327" style="stroke: #000000; stroke-width: 0.6"/>
      </g>
     </g>
    </g>
    <g id="xtick_81">
     <g id="line2d_109">
      <g>
       <use xlink:href="#m3c2f966cf2" x="858.626658" y="402.84327" style="stroke: #000000; stroke-width: 0.6"/>
      </g>
     </g>
    </g>
    <g id="xtick_82">
     <g id="line2d_110">
      <g>
       <use xlink:href="#m3c2f966cf2" x="867.240116" y="402.84327" style="stroke: #000000; stroke-width: 0.6"/>
      </g>
     </g>
    </g>
    <g id="xtick_83">
     <g id="line2d_111">
      <g>
       <use xlink:href="#m3c2f966cf2" x="874.277823" y="402.84327" style="stroke: #000000; stroke-width: 0.6"/>
      </g>
     </g>
    </g>
    <g id="xtick_84">
     <g id="line2d_112">
      <g>
       <use xlink:href="#m3c2f966cf2" x="880.22812" y="402.84327" style="stroke: #000000; stroke-width: 0.6"/>
      </g>
     </g>
    </g>
    <g id="xtick_85">
     <g id="line2d_113">
      <g>
       <use xlink:href="#m3c2f966cf2" x="885.382501" y="402.84327" style="stroke: #000000; stroke-width: 0.6"/>
      </g>
     </g>
    </g>
    <g id="xtick_86">
     <g id="line2d_114">
      <g>
       <use xlink:href="#m3c2f966cf2" x="889.928988" y="402.84327" style="stroke: #000000; stroke-width: 0.6"/>
      </g>
     </g>
    </g>
    <g id="xtick_87">
     <g id="line2d_115">
      <g>
       <use xlink:href="#m3c2f966cf2" x="920.751801" y="402.84327" style="stroke: #000000; stroke-width: 0.6"/>
      </g>
     </g>
    </g>
    <g id="xtick_88">
     <g id="line2d_116">
      <g>
       <use xlink:href="#m3c2f966cf2" x="936.402966" y="402.84327" style="stroke: #000000; stroke-width: 0.6"/>
      </g>
     </g>
    </g>
    <g id="xtick_89">
     <g id="line2d_117">
      <g>
       <use xlink:href="#m3c2f966cf2" x="947.507644" y="402.84327" style="stroke: #000000; stroke-width: 0.6"/>
      </g>
     </g>
    </g>
    <g id="xtick_90">
     <g id="line2d_118">
      <g>
       <use xlink:href="#m3c2f966cf2" x="956.121101" y="402.84327" style="stroke: #000000; stroke-width: 0.6"/>
      </g>
     </g>
    </g>
    <g id="xtick_91">
     <g id="line2d_119">
      <g>
       <use xlink:href="#m3c2f966cf2" x="963.158809" y="402.84327" style="stroke: #000000; stroke-width: 0.6"/>
      </g>
     </g>
    </g>
    <g id="xtick_92">
     <g id="line2d_120">
      <g>
       <use xlink:href="#m3c2f966cf2" x="969.109105" y="402.84327" style="stroke: #000000; stroke-width: 0.6"/>
      </g>
     </g>
    </g>
    <g id="xtick_93">
     <g id="line2d_121">
      <g>
       <use xlink:href="#m3c2f966cf2" x="974.263487" y="402.84327" style="stroke: #000000; stroke-width: 0.6"/>
      </g>
     </g>
    </g>
    <g id="xtick_94">
     <g id="line2d_122">
      <g>
       <use xlink:href="#m3c2f966cf2" x="978.809973" y="402.84327" style="stroke: #000000; stroke-width: 0.6"/>
      </g>
     </g>
    </g>
    <g id="xtick_95">
     <g id="line2d_123">
      <g>
       <use xlink:href="#m3c2f966cf2" x="1009.632787" y="402.84327" style="stroke: #000000; stroke-width: 0.6"/>
      </g>
     </g>
    </g>
    <g id="xtick_96">
     <g id="line2d_124">
      <g>
       <use xlink:href="#m3c2f966cf2" x="1025.283952" y="402.84327" style="stroke: #000000; stroke-width: 0.6"/>
      </g>
     </g>
    </g>
    <g id="xtick_97">
     <g id="line2d_125">
      <g>
       <use xlink:href="#m3c2f966cf2" x="1036.38863" y="402.84327" style="stroke: #000000; stroke-width: 0.6"/>
      </g>
     </g>
    </g>
    <g id="xtick_98">
     <g id="line2d_126">
      <g>
       <use xlink:href="#m3c2f966cf2" x="1045.002087" y="402.84327" style="stroke: #000000; stroke-width: 0.6"/>
      </g>
     </g>
    </g>
    <g id="xtick_99">
     <g id="line2d_127">
      <g>
       <use xlink:href="#m3c2f966cf2" x="1052.039794" y="402.84327" style="stroke: #000000; stroke-width: 0.6"/>
      </g>
     </g>
    </g>
    <g id="xtick_100">
     <g id="line2d_128">
      <g>
       <use xlink:href="#m3c2f966cf2" x="1057.990091" y="402.84327" style="stroke: #000000; stroke-width: 0.6"/>
      </g>
     </g>
    </g>
    <g id="xtick_101">
     <g id="line2d_129">
      <g>
       <use xlink:href="#m3c2f966cf2" x="1063.144473" y="402.84327" style="stroke: #000000; stroke-width: 0.6"/>
      </g>
     </g>
    </g>
    <g id="xtick_102">
     <g id="line2d_130">
      <g>
       <use xlink:href="#m3c2f966cf2" x="1067.690959" y="402.84327" style="stroke: #000000; stroke-width: 0.6"/>
      </g>
     </g>
    </g>
    <g id="xtick_103">
     <g id="line2d_131">
      <g>
       <use xlink:href="#m3c2f966cf2" x="1098.513773" y="402.84327" style="stroke: #000000; stroke-width: 0.6"/>
      </g>
     </g>
    </g>
    <g id="xtick_104">
     <g id="line2d_132">
      <g>
       <use xlink:href="#m3c2f966cf2" x="1114.164937" y="402.84327" style="stroke: #000000; stroke-width: 0.6"/>
      </g>
     </g>
    </g>
    <g id="xtick_105">
     <g id="line2d_133">
      <g>
       <use xlink:href="#m3c2f966cf2" x="1125.269616" y="402.84327" style="stroke: #000000; stroke-width: 0.6"/>
      </g>
     </g>
    </g>
    <g id="xtick_106">
     <g id="line2d_134">
      <g>
       <use xlink:href="#m3c2f966cf2" x="1133.883073" y="402.84327" style="stroke: #000000; stroke-width: 0.6"/>
      </g>
     </g>
    </g>
    <g id="xtick_107">
     <g id="line2d_135">
      <g>
       <use xlink:href="#m3c2f966cf2" x="1140.92078" y="402.84327" style="stroke: #000000; stroke-width: 0.6"/>
      </g>
     </g>
    </g>
    <g id="xtick_108">
     <g id="line2d_136">
      <g>
       <use xlink:href="#m3c2f966cf2" x="1146.871077" y="402.84327" style="stroke: #000000; stroke-width: 0.6"/>
      </g>
     </g>
    </g>
    <g id="xtick_109">
     <g id="line2d_137">
      <g>
       <use xlink:href="#m3c2f966cf2" x="1152.025458" y="402.84327" style="stroke: #000000; stroke-width: 0.6"/>
      </g>
     </g>
    </g>
    <g id="text_27">
     <!-- Hourly load mean -->
     <g transform="translate(845.025734 431.119832) scale(0.1 -0.1)">
      <use xlink:href="#DejaVuSans-48"/>
      <use xlink:href="#DejaVuSans-6f" transform="translate(75.195312 0)"/>
      <use xlink:href="#DejaVuSans-75" transform="translate(136.376953 0)"/>
      <use xlink:href="#DejaVuSans-72" transform="translate(199.755859 0)"/>
      <use xlink:href="#DejaVuSans-6c" transform="translate(240.869141 0)"/>
      <use xlink:href="#DejaVuSans-79" transform="translate(268.652344 0)"/>
      <use xlink:href="#DejaVuSans-20" transform="translate(327.832031 0)"/>
      <use xlink:href="#DejaVuSans-6c" transform="translate(359.619141 0)"/>
      <use xlink:href="#DejaVuSans-6f" transform="translate(387.402344 0)"/>
      <use xlink:href="#DejaVuSans-61" transform="translate(448.583984 0)"/>
      <use xlink:href="#DejaVuSans-64" transform="translate(509.863281 0)"/>
      <use xlink:href="#DejaVuSans-20" transform="translate(573.339844 0)"/>
      <use xlink:href="#DejaVuSans-6d" transform="translate(605.126953 0)"/>
      <use xlink:href="#DejaVuSans-65" transform="translate(702.539062 0)"/>
      <use xlink:href="#DejaVuSans-61" transform="translate(764.0625 0)"/>
      <use xlink:href="#DejaVuSans-6e" transform="translate(825.341797 0)"/>
     </g>
    </g>
   </g>
   <g id="matplotlib.axis_4">
    <g id="ytick_7">
     <g id="line2d_138">
      <path d="M 625.725385 402.84327 
L 1153.19952 402.84327 
" clip-path="url(#pb56855784c)" style="fill: none; stroke: #b0b0b0; stroke-opacity: 0.8; stroke-width: 0.8; stroke-linecap: square"/>
     </g>
     <g id="line2d_139">
      <g>
       <use xlink:href="#m1433754b9f" x="625.725385" y="402.84327" style="stroke: #000000; stroke-width: 0.8"/>
      </g>
     </g>
     <g id="text_28">
      <!-- 0 -->
      <g transform="translate(612.362885 406.642489) scale(0.1 -0.1)">
       <use xlink:href="#DejaVuSans-30"/>
      </g>
     </g>
    </g>
    <g id="ytick_8">
     <g id="line2d_140">
      <path d="M 625.725385 338.128109 
L 1153.19952 338.128109 
" clip-path="url(#pb56855784c)" style="fill: none; stroke: #b0b0b0; stroke-opacity: 0.8; stroke-width: 0.8; stroke-linecap: square"/>
     </g>
     <g id="line2d_141">
      <g>
       <use xlink:href="#m1433754b9f" x="625.725385" y="338.128109" style="stroke: #000000; stroke-width: 0.8"/>
      </g>
     </g>
     <g id="text_29">
      <!-- 50 -->
      <g transform="translate(606.000385 341.927328) scale(0.1 -0.1)">
       <use xlink:href="#DejaVuSans-35"/>
       <use xlink:href="#DejaVuSans-30" transform="translate(63.623047 0)"/>
      </g>
     </g>
    </g>
    <g id="ytick_9">
     <g id="line2d_142">
      <path d="M 625.725385 273.412949 
L 1153.19952 273.412949 
" clip-path="url(#pb56855784c)" style="fill: none; stroke: #b0b0b0; stroke-opacity: 0.8; stroke-width: 0.8; stroke-linecap: square"/>
     </g>
     <g id="line2d_143">
      <g>
       <use xlink:href="#m1433754b9f" x="625.725385" y="273.412949" style="stroke: #000000; stroke-width: 0.8"/>
      </g>
     </g>
     <g id="text_30">
      <!-- 100 -->
      <g transform="translate(599.637885 277.212167) scale(0.1 -0.1)">
       <use xlink:href="#DejaVuSans-31"/>
       <use xlink:href="#DejaVuSans-30" transform="translate(63.623047 0)"/>
       <use xlink:href="#DejaVuSans-30" transform="translate(127.246094 0)"/>
      </g>
     </g>
    </g>
    <g id="ytick_10">
     <g id="line2d_144">
      <path d="M 625.725385 208.697788 
L 1153.19952 208.697788 
" clip-path="url(#pb56855784c)" style="fill: none; stroke: #b0b0b0; stroke-opacity: 0.8; stroke-width: 0.8; stroke-linecap: square"/>
     </g>
     <g id="line2d_145">
      <g>
       <use xlink:href="#m1433754b9f" x="625.725385" y="208.697788" style="stroke: #000000; stroke-width: 0.8"/>
      </g>
     </g>
     <g id="text_31">
      <!-- 150 -->
      <g transform="translate(599.637885 212.497007) scale(0.1 -0.1)">
       <use xlink:href="#DejaVuSans-31"/>
       <use xlink:href="#DejaVuSans-35" transform="translate(63.623047 0)"/>
       <use xlink:href="#DejaVuSans-30" transform="translate(127.246094 0)"/>
      </g>
     </g>
    </g>
    <g id="ytick_11">
     <g id="line2d_146">
      <path d="M 625.725385 143.982627 
L 1153.19952 143.982627 
" clip-path="url(#pb56855784c)" style="fill: none; stroke: #b0b0b0; stroke-opacity: 0.8; stroke-width: 0.8; stroke-linecap: square"/>
     </g>
     <g id="line2d_147">
      <g>
       <use xlink:href="#m1433754b9f" x="625.725385" y="143.982627" style="stroke: #000000; stroke-width: 0.8"/>
      </g>
     </g>
     <g id="text_32">
      <!-- 200 -->
      <g transform="translate(599.637885 147.781846) scale(0.1 -0.1)">
       <use xlink:href="#DejaVuSans-32"/>
       <use xlink:href="#DejaVuSans-30" transform="translate(63.623047 0)"/>
       <use xlink:href="#DejaVuSans-30" transform="translate(127.246094 0)"/>
      </g>
     </g>
    </g>
    <g id="ytick_12">
     <g id="line2d_148">
      <path d="M 625.725385 79.267466 
L 1153.19952 79.267466 
" clip-path="url(#pb56855784c)" style="fill: none; stroke: #b0b0b0; stroke-opacity: 0.8; stroke-width: 0.8; stroke-linecap: square"/>
     </g>
     <g id="line2d_149">
      <g>
       <use xlink:href="#m1433754b9f" x="625.725385" y="79.267466" style="stroke: #000000; stroke-width: 0.8"/>
      </g>
     </g>
     <g id="text_33">
      <!-- 250 -->
      <g transform="translate(599.637885 83.066685) scale(0.1 -0.1)">
       <use xlink:href="#DejaVuSans-32"/>
       <use xlink:href="#DejaVuSans-35" transform="translate(63.623047 0)"/>
       <use xlink:href="#DejaVuSans-30" transform="translate(127.246094 0)"/>
      </g>
     </g>
    </g>
    <g id="text_34">
     <!-- Frequency -->
     <g transform="translate(593.558198 238.410385) rotate(-90) scale(0.1 -0.1)">
      <use xlink:href="#DejaVuSans-46"/>
      <use xlink:href="#DejaVuSans-72" transform="translate(50.269531 0)"/>
      <use xlink:href="#DejaVuSans-65" transform="translate(89.132812 0)"/>
      <use xlink:href="#DejaVuSans-71" transform="translate(150.65625 0)"/>
      <use xlink:href="#DejaVuSans-75" transform="translate(214.132812 0)"/>
      <use xlink:href="#DejaVuSans-65" transform="translate(277.511719 0)"/>
      <use xlink:href="#DejaVuSans-6e" transform="translate(339.035156 0)"/>
      <use xlink:href="#DejaVuSans-63" transform="translate(402.414062 0)"/>
      <use xlink:href="#DejaVuSans-79" transform="translate(457.394531 0)"/>
     </g>
    </g>
   </g>
   <g id="line2d_150">
    <path d="M 881.392744 402.84327 
L 935.906781 402.84327 
L 935.906781 402.84327 
" clip-path="url(#pb56855784c)" style="fill: none; stroke: #1f77b4; stroke-width: 2.2; stroke-linecap: square"/>
   </g>
   <g id="line2d_151">
    <path d="M -1 402.84327 
L 1129.223423 402.84327 
L 1129.223423 402.84327 
" clip-path="url(#pb56855784c)" style="fill: none; stroke: #ff7f0e; stroke-width: 2.2; stroke-linecap: square"/>
   </g>
   <g id="line2d_152">
    <path d="M -1 402.841218 
L 862.76526 402.84327 
L 862.76526 402.84327 
" clip-path="url(#pb56855784c)" style="fill: none; stroke: #2ca02c; stroke-width: 2.2; stroke-linecap: square"/>
   </g>
   <g id="patch_12">
    <path d="M 625.725385 402.84327 
L 625.725385 22.318125 
" style="fill: none; stroke: #000000; stroke-width: 0.8; stroke-linejoin: miter; stroke-linecap: square"/>
   </g>
   <g id="patch_13">
    <path d="M 1153.19952 402.84327 
L 1153.19952 22.318125 
" style="fill: none; stroke: #000000; stroke-width: 0.8; stroke-linejoin: miter; stroke-linecap: square"/>
   </g>
   <g id="patch_14">
    <path d="M 625.725385 402.84327 
L 1153.19952 402.84327 
" style="fill: none; stroke: #000000; stroke-width: 0.8; stroke-linejoin: miter; stroke-linecap: square"/>
   </g>
   <g id="patch_15">
    <path d="M 625.725385 22.318125 
L 1153.19952 22.318125 
" style="fill: none; stroke: #000000; stroke-width: 0.8; stroke-linejoin: miter; stroke-linecap: square"/>
   </g>
   <g id="text_35">
    <!-- Cluster mean train-hourly load distribution -->
    <g transform="translate(761.417765 16.318125) scale(0.12 -0.12)">
     <use xlink:href="#DejaVuSans-43"/>
     <use xlink:href="#DejaVuSans-6c" transform="translate(69.824219 0)"/>
     <use xlink:href="#DejaVuSans-75" transform="translate(97.607422 0)"/>
     <use xlink:href="#DejaVuSans-73" transform="translate(160.986328 0)"/>
     <use xlink:href="#DejaVuSans-74" transform="translate(213.085938 0)"/>
     <use xlink:href="#DejaVuSans-65" transform="translate(252.294922 0)"/>
     <use xlink:href="#DejaVuSans-72" transform="translate(313.818359 0)"/>
     <use xlink:href="#DejaVuSans-20" transform="translate(354.931641 0)"/>
     <use xlink:href="#DejaVuSans-6d" transform="translate(386.71875 0)"/>
     <use xlink:href="#DejaVuSans-65" transform="translate(484.130859 0)"/>
     <use xlink:href="#DejaVuSans-61" transform="translate(545.654297 0)"/>
     <use xlink:href="#DejaVuSans-6e" transform="translate(606.933594 0)"/>
     <use xlink:href="#DejaVuSans-20" transform="translate(670.3125 0)"/>
     <use xlink:href="#DejaVuSans-74" transform="translate(702.099609 0)"/>
     <use xlink:href="#DejaVuSans-72" transform="translate(741.308594 0)"/>
     <use xlink:href="#DejaVuSans-61" transform="translate(782.421875 0)"/>
     <use xlink:href="#DejaVuSans-69" transform="translate(843.701172 0)"/>
     <use xlink:href="#DejaVuSans-6e" transform="translate(871.484375 0)"/>
     <use xlink:href="#DejaVuSans-2d" transform="translate(934.863281 0)"/>
     <use xlink:href="#DejaVuSans-68" transform="translate(970.947266 0)"/>
     <use xlink:href="#DejaVuSans-6f" transform="translate(1034.326172 0)"/>
     <use xlink:href="#DejaVuSans-75" transform="translate(1095.507812 0)"/>
     <use xlink:href="#DejaVuSans-72" transform="translate(1158.886719 0)"/>
     <use xlink:href="#DejaVuSans-6c" transform="translate(1200 0)"/>
     <use xlink:href="#DejaVuSans-79" transform="translate(1227.783203 0)"/>
     <use xlink:href="#DejaVuSans-20" transform="translate(1286.962891 0)"/>
     <use xlink:href="#DejaVuSans-6c" transform="translate(1318.75 0)"/>
     <use xlink:href="#DejaVuSans-6f" transform="translate(1346.533203 0)"/>
     <use xlink:href="#DejaVuSans-61" transform="translate(1407.714844 0)"/>
     <use xlink:href="#DejaVuSans-64" transform="translate(1468.994141 0)"/>
     <use xlink:href="#DejaVuSans-20" transform="translate(1532.470703 0)"/>
     <use xlink:href="#DejaVuSans-64" transform="translate(1564.257812 0)"/>
     <use xlink:href="#DejaVuSans-69" transform="translate(1627.734375 0)"/>
     <use xlink:href="#DejaVuSans-73" transform="translate(1655.517578 0)"/>
     <use xlink:href="#DejaVuSans-74" transform="translate(1707.617188 0)"/>
     <use xlink:href="#DejaVuSans-72" transform="translate(1746.826172 0)"/>
     <use xlink:href="#DejaVuSans-69" transform="translate(1787.939453 0)"/>
     <use xlink:href="#DejaVuSans-62" transform="translate(1815.722656 0)"/>
     <use xlink:href="#DejaVuSans-75" transform="translate(1879.199219 0)"/>
     <use xlink:href="#DejaVuSans-74" transform="translate(1942.578125 0)"/>
     <use xlink:href="#DejaVuSans-69" transform="translate(1981.787109 0)"/>
     <use xlink:href="#DejaVuSans-6f" transform="translate(2009.570312 0)"/>
     <use xlink:href="#DejaVuSans-6e" transform="translate(2070.751953 0)"/>
    </g>
   </g>
   <g id="legend_2">
    <g id="patch_16">
     <path d="M 632.725385 89.030625 
L 754.544135 89.030625 
Q 756.544135 89.030625 756.544135 87.030625 
L 756.544135 29.318125 
Q 756.544135 27.318125 754.544135 27.318125 
L 632.725385 27.318125 
Q 630.725385 27.318125 630.725385 29.318125 
L 630.725385 87.030625 
Q 630.725385 89.030625 632.725385 89.030625 
z
" style="fill: #ffffff; opacity: 0.8; stroke: #cccccc; stroke-linejoin: miter"/>
    </g>
    <g id="text_36">
     <!-- Cluster -->
     <g transform="translate(675.888666 38.916562) scale(0.1 -0.1)">
      <use xlink:href="#DejaVuSans-43"/>
      <use xlink:href="#DejaVuSans-6c" transform="translate(69.824219 0)"/>
      <use xlink:href="#DejaVuSans-75" transform="translate(97.607422 0)"/>
      <use xlink:href="#DejaVuSans-73" transform="translate(160.986328 0)"/>
      <use xlink:href="#DejaVuSans-74" transform="translate(213.085938 0)"/>
      <use xlink:href="#DejaVuSans-65" transform="translate(252.294922 0)"/>
      <use xlink:href="#DejaVuSans-72" transform="translate(313.818359 0)"/>
     </g>
    </g>
    <g id="patch_17">
     <path d="M 634.725385 53.594687 
L 654.725385 53.594687 
L 654.725385 46.594687 
L 634.725385 46.594687 
z
" style="fill: #1f77b4; fill-opacity: 0.4; stroke: #1f77b4; stroke-linejoin: miter"/>
    </g>
    <g id="text_37">
     <!-- Cluster 0 (n=362) -->
     <g transform="translate(662.725385 53.594687) scale(0.1 -0.1)">
      <use xlink:href="#DejaVuSans-43"/>
      <use xlink:href="#DejaVuSans-6c" transform="translate(69.824219 0)"/>
      <use xlink:href="#DejaVuSans-75" transform="translate(97.607422 0)"/>
      <use xlink:href="#DejaVuSans-73" transform="translate(160.986328 0)"/>
      <use xlink:href="#DejaVuSans-74" transform="translate(213.085938 0)"/>
      <use xlink:href="#DejaVuSans-65" transform="translate(252.294922 0)"/>
      <use xlink:href="#DejaVuSans-72" transform="translate(313.818359 0)"/>
      <use xlink:href="#DejaVuSans-20" transform="translate(354.931641 0)"/>
      <use xlink:href="#DejaVuSans-30" transform="translate(386.71875 0)"/>
      <use xlink:href="#DejaVuSans-20" transform="translate(450.341797 0)"/>
      <use xlink:href="#DejaVuSans-28" transform="translate(482.128906 0)"/>
      <use xlink:href="#DejaVuSans-6e" transform="translate(521.142578 0)"/>
      <use xlink:href="#DejaVuSans-3d" transform="translate(584.521484 0)"/>
      <use xlink:href="#DejaVuSans-33" transform="translate(668.310547 0)"/>
      <use xlink:href="#DejaVuSans-36" transform="translate(731.933594 0)"/>
      <use xlink:href="#DejaVuSans-32" transform="translate(795.556641 0)"/>
      <use xlink:href="#DejaVuSans-29" transform="translate(859.179688 0)"/>
     </g>
    </g>
    <g id="patch_18">
     <path d="M 634.725385 68.272812 
L 654.725385 68.272812 
L 654.725385 61.272812 
L 634.725385 61.272812 
z
" style="fill: #ff7f0e; fill-opacity: 0.4; stroke: #ff7f0e; stroke-linejoin: miter"/>
    </g>
    <g id="text_38">
     <!-- Cluster 1 (n=1) -->
     <g transform="translate(662.725385 68.272812) scale(0.1 -0.1)">
      <use xlink:href="#DejaVuSans-43"/>
      <use xlink:href="#DejaVuSans-6c" transform="translate(69.824219 0)"/>
      <use xlink:href="#DejaVuSans-75" transform="translate(97.607422 0)"/>
      <use xlink:href="#DejaVuSans-73" transform="translate(160.986328 0)"/>
      <use xlink:href="#DejaVuSans-74" transform="translate(213.085938 0)"/>
      <use xlink:href="#DejaVuSans-65" transform="translate(252.294922 0)"/>
      <use xlink:href="#DejaVuSans-72" transform="translate(313.818359 0)"/>
      <use xlink:href="#DejaVuSans-20" transform="translate(354.931641 0)"/>
      <use xlink:href="#DejaVuSans-31" transform="translate(386.71875 0)"/>
      <use xlink:href="#DejaVuSans-20" transform="translate(450.341797 0)"/>
      <use xlink:href="#DejaVuSans-28" transform="translate(482.128906 0)"/>
      <use xlink:href="#DejaVuSans-6e" transform="translate(521.142578 0)"/>
      <use xlink:href="#DejaVuSans-3d" transform="translate(584.521484 0)"/>
      <use xlink:href="#DejaVuSans-31" transform="translate(668.310547 0)"/>
      <use xlink:href="#DejaVuSans-29" transform="translate(731.933594 0)"/>
     </g>
    </g>
    <g id="patch_19">
     <path d="M 634.725385 82.950937 
L 654.725385 82.950937 
L 654.725385 75.950937 
L 634.725385 75.950937 
z
" style="fill: #2ca02c; fill-opacity: 0.4; stroke: #2ca02c; stroke-linejoin: miter"/>
    </g>
    <g id="text_39">
     <!-- Cluster 2 (n=6) -->
     <g transform="translate(662.725385 82.950937) scale(0.1 -0.1)">
      <use xlink:href="#DejaVuSans-43"/>
      <use xlink:href="#DejaVuSans-6c" transform="translate(69.824219 0)"/>
      <use xlink:href="#DejaVuSans-75" transform="translate(97.607422 0)"/>
      <use xlink:href="#DejaVuSans-73" transform="translate(160.986328 0)"/>
      <use xlink:href="#DejaVuSans-74" transform="translate(213.085938 0)"/>
      <use xlink:href="#DejaVuSans-65" transform="translate(252.294922 0)"/>
      <use xlink:href="#DejaVuSans-72" transform="translate(313.818359 0)"/>
      <use xlink:href="#DejaVuSans-20" transform="translate(354.931641 0)"/>
      <use xlink:href="#DejaVuSans-32" transform="translate(386.71875 0)"/>
      <use xlink:href="#DejaVuSans-20" transform="translate(450.341797 0)"/>
      <use xlink:href="#DejaVuSans-28" transform="translate(482.128906 0)"/>
      <use xlink:href="#DejaVuSans-6e" transform="translate(521.142578 0)"/>
      <use xlink:href="#DejaVuSans-3d" transform="translate(584.521484 0)"/>
      <use xlink:href="#DejaVuSans-36" transform="translate(668.310547 0)"/>
      <use xlink:href="#DejaVuSans-29" transform="translate(731.933594 0)"/>
     </g>
    </g>
   </g>
  </g>
 </g>
 <defs>
  <clipPath id="p9d0e8f46e4">
   <rect x="46.965625" y="22.318125" width="527.474135" height="380.525145"/>
  </clipPath>
  <clipPath id="pb56855784c">
   <rect x="625.725385" y="22.318125" width="527.474135" height="380.525145"/>
  </clipPath>
 </defs>
</svg>
