<?xml version="1.0" encoding="utf-8" standalone="no"?>
<!DOCTYPE svg PUBLIC "-//W3C//DTD SVG 1.1//EN"
  "http://www.w3.org/Graphics/SVG/1.1/DTD/svg11.dtd">
<svg xmlns:xlink="http://www.w3.org/1999/xlink" width="872.39952pt" height="368.39952pt" viewBox="0 0 872.39952 368.39952" xmlns="http://www.w3.org/2000/svg" version="1.1">
 <metadata>
  <rdf:RDF xmlns:dc="http://purl.org/dc/elements/1.1/" xmlns:cc="http://creativecommons.org/ns#" xmlns:rdf="http://www.w3.org/1999/02/22-rdf-syntax-ns#">
   <cc:Work>
    <dc:type rdf:resource="http://purl.org/dc/dcmitype/StillImage"/>
    <dc:date>2026-04-26T11:12:14.614824</dc:date>
    <dc:format>image/svg+xml</dc:format>
    <dc:creator>
     <cc:Agent>
      <dc:title>Matplotlib v3.10.9, https://matplotlib.org/</dc:title>
     </cc:Agent>
    </dc:creator>
   </cc:Work>
  </rdf:RDF>
 </metadata>
 <defs>
  <style type="text/css">*{stroke-linejoin: round; stroke-linecap: butt}</style>
 </defs>
 <g id="figure_1">
  <g id="patch_1">
   <path d="M 0 368.39952 
L 872.39952 368.39952 
L 872.39952 0 
L 0 0 
z
" style="fill: #ffffff"/>
  </g>
  <g id="axes_1">
   <g id="patch_2">
    <path d="M 45.478125 330.84327 
L 865.19952 330.84327 
L 865.19952 22.318125 
L 45.478125 22.318125 
z
" style="fill: #ffffff"/>
   </g>
   <g id="matplotlib.axis_1">
    <g id="xtick_1">
     <g id="line2d_1">
      <path d="M 82.738188 330.84327 
L 82.738188 22.318125 
" clip-path="url(#p58337e2653)" style="fill: none; stroke: #b0b0b0; stroke-opacity: 0.25; stroke-width: 0.8; stroke-linecap: square"/>
     </g>
     <g id="line2d_2">
      <defs>
       <path id="mb80a11fe29" d="M 0 0 
L 0 3.5 
" style="stroke: #000000; stroke-width: 0.8"/>
      </defs>
      <g>
       <use xlink:href="#mb80a11fe29" x="82.738188" y="330.84327" style="stroke: #000000; stroke-width: 0.8"/>
      </g>
     </g>
     <g id="text_1">
      <!-- 0 -->
      <g transform="translate(79.556938 345.441707) scale(0.1 -0.1)">
       <defs>
        <path id="DejaVuSans-30" d="M 2034 4250 
Q 1547 4250 1301 3770 
Q 1056 3291 1056 2328 
Q 1056 1369 1301 889 
Q 1547 409 2034 409 
Q 2525 409 2770 889 
Q 3016 1369 3016 2328 
Q 3016 3291 2770 3770 
Q 2525 4250 2034 4250 
z
M 2034 4750 
Q 2819 4750 3233 4129 
Q 3647 3509 3647 2328 
Q 3647 1150 3233 529 
Q 2819 -91 2034 -91 
Q 1250 -91 836 529 
Q 422 1150 422 2328 
Q 422 3509 836 4129 
Q 1250 4750 2034 4750 
z
" transform="scale(0.015625)"/>
       </defs>
       <use xlink:href="#DejaVuSans-30"/>
      </g>
     </g>
    </g>
    <g id="xtick_2">
     <g id="line2d_3">
      <path d="M 115.138244 330.84327 
L 115.138244 22.318125 
" clip-path="url(#p58337e2653)" style="fill: none; stroke: #b0b0b0; stroke-opacity: 0.25; stroke-width: 0.8; stroke-linecap: square"/>
     </g>
     <g id="line2d_4">
      <g>
       <use xlink:href="#mb80a11fe29" x="115.138244" y="330.84327" style="stroke: #000000; stroke-width: 0.8"/>
      </g>
     </g>
     <g id="text_2">
      <!-- 1 -->
      <g transform="translate(111.956994 345.441707) scale(0.1 -0.1)">
       <defs>
        <path id="DejaVuSans-31" d="M 794 531 
L 1825 531 
L 1825 4091 
L 703 3866 
L 703 4441 
L 1819 4666 
L 2450 4666 
L 2450 531 
L 3481 531 
L 3481 0 
L 794 0 
L 794 531 
z
" transform="scale(0.015625)"/>
       </defs>
       <use xlink:href="#DejaVuSans-31"/>
      </g>
     </g>
    </g>
    <g id="xtick_3">
     <g id="line2d_5">
      <path d="M 147.538299 330.84327 
L 147.538299 22.318125 
" clip-path="url(#p58337e2653)" style="fill: none; stroke: #b0b0b0; stroke-opacity: 0.25; stroke-width: 0.8; stroke-linecap: square"/>
     </g>
     <g id="line2d_6">
      <g>
       <use xlink:href="#mb80a11fe29" x="147.538299" y="330.84327" style="stroke: #000000; stroke-width: 0.8"/>
      </g>
     </g>
     <g id="text_3">
      <!-- 2 -->
      <g transform="translate(144.357049 345.441707) scale(0.1 -0.1)">
       <defs>
        <path id="DejaVuSans-32" d="M 1228 531 
L 3431 531 
L 3431 0 
L 469 0 
L 469 531 
Q 828 903 1448 1529 
Q 2069 2156 2228 2338 
Q 2531 2678 2651 2914 
Q 2772 3150 2772 3378 
Q 2772 3750 2511 3984 
Q 2250 4219 1831 4219 
Q 1534 4219 1204 4116 
Q 875 4013 500 3803 
L 500 4441 
Q 881 4594 1212 4672 
Q 1544 4750 1819 4750 
Q 2544 4750 2975 4387 
Q 3406 4025 3406 3419 
Q 3406 3131 3298 2873 
Q 3191 2616 2906 2266 
Q 2828 2175 2409 1742 
Q 1991 1309 1228 531 
z
" transform="scale(0.015625)"/>
       </defs>
       <use xlink:href="#DejaVuSans-32"/>
      </g>
     </g>
    </g>
    <g id="xtick_4">
     <g id="line2d_7">
      <path d="M 179.938354 330.84327 
L 179.938354 22.318125 
" clip-path="url(#p58337e2653)" style="fill: none; stroke: #b0b0b0; stroke-opacity: 0.25; stroke-width: 0.8; stroke-linecap: square"/>
     </g>
     <g id="line2d_8">
      <g>
       <use xlink:href="#mb80a11fe29" x="179.938354" y="330.84327" style="stroke: #000000; stroke-width: 0.8"/>
      </g>
     </g>
     <g id="text_4">
      <!-- 3 -->
      <g transform="translate(176.757104 345.441707) scale(0.1 -0.1)">
       <defs>
        <path id="DejaVuSans-33" d="M 2597 2516 
Q 3050 2419 3304 2112 
Q 3559 1806 3559 1356 
Q 3559 666 3084 287 
Q 2609 -91 1734 -91 
Q 1441 -91 1130 -33 
Q 819 25 488 141 
L 488 750 
Q 750 597 1062 519 
Q 1375 441 1716 441 
Q 2309 441 2620 675 
Q 2931 909 2931 1356 
Q 2931 1769 2642 2001 
Q 2353 2234 1838 2234 
L 1294 2234 
L 1294 2753 
L 1863 2753 
Q 2328 2753 2575 2939 
Q 2822 3125 2822 3475 
Q 2822 3834 2567 4026 
Q 2313 4219 1838 4219 
Q 1578 4219 1281 4162 
Q 984 4106 628 3988 
L 628 4550 
Q 988 4650 1302 4700 
Q 1616 4750 1894 4750 
Q 2613 4750 3031 4423 
Q 3450 4097 3450 3541 
Q 3450 3153 3228 2886 
Q 3006 2619 2597 2516 
z
" transform="scale(0.015625)"/>
       </defs>
       <use xlink:href="#DejaVuSans-33"/>
      </g>
     </g>
    </g>
    <g id="xtick_5">
     <g id="line2d_9">
      <path d="M 212.338409 330.84327 
L 212.338409 22.318125 
" clip-path="url(#p58337e2653)" style="fill: none; stroke: #b0b0b0; stroke-opacity: 0.25; stroke-width: 0.8; stroke-linecap: square"/>
     </g>
     <g id="line2d_10">
      <g>
       <use xlink:href="#mb80a11fe29" x="212.338409" y="330.84327" style="stroke: #000000; stroke-width: 0.8"/>
      </g>
     </g>
     <g id="text_5">
      <!-- 4 -->
      <g transform="translate(209.157159 345.441707) scale(0.1 -0.1)">
       <defs>
        <path id="DejaVuSans-34" d="M 2419 4116 
L 825 1625 
L 2419 1625 
L 2419 4116 
z
M 2253 4666 
L 3047 4666 
L 3047 1625 
L 3713 1625 
L 3713 1100 
L 3047 1100 
L 3047 0 
L 2419 0 
L 2419 1100 
L 313 1100 
L 313 1709 
L 2253 4666 
z
" transform="scale(0.015625)"/>
       </defs>
       <use xlink:href="#DejaVuSans-34"/>
      </g>
     </g>
    </g>
    <g id="xtick_6">
     <g id="line2d_11">
      <path d="M 244.738464 330.84327 
L 244.738464 22.318125 
" clip-path="url(#p58337e2653)" style="fill: none; stroke: #b0b0b0; stroke-opacity: 0.25; stroke-width: 0.8; stroke-linecap: square"/>
     </g>
     <g id="line2d_12">
      <g>
       <use xlink:href="#mb80a11fe29" x="244.738464" y="330.84327" style="stroke: #000000; stroke-width: 0.8"/>
      </g>
     </g>
     <g id="text_6">
      <!-- 5 -->
      <g transform="translate(241.557214 345.441707) scale(0.1 -0.1)">
       <defs>
        <path id="DejaVuSans-35" d="M 691 4666 
L 3169 4666 
L 3169 4134 
L 1269 4134 
L 1269 2991 
Q 1406 3038 1543 3061 
Q 1681 3084 1819 3084 
Q 2600 3084 3056 2656 
Q 3513 2228 3513 1497 
Q 3513 744 3044 326 
Q 2575 -91 1722 -91 
Q 1428 -91 1123 -41 
Q 819 9 494 109 
L 494 744 
Q 775 591 1075 516 
Q 1375 441 1709 441 
Q 2250 441 2565 725 
Q 2881 1009 2881 1497 
Q 2881 1984 2565 2268 
Q 2250 2553 1709 2553 
Q 1456 2553 1204 2497 
Q 953 2441 691 2322 
L 691 4666 
z
" transform="scale(0.015625)"/>
       </defs>
       <use xlink:href="#DejaVuSans-35"/>
      </g>
     </g>
    </g>
    <g id="xtick_7">
     <g id="line2d_13">
      <path d="M 277.138519 330.84327 
L 277.138519 22.318125 
" clip-path="url(#p58337e2653)" style="fill: none; stroke: #b0b0b0; stroke-opacity: 0.25; stroke-width: 0.8; stroke-linecap: square"/>
     </g>
     <g id="line2d_14">
      <g>
       <use xlink:href="#mb80a11fe29" x="277.138519" y="330.84327" style="stroke: #000000; stroke-width: 0.8"/>
      </g>
     </g>
     <g id="text_7">
      <!-- 6 -->
      <g transform="translate(273.957269 345.441707) scale(0.1 -0.1)">
       <defs>
        <path id="DejaVuSans-36" d="M 2113 2584 
Q 1688 2584 1439 2293 
Q 1191 2003 1191 1497 
Q 1191 994 1439 701 
Q 1688 409 2113 409 
Q 2538 409 2786 701 
Q 3034 994 3034 1497 
Q 3034 2003 2786 2293 
Q 2538 2584 2113 2584 
z
M 3366 4563 
L 3366 3988 
Q 3128 4100 2886 4159 
Q 2644 4219 2406 4219 
Q 1781 4219 1451 3797 
Q 1122 3375 1075 2522 
Q 1259 2794 1537 2939 
Q 1816 3084 2150 3084 
Q 2853 3084 3261 2657 
Q 3669 2231 3669 1497 
Q 3669 778 3244 343 
Q 2819 -91 2113 -91 
Q 1303 -91 875 529 
Q 447 1150 447 2328 
Q 447 3434 972 4092 
Q 1497 4750 2381 4750 
Q 2619 4750 2861 4703 
Q 3103 4656 3366 4563 
z
" transform="scale(0.015625)"/>
       </defs>
       <use xlink:href="#DejaVuSans-36"/>
      </g>
     </g>
    </g>
    <g id="xtick_8">
     <g id="line2d_15">
      <path d="M 309.538574 330.84327 
L 309.538574 22.318125 
" clip-path="url(#p58337e2653)" style="fill: none; stroke: #b0b0b0; stroke-opacity: 0.25; stroke-width: 0.8; stroke-linecap: square"/>
     </g>
     <g id="line2d_16">
      <g>
       <use xlink:href="#mb80a11fe29" x="309.538574" y="330.84327" style="stroke: #000000; stroke-width: 0.8"/>
      </g>
     </g>
     <g id="text_8">
      <!-- 7 -->
      <g transform="translate(306.357324 345.441707) scale(0.1 -0.1)">
       <defs>
        <path id="DejaVuSans-37" d="M 525 4666 
L 3525 4666 
L 3525 4397 
L 1831 0 
L 1172 0 
L 2766 4134 
L 525 4134 
L 525 4666 
z
" transform="scale(0.015625)"/>
       </defs>
       <use xlink:href="#DejaVuSans-37"/>
      </g>
     </g>
    </g>
    <g id="xtick_9">
     <g id="line2d_17">
      <path d="M 341.93863 330.84327 
L 341.93863 22.318125 
" clip-path="url(#p58337e2653)" style="fill: none; stroke: #b0b0b0; stroke-opacity: 0.25; stroke-width: 0.8; stroke-linecap: square"/>
     </g>
     <g id="line2d_18">
      <g>
       <use xlink:href="#mb80a11fe29" x="341.93863" y="330.84327" style="stroke: #000000; stroke-width: 0.8"/>
      </g>
     </g>
     <g id="text_9">
      <!-- 8 -->
      <g transform="translate(338.75738 345.441707) scale(0.1 -0.1)">
       <defs>
        <path id="DejaVuSans-38" d="M 2034 2216 
Q 1584 2216 1326 1975 
Q 1069 1734 1069 1313 
Q 1069 891 1326 650 
Q 1584 409 2034 409 
Q 2484 409 2743 651 
Q 3003 894 3003 1313 
Q 3003 1734 2745 1975 
Q 2488 2216 2034 2216 
z
M 1403 2484 
Q 997 2584 770 2862 
Q 544 3141 544 3541 
Q 544 4100 942 4425 
Q 1341 4750 2034 4750 
Q 2731 4750 3128 4425 
Q 3525 4100 3525 3541 
Q 3525 3141 3298 2862 
Q 3072 2584 2669 2484 
Q 3125 2378 3379 2068 
Q 3634 1759 3634 1313 
Q 3634 634 3220 271 
Q 2806 -91 2034 -91 
Q 1263 -91 848 271 
Q 434 634 434 1313 
Q 434 1759 690 2068 
Q 947 2378 1403 2484 
z
M 1172 3481 
Q 1172 3119 1398 2916 
Q 1625 2713 2034 2713 
Q 2441 2713 2670 2916 
Q 2900 3119 2900 3481 
Q 2900 3844 2670 4047 
Q 2441 4250 2034 4250 
Q 1625 4250 1398 4047 
Q 1172 3844 1172 3481 
z
" transform="scale(0.015625)"/>
       </defs>
       <use xlink:href="#DejaVuSans-38"/>
      </g>
     </g>
    </g>
    <g id="xtick_10">
     <g id="line2d_19">
      <path d="M 374.338685 330.84327 
L 374.338685 22.318125 
" clip-path="url(#p58337e2653)" style="fill: none; stroke: #b0b0b0; stroke-opacity: 0.25; stroke-width: 0.8; stroke-linecap: square"/>
     </g>
     <g id="line2d_20">
      <g>
       <use xlink:href="#mb80a11fe29" x="374.338685" y="330.84327" style="stroke: #000000; stroke-width: 0.8"/>
      </g>
     </g>
     <g id="text_10">
      <!-- 9 -->
      <g transform="translate(371.157435 345.441707) scale(0.1 -0.1)">
       <defs>
        <path id="DejaVuSans-39" d="M 703 97 
L 703 672 
Q 941 559 1184 500 
Q 1428 441 1663 441 
Q 2288 441 2617 861 
Q 2947 1281 2994 2138 
Q 2813 1869 2534 1725 
Q 2256 1581 1919 1581 
Q 1219 1581 811 2004 
Q 403 2428 403 3163 
Q 403 3881 828 4315 
Q 1253 4750 1959 4750 
Q 2769 4750 3195 4129 
Q 3622 3509 3622 2328 
Q 3622 1225 3098 567 
Q 2575 -91 1691 -91 
Q 1453 -91 1209 -44 
Q 966 3 703 97 
z
M 1959 2075 
Q 2384 2075 2632 2365 
Q 2881 2656 2881 3163 
Q 2881 3666 2632 3958 
Q 2384 4250 1959 4250 
Q 1534 4250 1286 3958 
Q 1038 3666 1038 3163 
Q 1038 2656 1286 2365 
Q 1534 2075 1959 2075 
z
" transform="scale(0.015625)"/>
       </defs>
       <use xlink:href="#DejaVuSans-39"/>
      </g>
     </g>
    </g>
    <g id="xtick_11">
     <g id="line2d_21">
      <path d="M 406.73874 330.84327 
L 406.73874 22.318125 
" clip-path="url(#p58337e2653)" style="fill: none; stroke: #b0b0b0; stroke-opacity: 0.25; stroke-width: 0.8; stroke-linecap: square"/>
     </g>
     <g id="line2d_22">
      <g>
       <use xlink:href="#mb80a11fe29" x="406.73874" y="330.84327" style="stroke: #000000; stroke-width: 0.8"/>
      </g>
     </g>
     <g id="text_11">
      <!-- 10 -->
      <g transform="translate(400.37624 345.441707) scale(0.1 -0.1)">
       <use xlink:href="#DejaVuSans-31"/>
       <use xlink:href="#DejaVuSans-30" transform="translate(63.623047 0)"/>
      </g>
     </g>
    </g>
    <g id="xtick_12">
     <g id="line2d_23">
      <path d="M 439.138795 330.84327 
L 439.138795 22.318125 
" clip-path="url(#p58337e2653)" style="fill: none; stroke: #b0b0b0; stroke-opacity: 0.25; stroke-width: 0.8; stroke-linecap: square"/>
     </g>
     <g id="line2d_24">
      <g>
       <use xlink:href="#mb80a11fe29" x="439.138795" y="330.84327" style="stroke: #000000; stroke-width: 0.8"/>
      </g>
     </g>
     <g id="text_12">
      <!-- 11 -->
      <g transform="translate(432.776295 345.441707) scale(0.1 -0.1)">
       <use xlink:href="#DejaVuSans-31"/>
       <use xlink:href="#DejaVuSans-31" transform="translate(63.623047 0)"/>
      </g>
     </g>
    </g>
    <g id="xtick_13">
     <g id="line2d_25">
      <path d="M 471.53885 330.84327 
L 471.53885 22.318125 
" clip-path="url(#p58337e2653)" style="fill: none; stroke: #b0b0b0; stroke-opacity: 0.25; stroke-width: 0.8; stroke-linecap: square"/>
     </g>
     <g id="line2d_26">
      <g>
       <use xlink:href="#mb80a11fe29" x="471.53885" y="330.84327" style="stroke: #000000; stroke-width: 0.8"/>
      </g>
     </g>
     <g id="text_13">
      <!-- 12 -->
      <g transform="translate(465.17635 345.441707) scale(0.1 -0.1)">
       <use xlink:href="#DejaVuSans-31"/>
       <use xlink:href="#DejaVuSans-32" transform="translate(63.623047 0)"/>
      </g>
     </g>
    </g>
    <g id="xtick_14">
     <g id="line2d_27">
      <path d="M 503.938905 330.84327 
L 503.938905 22.318125 
" clip-path="url(#p58337e2653)" style="fill: none; stroke: #b0b0b0; stroke-opacity: 0.25; stroke-width: 0.8; stroke-linecap: square"/>
     </g>
     <g id="line2d_28">
      <g>
       <use xlink:href="#mb80a11fe29" x="503.938905" y="330.84327" style="stroke: #000000; stroke-width: 0.8"/>
      </g>
     </g>
     <g id="text_14">
      <!-- 13 -->
      <g transform="translate(497.576405 345.441707) scale(0.1 -0.1)">
       <use xlink:href="#DejaVuSans-31"/>
       <use xlink:href="#DejaVuSans-33" transform="translate(63.623047 0)"/>
      </g>
     </g>
    </g>
    <g id="xtick_15">
     <g id="line2d_29">
      <path d="M 536.33896 330.84327 
L 536.33896 22.318125 
" clip-path="url(#p58337e2653)" style="fill: none; stroke: #b0b0b0; stroke-opacity: 0.25; stroke-width: 0.8; stroke-linecap: square"/>
     </g>
     <g id="line2d_30">
      <g>
       <use xlink:href="#mb80a11fe29" x="536.33896" y="330.84327" style="stroke: #000000; stroke-width: 0.8"/>
      </g>
     </g>
     <g id="text_15">
      <!-- 14 -->
      <g transform="translate(529.97646 345.441707) scale(0.1 -0.1)">
       <use xlink:href="#DejaVuSans-31"/>
       <use xlink:href="#DejaVuSans-34" transform="translate(63.623047 0)"/>
      </g>
     </g>
    </g>
    <g id="xtick_16">
     <g id="line2d_31">
      <path d="M 568.739015 330.84327 
L 568.739015 22.318125 
" clip-path="url(#p58337e2653)" style="fill: none; stroke: #b0b0b0; stroke-opacity: 0.25; stroke-width: 0.8; stroke-linecap: square"/>
     </g>
     <g id="line2d_32">
      <g>
       <use xlink:href="#mb80a11fe29" x="568.739015" y="330.84327" style="stroke: #000000; stroke-width: 0.8"/>
      </g>
     </g>
     <g id="text_16">
      <!-- 15 -->
      <g transform="translate(562.376515 345.441707) scale(0.1 -0.1)">
       <use xlink:href="#DejaVuSans-31"/>
       <use xlink:href="#DejaVuSans-35" transform="translate(63.623047 0)"/>
      </g>
     </g>
    </g>
    <g id="xtick_17">
     <g id="line2d_33">
      <path d="M 601.139071 330.84327 
L 601.139071 22.318125 
" clip-path="url(#p58337e2653)" style="fill: none; stroke: #b0b0b0; stroke-opacity: 0.25; stroke-width: 0.8; stroke-linecap: square"/>
     </g>
     <g id="line2d_34">
      <g>
       <use xlink:href="#mb80a11fe29" x="601.139071" y="330.84327" style="stroke: #000000; stroke-width: 0.8"/>
      </g>
     </g>
     <g id="text_17">
      <!-- 16 -->
      <g transform="translate(594.776571 345.441707) scale(0.1 -0.1)">
       <use xlink:href="#DejaVuSans-31"/>
       <use xlink:href="#DejaVuSans-36" transform="translate(63.623047 0)"/>
      </g>
     </g>
    </g>
    <g id="xtick_18">
     <g id="line2d_35">
      <path d="M 633.539126 330.84327 
L 633.539126 22.318125 
" clip-path="url(#p58337e2653)" style="fill: none; stroke: #b0b0b0; stroke-opacity: 0.25; stroke-width: 0.8; stroke-linecap: square"/>
     </g>
     <g id="line2d_36">
      <g>
       <use xlink:href="#mb80a11fe29" x="633.539126" y="330.84327" style="stroke: #000000; stroke-width: 0.8"/>
      </g>
     </g>
     <g id="text_18">
      <!-- 17 -->
      <g transform="translate(627.176626 345.441707) scale(0.1 -0.1)">
       <use xlink:href="#DejaVuSans-31"/>
       <use xlink:href="#DejaVuSans-37" transform="translate(63.623047 0)"/>
      </g>
     </g>
    </g>
    <g id="xtick_19">
     <g id="line2d_37">
      <path d="M 665.939181 330.84327 
L 665.939181 22.318125 
" clip-path="url(#p58337e2653)" style="fill: none; stroke: #b0b0b0; stroke-opacity: 0.25; stroke-width: 0.8; stroke-linecap: square"/>
     </g>
     <g id="line2d_38">
      <g>
       <use xlink:href="#mb80a11fe29" x="665.939181" y="330.84327" style="stroke: #000000; stroke-width: 0.8"/>
      </g>
     </g>
     <g id="text_19">
      <!-- 18 -->
      <g transform="translate(659.576681 345.441707) scale(0.1 -0.1)">
       <use xlink:href="#DejaVuSans-31"/>
       <use xlink:href="#DejaVuSans-38" transform="translate(63.623047 0)"/>
      </g>
     </g>
    </g>
    <g id="xtick_20">
     <g id="line2d_39">
      <path d="M 698.339236 330.84327 
L 698.339236 22.318125 
" clip-path="url(#p58337e2653)" style="fill: none; stroke: #b0b0b0; stroke-opacity: 0.25; stroke-width: 0.8; stroke-linecap: square"/>
     </g>
     <g id="line2d_40">
      <g>
       <use xlink:href="#mb80a11fe29" x="698.339236" y="330.84327" style="stroke: #000000; stroke-width: 0.8"/>
      </g>
     </g>
     <g id="text_20">
      <!-- 19 -->
      <g transform="translate(691.976736 345.441707) scale(0.1 -0.1)">
       <use xlink:href="#DejaVuSans-31"/>
       <use xlink:href="#DejaVuSans-39" transform="translate(63.623047 0)"/>
      </g>
     </g>
    </g>
    <g id="xtick_21">
     <g id="line2d_41">
      <path d="M 730.739291 330.84327 
L 730.739291 22.318125 
" clip-path="url(#p58337e2653)" style="fill: none; stroke: #b0b0b0; stroke-opacity: 0.25; stroke-width: 0.8; stroke-linecap: square"/>
     </g>
     <g id="line2d_42">
      <g>
       <use xlink:href="#mb80a11fe29" x="730.739291" y="330.84327" style="stroke: #000000; stroke-width: 0.8"/>
      </g>
     </g>
     <g id="text_21">
      <!-- 20 -->
      <g transform="translate(724.376791 345.441707) scale(0.1 -0.1)">
       <use xlink:href="#DejaVuSans-32"/>
       <use xlink:href="#DejaVuSans-30" transform="translate(63.623047 0)"/>
      </g>
     </g>
    </g>
    <g id="xtick_22">
     <g id="line2d_43">
      <path d="M 763.139346 330.84327 
L 763.139346 22.318125 
" clip-path="url(#p58337e2653)" style="fill: none; stroke: #b0b0b0; stroke-opacity: 0.25; stroke-width: 0.8; stroke-linecap: square"/>
     </g>
     <g id="line2d_44">
      <g>
       <use xlink:href="#mb80a11fe29" x="763.139346" y="330.84327" style="stroke: #000000; stroke-width: 0.8"/>
      </g>
     </g>
     <g id="text_22">
      <!-- 21 -->
      <g transform="translate(756.776846 345.441707) scale(0.1 -0.1)">
       <use xlink:href="#DejaVuSans-32"/>
       <use xlink:href="#DejaVuSans-31" transform="translate(63.623047 0)"/>
      </g>
     </g>
    </g>
    <g id="xtick_23">
     <g id="line2d_45">
      <path d="M 795.539401 330.84327 
L 795.539401 22.318125 
" clip-path="url(#p58337e2653)" style="fill: none; stroke: #b0b0b0; stroke-opacity: 0.25; stroke-width: 0.8; stroke-linecap: square"/>
     </g>
     <g id="line2d_46">
      <g>
       <use xlink:href="#mb80a11fe29" x="795.539401" y="330.84327" style="stroke: #000000; stroke-width: 0.8"/>
      </g>
     </g>
     <g id="text_23">
      <!-- 22 -->
      <g transform="translate(789.176901 345.441707) scale(0.1 -0.1)">
       <use xlink:href="#DejaVuSans-32"/>
       <use xlink:href="#DejaVuSans-32" transform="translate(63.623047 0)"/>
      </g>
     </g>
    </g>
    <g id="xtick_24">
     <g id="line2d_47">
      <path d="M 827.939457 330.84327 
L 827.939457 22.318125 
" clip-path="url(#p58337e2653)" style="fill: none; stroke: #b0b0b0; stroke-opacity: 0.25; stroke-width: 0.8; stroke-linecap: square"/>
     </g>
     <g id="line2d_48">
      <g>
       <use xlink:href="#mb80a11fe29" x="827.939457" y="330.84327" style="stroke: #000000; stroke-width: 0.8"/>
      </g>
     </g>
     <g id="text_24">
      <!-- 23 -->
      <g transform="translate(821.576957 345.441707) scale(0.1 -0.1)">
       <use xlink:href="#DejaVuSans-32"/>
       <use xlink:href="#DejaVuSans-33" transform="translate(63.623047 0)"/>
      </g>
     </g>
    </g>
    <g id="text_25">
     <!-- Hour of day -->
     <g transform="translate(426.09976 359.119832) scale(0.1 -0.1)">
      <defs>
       <path id="DejaVuSans-48" d="M 628 4666 
L 1259 4666 
L 1259 2753 
L 3553 2753 
L 3553 4666 
L 4184 4666 
L 4184 0 
L 3553 0 
L 3553 2222 
L 1259 2222 
L 1259 0 
L 628 0 
L 628 4666 
z
" transform="scale(0.015625)"/>
       <path id="DejaVuSans-6f" d="M 1959 3097 
Q 1497 3097 1228 2736 
Q 959 2375 959 1747 
Q 959 1119 1226 758 
Q 1494 397 1959 397 
Q 2419 397 2687 759 
Q 2956 1122 2956 1747 
Q 2956 2369 2687 2733 
Q 2419 3097 1959 3097 
z
M 1959 3584 
Q 2709 3584 3137 3096 
Q 3566 2609 3566 1747 
Q 3566 888 3137 398 
Q 2709 -91 1959 -91 
Q 1206 -91 779 398 
Q 353 888 353 1747 
Q 353 2609 779 3096 
Q 1206 3584 1959 3584 
z
" transform="scale(0.015625)"/>
       <path id="DejaVuSans-75" d="M 544 1381 
L 544 3500 
L 1119 3500 
L 1119 1403 
Q 1119 906 1312 657 
Q 1506 409 1894 409 
Q 2359 409 2629 706 
Q 2900 1003 2900 1516 
L 2900 3500 
L 3475 3500 
L 3475 0 
L 2900 0 
L 2900 538 
Q 2691 219 2414 64 
Q 2138 -91 1772 -91 
Q 1169 -91 856 284 
Q 544 659 544 1381 
z
M 1991 3584 
L 1991 3584 
z
" transform="scale(0.015625)"/>
       <path id="DejaVuSans-72" d="M 2631 2963 
Q 2534 3019 2420 3045 
Q 2306 3072 2169 3072 
Q 1681 3072 1420 2755 
Q 1159 2438 1159 1844 
L 1159 0 
L 581 0 
L 581 3500 
L 1159 3500 
L 1159 2956 
Q 1341 3275 1631 3429 
Q 1922 3584 2338 3584 
Q 2397 3584 2469 3576 
Q 2541 3569 2628 3553 
L 2631 2963 
z
" transform="scale(0.015625)"/>
       <path id="DejaVuSans-20" transform="scale(0.015625)"/>
       <path id="DejaVuSans-66" d="M 2375 4863 
L 2375 4384 
L 1825 4384 
Q 1516 4384 1395 4259 
Q 1275 4134 1275 3809 
L 1275 3500 
L 2222 3500 
L 2222 3053 
L 1275 3053 
L 1275 0 
L 697 0 
L 697 3053 
L 147 3053 
L 147 3500 
L 697 3500 
L 697 3744 
Q 697 4328 969 4595 
Q 1241 4863 1831 4863 
L 2375 4863 
z
" transform="scale(0.015625)"/>
       <path id="DejaVuSans-64" d="M 2906 2969 
L 2906 4863 
L 3481 4863 
L 3481 0 
L 2906 0 
L 2906 525 
Q 2725 213 2448 61 
Q 2172 -91 1784 -91 
Q 1150 -91 751 415 
Q 353 922 353 1747 
Q 353 2572 751 3078 
Q 1150 3584 1784 3584 
Q 2172 3584 2448 3432 
Q 2725 3281 2906 2969 
z
M 947 1747 
Q 947 1113 1208 752 
Q 1469 391 1925 391 
Q 2381 391 2643 752 
Q 2906 1113 2906 1747 
Q 2906 2381 2643 2742 
Q 2381 3103 1925 3103 
Q 1469 3103 1208 2742 
Q 947 2381 947 1747 
z
" transform="scale(0.015625)"/>
       <path id="DejaVuSans-61" d="M 2194 1759 
Q 1497 1759 1228 1600 
Q 959 1441 959 1056 
Q 959 750 1161 570 
Q 1363 391 1709 391 
Q 2188 391 2477 730 
Q 2766 1069 2766 1631 
L 2766 1759 
L 2194 1759 
z
M 3341 1997 
L 3341 0 
L 2766 0 
L 2766 531 
Q 2569 213 2275 61 
Q 1981 -91 1556 -91 
Q 1019 -91 701 211 
Q 384 513 384 1019 
Q 384 1609 779 1909 
Q 1175 2209 1959 2209 
L 2766 2209 
L 2766 2266 
Q 2766 2663 2505 2880 
Q 2244 3097 1772 3097 
Q 1472 3097 1187 3025 
Q 903 2953 641 2809 
L 641 3341 
Q 956 3463 1253 3523 
Q 1550 3584 1831 3584 
Q 2591 3584 2966 3190 
Q 3341 2797 3341 1997 
z
" transform="scale(0.015625)"/>
       <path id="DejaVuSans-79" d="M 2059 -325 
Q 1816 -950 1584 -1140 
Q 1353 -1331 966 -1331 
L 506 -1331 
L 506 -850 
L 844 -850 
Q 1081 -850 1212 -737 
Q 1344 -625 1503 -206 
L 1606 56 
L 191 3500 
L 800 3500 
L 1894 763 
L 2988 3500 
L 3597 3500 
L 2059 -325 
z
" transform="scale(0.015625)"/>
      </defs>
      <use xlink:href="#DejaVuSans-48"/>
      <use xlink:href="#DejaVuSans-6f" transform="translate(75.195312 0)"/>
      <use xlink:href="#DejaVuSans-75" transform="translate(136.376953 0)"/>
      <use xlink:href="#DejaVuSans-72" transform="translate(199.755859 0)"/>
      <use xlink:href="#DejaVuSans-20" transform="translate(240.869141 0)"/>
      <use xlink:href="#DejaVuSans-6f" transform="translate(272.65625 0)"/>
      <use xlink:href="#DejaVuSans-66" transform="translate(333.837891 0)"/>
      <use xlink:href="#DejaVuSans-20" transform="translate(369.042969 0)"/>
      <use xlink:href="#DejaVuSans-64" transform="translate(400.830078 0)"/>
      <use xlink:href="#DejaVuSans-61" transform="translate(464.306641 0)"/>
      <use xlink:href="#DejaVuSans-79" transform="translate(525.585938 0)"/>
     </g>
    </g>
   </g>
   <g id="matplotlib.axis_2">
    <g id="ytick_1">
     <g id="line2d_49">
      <path d="M 45.478125 322.085502 
L 865.19952 322.085502 
" clip-path="url(#p58337e2653)" style="fill: none; stroke: #b0b0b0; stroke-opacity: 0.25; stroke-width: 0.8; stroke-linecap: square"/>
     </g>
     <g id="line2d_50">
      <defs>
       <path id="m3b1437e21e" d="M 0 0 
L -3.5 0 
" style="stroke: #000000; stroke-width: 0.8"/>
      </defs>
      <g>
       <use xlink:href="#m3b1437e21e" x="45.478125" y="322.085502" style="stroke: #000000; stroke-width: 0.8"/>
      </g>
     </g>
     <g id="text_26">
      <!-- $\mathdefault{10^{1}}$ -->
      <g transform="translate(20.878125 325.884721) scale(0.1 -0.1)">
       <use xlink:href="#DejaVuSans-31" transform="translate(0 0.684375)"/>
       <use xlink:href="#DejaVuSans-30" transform="translate(63.623047 0.684375)"/>
       <use xlink:href="#DejaVuSans-31" transform="translate(128.203125 38.965625) scale(0.7)"/>
      </g>
     </g>
    </g>
    <g id="ytick_2">
     <g id="line2d_51">
      <path d="M 45.478125 258.566621 
L 865.19952 258.566621 
" clip-path="url(#p58337e2653)" style="fill: none; stroke: #b0b0b0; stroke-opacity: 0.25; stroke-width: 0.8; stroke-linecap: square"/>
     </g>
     <g id="line2d_52">
      <g>
       <use xlink:href="#m3b1437e21e" x="45.478125" y="258.566621" style="stroke: #000000; stroke-width: 0.8"/>
      </g>
     </g>
     <g id="text_27">
      <!-- $\mathdefault{10^{2}}$ -->
      <g transform="translate(20.878125 262.365839) scale(0.1 -0.1)">
       <use xlink:href="#DejaVuSans-31" transform="translate(0 0.765625)"/>
       <use xlink:href="#DejaVuSans-30" transform="translate(63.623047 0.765625)"/>
       <use xlink:href="#DejaVuSans-32" transform="translate(128.203125 39.046875) scale(0.7)"/>
      </g>
     </g>
    </g>
    <g id="ytick_3">
     <g id="line2d_53">
      <path d="M 45.478125 195.04774 
L 865.19952 195.04774 
" clip-path="url(#p58337e2653)" style="fill: none; stroke: #b0b0b0; stroke-opacity: 0.25; stroke-width: 0.8; stroke-linecap: square"/>
     </g>
     <g id="line2d_54">
      <g>
       <use xlink:href="#m3b1437e21e" x="45.478125" y="195.04774" style="stroke: #000000; stroke-width: 0.8"/>
      </g>
     </g>
     <g id="text_28">
      <!-- $\mathdefault{10^{3}}$ -->
      <g transform="translate(20.878125 198.846958) scale(0.1 -0.1)">
       <use xlink:href="#DejaVuSans-31" transform="translate(0 0.765625)"/>
       <use xlink:href="#DejaVuSans-30" transform="translate(63.623047 0.765625)"/>
       <use xlink:href="#DejaVuSans-33" transform="translate(128.203125 39.046875) scale(0.7)"/>
      </g>
     </g>
    </g>
    <g id="ytick_4">
     <g id="line2d_55">
      <path d="M 45.478125 131.528858 
L 865.19952 131.528858 
" clip-path="url(#p58337e2653)" style="fill: none; stroke: #b0b0b0; stroke-opacity: 0.25; stroke-width: 0.8; stroke-linecap: square"/>
     </g>
     <g id="line2d_56">
      <g>
       <use xlink:href="#m3b1437e21e" x="45.478125" y="131.528858" style="stroke: #000000; stroke-width: 0.8"/>
      </g>
     </g>
     <g id="text_29">
      <!-- $\mathdefault{10^{4}}$ -->
      <g transform="translate(20.878125 135.328077) scale(0.1 -0.1)">
       <use xlink:href="#DejaVuSans-31" transform="translate(0 0.684375)"/>
       <use xlink:href="#DejaVuSans-30" transform="translate(63.623047 0.684375)"/>
       <use xlink:href="#DejaVuSans-34" transform="translate(128.203125 38.965625) scale(0.7)"/>
      </g>
     </g>
    </g>
    <g id="ytick_5">
     <g id="line2d_57">
      <path d="M 45.478125 68.009977 
L 865.19952 68.009977 
" clip-path="url(#p58337e2653)" style="fill: none; stroke: #b0b0b0; stroke-opacity: 0.25; stroke-width: 0.8; stroke-linecap: square"/>
     </g>
     <g id="line2d_58">
      <g>
       <use xlink:href="#m3b1437e21e" x="45.478125" y="68.009977" style="stroke: #000000; stroke-width: 0.8"/>
      </g>
     </g>
     <g id="text_30">
      <!-- $\mathdefault{10^{5}}$ -->
      <g transform="translate(20.878125 71.809196) scale(0.1 -0.1)">
       <use xlink:href="#DejaVuSans-31" transform="translate(0 0.684375)"/>
       <use xlink:href="#DejaVuSans-30" transform="translate(63.623047 0.684375)"/>
       <use xlink:href="#DejaVuSans-35" transform="translate(128.203125 38.965625) scale(0.7)"/>
      </g>
     </g>
    </g>
    <g id="ytick_6">
     <g id="line2d_59">
      <defs>
       <path id="m9b29d097c2" d="M 0 0 
L -2 0 
" style="stroke: #000000; stroke-width: 0.6"/>
      </defs>
      <g>
       <use xlink:href="#m9b29d097c2" x="45.478125" y="328.241117" style="stroke: #000000; stroke-width: 0.6"/>
      </g>
     </g>
    </g>
    <g id="ytick_7">
     <g id="line2d_60">
      <g>
       <use xlink:href="#m9b29d097c2" x="45.478125" y="324.991966" style="stroke: #000000; stroke-width: 0.6"/>
      </g>
     </g>
    </g>
    <g id="ytick_8">
     <g id="line2d_61">
      <g>
       <use xlink:href="#m9b29d097c2" x="45.478125" y="302.964413" style="stroke: #000000; stroke-width: 0.6"/>
      </g>
     </g>
    </g>
    <g id="ytick_9">
     <g id="line2d_62">
      <g>
       <use xlink:href="#m9b29d097c2" x="45.478125" y="291.779294" style="stroke: #000000; stroke-width: 0.6"/>
      </g>
     </g>
    </g>
    <g id="ytick_10">
     <g id="line2d_63">
      <g>
       <use xlink:href="#m9b29d097c2" x="45.478125" y="283.843325" style="stroke: #000000; stroke-width: 0.6"/>
      </g>
     </g>
    </g>
    <g id="ytick_11">
     <g id="line2d_64">
      <g>
       <use xlink:href="#m9b29d097c2" x="45.478125" y="277.687709" style="stroke: #000000; stroke-width: 0.6"/>
      </g>
     </g>
    </g>
    <g id="ytick_12">
     <g id="line2d_65">
      <g>
       <use xlink:href="#m9b29d097c2" x="45.478125" y="272.658205" style="stroke: #000000; stroke-width: 0.6"/>
      </g>
     </g>
    </g>
    <g id="ytick_13">
     <g id="line2d_66">
      <g>
       <use xlink:href="#m9b29d097c2" x="45.478125" y="268.40582" style="stroke: #000000; stroke-width: 0.6"/>
      </g>
     </g>
    </g>
    <g id="ytick_14">
     <g id="line2d_67">
      <g>
       <use xlink:href="#m9b29d097c2" x="45.478125" y="264.722236" style="stroke: #000000; stroke-width: 0.6"/>
      </g>
     </g>
    </g>
    <g id="ytick_15">
     <g id="line2d_68">
      <g>
       <use xlink:href="#m9b29d097c2" x="45.478125" y="261.473085" style="stroke: #000000; stroke-width: 0.6"/>
      </g>
     </g>
    </g>
    <g id="ytick_16">
     <g id="line2d_69">
      <g>
       <use xlink:href="#m9b29d097c2" x="45.478125" y="239.445532" style="stroke: #000000; stroke-width: 0.6"/>
      </g>
     </g>
    </g>
    <g id="ytick_17">
     <g id="line2d_70">
      <g>
       <use xlink:href="#m9b29d097c2" x="45.478125" y="228.260412" style="stroke: #000000; stroke-width: 0.6"/>
      </g>
     </g>
    </g>
    <g id="ytick_18">
     <g id="line2d_71">
      <g>
       <use xlink:href="#m9b29d097c2" x="45.478125" y="220.324444" style="stroke: #000000; stroke-width: 0.6"/>
      </g>
     </g>
    </g>
    <g id="ytick_19">
     <g id="line2d_72">
      <g>
       <use xlink:href="#m9b29d097c2" x="45.478125" y="214.168828" style="stroke: #000000; stroke-width: 0.6"/>
      </g>
     </g>
    </g>
    <g id="ytick_20">
     <g id="line2d_73">
      <g>
       <use xlink:href="#m9b29d097c2" x="45.478125" y="209.139324" style="stroke: #000000; stroke-width: 0.6"/>
      </g>
     </g>
    </g>
    <g id="ytick_21">
     <g id="line2d_74">
      <g>
       <use xlink:href="#m9b29d097c2" x="45.478125" y="204.886939" style="stroke: #000000; stroke-width: 0.6"/>
      </g>
     </g>
    </g>
    <g id="ytick_22">
     <g id="line2d_75">
      <g>
       <use xlink:href="#m9b29d097c2" x="45.478125" y="201.203355" style="stroke: #000000; stroke-width: 0.6"/>
      </g>
     </g>
    </g>
    <g id="ytick_23">
     <g id="line2d_76">
      <g>
       <use xlink:href="#m9b29d097c2" x="45.478125" y="197.954204" style="stroke: #000000; stroke-width: 0.6"/>
      </g>
     </g>
    </g>
    <g id="ytick_24">
     <g id="line2d_77">
      <g>
       <use xlink:href="#m9b29d097c2" x="45.478125" y="175.926651" style="stroke: #000000; stroke-width: 0.6"/>
      </g>
     </g>
    </g>
    <g id="ytick_25">
     <g id="line2d_78">
      <g>
       <use xlink:href="#m9b29d097c2" x="45.478125" y="164.741531" style="stroke: #000000; stroke-width: 0.6"/>
      </g>
     </g>
    </g>
    <g id="ytick_26">
     <g id="line2d_79">
      <g>
       <use xlink:href="#m9b29d097c2" x="45.478125" y="156.805563" style="stroke: #000000; stroke-width: 0.6"/>
      </g>
     </g>
    </g>
    <g id="ytick_27">
     <g id="line2d_80">
      <g>
       <use xlink:href="#m9b29d097c2" x="45.478125" y="150.649947" style="stroke: #000000; stroke-width: 0.6"/>
      </g>
     </g>
    </g>
    <g id="ytick_28">
     <g id="line2d_81">
      <g>
       <use xlink:href="#m9b29d097c2" x="45.478125" y="145.620443" style="stroke: #000000; stroke-width: 0.6"/>
      </g>
     </g>
    </g>
    <g id="ytick_29">
     <g id="line2d_82">
      <g>
       <use xlink:href="#m9b29d097c2" x="45.478125" y="141.368058" style="stroke: #000000; stroke-width: 0.6"/>
      </g>
     </g>
    </g>
    <g id="ytick_30">
     <g id="line2d_83">
      <g>
       <use xlink:href="#m9b29d097c2" x="45.478125" y="137.684474" style="stroke: #000000; stroke-width: 0.6"/>
      </g>
     </g>
    </g>
    <g id="ytick_31">
     <g id="line2d_84">
      <g>
       <use xlink:href="#m9b29d097c2" x="45.478125" y="134.435323" style="stroke: #000000; stroke-width: 0.6"/>
      </g>
     </g>
    </g>
    <g id="ytick_32">
     <g id="line2d_85">
      <g>
       <use xlink:href="#m9b29d097c2" x="45.478125" y="112.40777" style="stroke: #000000; stroke-width: 0.6"/>
      </g>
     </g>
    </g>
    <g id="ytick_33">
     <g id="line2d_86">
      <g>
       <use xlink:href="#m9b29d097c2" x="45.478125" y="101.22265" style="stroke: #000000; stroke-width: 0.6"/>
      </g>
     </g>
    </g>
    <g id="ytick_34">
     <g id="line2d_87">
      <g>
       <use xlink:href="#m9b29d097c2" x="45.478125" y="93.286681" style="stroke: #000000; stroke-width: 0.6"/>
      </g>
     </g>
    </g>
    <g id="ytick_35">
     <g id="line2d_88">
      <g>
       <use xlink:href="#m9b29d097c2" x="45.478125" y="87.131066" style="stroke: #000000; stroke-width: 0.6"/>
      </g>
     </g>
    </g>
    <g id="ytick_36">
     <g id="line2d_89">
      <g>
       <use xlink:href="#m9b29d097c2" x="45.478125" y="82.101562" style="stroke: #000000; stroke-width: 0.6"/>
      </g>
     </g>
    </g>
    <g id="ytick_37">
     <g id="line2d_90">
      <g>
       <use xlink:href="#m9b29d097c2" x="45.478125" y="77.849176" style="stroke: #000000; stroke-width: 0.6"/>
      </g>
     </g>
    </g>
    <g id="ytick_38">
     <g id="line2d_91">
      <g>
       <use xlink:href="#m9b29d097c2" x="45.478125" y="74.165593" style="stroke: #000000; stroke-width: 0.6"/>
      </g>
     </g>
    </g>
    <g id="ytick_39">
     <g id="line2d_92">
      <g>
       <use xlink:href="#m9b29d097c2" x="45.478125" y="70.916442" style="stroke: #000000; stroke-width: 0.6"/>
      </g>
     </g>
    </g>
    <g id="ytick_40">
     <g id="line2d_93">
      <g>
       <use xlink:href="#m9b29d097c2" x="45.478125" y="48.888889" style="stroke: #000000; stroke-width: 0.6"/>
      </g>
     </g>
    </g>
    <g id="ytick_41">
     <g id="line2d_94">
      <g>
       <use xlink:href="#m9b29d097c2" x="45.478125" y="37.703769" style="stroke: #000000; stroke-width: 0.6"/>
      </g>
     </g>
    </g>
    <g id="ytick_42">
     <g id="line2d_95">
      <g>
       <use xlink:href="#m9b29d097c2" x="45.478125" y="29.7678" style="stroke: #000000; stroke-width: 0.6"/>
      </g>
     </g>
    </g>
    <g id="ytick_43">
     <g id="line2d_96">
      <g>
       <use xlink:href="#m9b29d097c2" x="45.478125" y="23.612185" style="stroke: #000000; stroke-width: 0.6"/>
      </g>
     </g>
    </g>
    <g id="text_31">
     <!-- Mean hourly load (log scale) -->
     <g transform="translate(14.798438 247.455697) rotate(-90) scale(0.1 -0.1)">
      <defs>
       <path id="DejaVuSans-4d" d="M 628 4666 
L 1569 4666 
L 2759 1491 
L 3956 4666 
L 4897 4666 
L 4897 0 
L 4281 0 
L 4281 4097 
L 3078 897 
L 2444 897 
L 1241 4097 
L 1241 0 
L 628 0 
L 628 4666 
z
" transform="scale(0.015625)"/>
       <path id="DejaVuSans-65" d="M 3597 1894 
L 3597 1613 
L 953 1613 
Q 991 1019 1311 708 
Q 1631 397 2203 397 
Q 2534 397 2845 478 
Q 3156 559 3463 722 
L 3463 178 
Q 3153 47 2828 -22 
Q 2503 -91 2169 -91 
Q 1331 -91 842 396 
Q 353 884 353 1716 
Q 353 2575 817 3079 
Q 1281 3584 2069 3584 
Q 2775 3584 3186 3129 
Q 3597 2675 3597 1894 
z
M 3022 2063 
Q 3016 2534 2758 2815 
Q 2500 3097 2075 3097 
Q 1594 3097 1305 2825 
Q 1016 2553 972 2059 
L 3022 2063 
z
" transform="scale(0.015625)"/>
       <path id="DejaVuSans-6e" d="M 3513 2113 
L 3513 0 
L 2938 0 
L 2938 2094 
Q 2938 2591 2744 2837 
Q 2550 3084 2163 3084 
Q 1697 3084 1428 2787 
Q 1159 2491 1159 1978 
L 1159 0 
L 581 0 
L 581 3500 
L 1159 3500 
L 1159 2956 
Q 1366 3272 1645 3428 
Q 1925 3584 2291 3584 
Q 2894 3584 3203 3211 
Q 3513 2838 3513 2113 
z
" transform="scale(0.015625)"/>
       <path id="DejaVuSans-68" d="M 3513 2113 
L 3513 0 
L 2938 0 
L 2938 2094 
Q 2938 2591 2744 2837 
Q 2550 3084 2163 3084 
Q 1697 3084 1428 2787 
Q 1159 2491 1159 1978 
L 1159 0 
L 581 0 
L 581 4863 
L 1159 4863 
L 1159 2956 
Q 1366 3272 1645 3428 
Q 1925 3584 2291 3584 
Q 2894 3584 3203 3211 
Q 3513 2838 3513 2113 
z
" transform="scale(0.015625)"/>
       <path id="DejaVuSans-6c" d="M 603 4863 
L 1178 4863 
L 1178 0 
L 603 0 
L 603 4863 
z
" transform="scale(0.015625)"/>
       <path id="DejaVuSans-28" d="M 1984 4856 
Q 1566 4138 1362 3434 
Q 1159 2731 1159 2009 
Q 1159 1288 1364 580 
Q 1569 -128 1984 -844 
L 1484 -844 
Q 1016 -109 783 600 
Q 550 1309 550 2009 
Q 550 2706 781 3412 
Q 1013 4119 1484 4856 
L 1984 4856 
z
" transform="scale(0.015625)"/>
       <path id="DejaVuSans-67" d="M 2906 1791 
Q 2906 2416 2648 2759 
Q 2391 3103 1925 3103 
Q 1463 3103 1205 2759 
Q 947 2416 947 1791 
Q 947 1169 1205 825 
Q 1463 481 1925 481 
Q 2391 481 2648 825 
Q 2906 1169 2906 1791 
z
M 3481 434 
Q 3481 -459 3084 -895 
Q 2688 -1331 1869 -1331 
Q 1566 -1331 1297 -1286 
Q 1028 -1241 775 -1147 
L 775 -588 
Q 1028 -725 1275 -790 
Q 1522 -856 1778 -856 
Q 2344 -856 2625 -561 
Q 2906 -266 2906 331 
L 2906 616 
Q 2728 306 2450 153 
Q 2172 0 1784 0 
Q 1141 0 747 490 
Q 353 981 353 1791 
Q 353 2603 747 3093 
Q 1141 3584 1784 3584 
Q 2172 3584 2450 3431 
Q 2728 3278 2906 2969 
L 2906 3500 
L 3481 3500 
L 3481 434 
z
" transform="scale(0.015625)"/>
       <path id="DejaVuSans-73" d="M 2834 3397 
L 2834 2853 
Q 2591 2978 2328 3040 
Q 2066 3103 1784 3103 
Q 1356 3103 1142 2972 
Q 928 2841 928 2578 
Q 928 2378 1081 2264 
Q 1234 2150 1697 2047 
L 1894 2003 
Q 2506 1872 2764 1633 
Q 3022 1394 3022 966 
Q 3022 478 2636 193 
Q 2250 -91 1575 -91 
Q 1294 -91 989 -36 
Q 684 19 347 128 
L 347 722 
Q 666 556 975 473 
Q 1284 391 1588 391 
Q 1994 391 2212 530 
Q 2431 669 2431 922 
Q 2431 1156 2273 1281 
Q 2116 1406 1581 1522 
L 1381 1569 
Q 847 1681 609 1914 
Q 372 2147 372 2553 
Q 372 3047 722 3315 
Q 1072 3584 1716 3584 
Q 2034 3584 2315 3537 
Q 2597 3491 2834 3397 
z
" transform="scale(0.015625)"/>
       <path id="DejaVuSans-63" d="M 3122 3366 
L 3122 2828 
Q 2878 2963 2633 3030 
Q 2388 3097 2138 3097 
Q 1578 3097 1268 2742 
Q 959 2388 959 1747 
Q 959 1106 1268 751 
Q 1578 397 2138 397 
Q 2388 397 2633 464 
Q 2878 531 3122 666 
L 3122 134 
Q 2881 22 2623 -34 
Q 2366 -91 2075 -91 
Q 1284 -91 818 406 
Q 353 903 353 1747 
Q 353 2603 823 3093 
Q 1294 3584 2113 3584 
Q 2378 3584 2631 3529 
Q 2884 3475 3122 3366 
z
" transform="scale(0.015625)"/>
       <path id="DejaVuSans-29" d="M 513 4856 
L 1013 4856 
Q 1481 4119 1714 3412 
Q 1947 2706 1947 2009 
Q 1947 1309 1714 600 
Q 1481 -109 1013 -844 
L 513 -844 
Q 928 -128 1133 580 
Q 1338 1288 1338 2009 
Q 1338 2731 1133 3434 
Q 928 4138 513 4856 
z
" transform="scale(0.015625)"/>
      </defs>
      <use xlink:href="#DejaVuSans-4d"/>
      <use xlink:href="#DejaVuSans-65" transform="translate(86.279297 0)"/>
      <use xlink:href="#DejaVuSans-61" transform="translate(147.802734 0)"/>
      <use xlink:href="#DejaVuSans-6e" transform="translate(209.082031 0)"/>
      <use xlink:href="#DejaVuSans-20" transform="translate(272.460938 0)"/>
      <use xlink:href="#DejaVuSans-68" transform="translate(304.248047 0)"/>
      <use xlink:href="#DejaVuSans-6f" transform="translate(367.626953 0)"/>
      <use xlink:href="#DejaVuSans-75" transform="translate(428.808594 0)"/>
      <use xlink:href="#DejaVuSans-72" transform="translate(492.1875 0)"/>
      <use xlink:href="#DejaVuSans-6c" transform="translate(533.300781 0)"/>
      <use xlink:href="#DejaVuSans-79" transform="translate(561.083984 0)"/>
      <use xlink:href="#DejaVuSans-20" transform="translate(620.263672 0)"/>
      <use xlink:href="#DejaVuSans-6c" transform="translate(652.050781 0)"/>
      <use xlink:href="#DejaVuSans-6f" transform="translate(679.833984 0)"/>
      <use xlink:href="#DejaVuSans-61" transform="translate(741.015625 0)"/>
      <use xlink:href="#DejaVuSans-64" transform="translate(802.294922 0)"/>
      <use xlink:href="#DejaVuSans-20" transform="translate(865.771484 0)"/>
      <use xlink:href="#DejaVuSans-28" transform="translate(897.558594 0)"/>
      <use xlink:href="#DejaVuSans-6c" transform="translate(936.572266 0)"/>
      <use xlink:href="#DejaVuSans-6f" transform="translate(964.355469 0)"/>
      <use xlink:href="#DejaVuSans-67" transform="translate(1025.537109 0)"/>
      <use xlink:href="#DejaVuSans-20" transform="translate(1089.013672 0)"/>
      <use xlink:href="#DejaVuSans-73" transform="translate(1120.800781 0)"/>
      <use xlink:href="#DejaVuSans-63" transform="translate(1172.900391 0)"/>
      <use xlink:href="#DejaVuSans-61" transform="translate(1227.880859 0)"/>
      <use xlink:href="#DejaVuSans-6c" transform="translate(1289.160156 0)"/>
      <use xlink:href="#DejaVuSans-65" transform="translate(1316.943359 0)"/>
      <use xlink:href="#DejaVuSans-29" transform="translate(1378.466797 0)"/>
     </g>
    </g>
   </g>
   <g id="line2d_97">
    <path d="M 82.738188 260.803165 
L 115.138244 263.301007 
L 147.538299 265.032415 
L 179.938354 268.391849 
L 212.338409 271.078584 
L 244.738464 272.569038 
L 277.138519 273.515272 
L 309.538574 270.404104 
L 341.93863 259.310282 
L 374.338685 256.24465 
L 406.73874 257.799294 
L 439.138795 258.467932 
L 471.53885 262.819692 
L 503.938905 260.348709 
L 536.33896 259.922291 
L 568.739015 262.4468 
L 601.139071 263.865481 
L 633.539126 265.179125 
L 665.939181 265.481724 
L 698.339236 263.512711 
L 730.739291 259.145727 
L 763.139346 256.315789 
L 795.539401 256.254485 
L 827.939457 257.996957 
" clip-path="url(#p58337e2653)" style="fill: none; stroke: #1f77b4; stroke-width: 2; stroke-linecap: square"/>
   </g>
   <g id="line2d_98">
    <path d="M 82.738188 213.418616 
L 115.138244 215.943847 
L 147.538299 217.143551 
L 179.938354 217.516843 
L 212.338409 217.953749 
L 244.738464 218.891333 
L 277.138519 220.525691 
L 309.538574 219.47673 
L 341.93863 214.799827 
L 374.338685 211.484078 
L 406.73874 209.875752 
L 439.138795 207.976008 
L 471.53885 207.57904 
L 503.938905 210.18342 
L 536.33896 209.961411 
L 568.739015 209.584462 
L 601.139071 209.911262 
L 633.539126 208.994401 
L 665.939181 205.920646 
L 698.339236 202.221007 
L 730.739291 201.384625 
L 763.139346 202.474063 
L 795.539401 204.877519 
L 827.939457 208.833544 
" clip-path="url(#p58337e2653)" style="fill: none; stroke: #ff7f0e; stroke-width: 2; stroke-linecap: square"/>
   </g>
   <g id="line2d_99">
    <path d="M 82.738188 179.296674 
L 115.138244 182.86663 
L 147.538299 183.724014 
L 179.938354 184.259935 
L 212.338409 183.933123 
L 244.738464 181.640364 
L 277.138519 176.325741 
L 309.538574 172.005282 
L 341.93863 170.478852 
L 374.338685 165.877938 
L 406.73874 164.344257 
L 439.138795 163.672002 
L 471.53885 163.23444 
L 503.938905 162.924465 
L 536.33896 162.990528 
L 568.739015 162.732748 
L 601.139071 162.409998 
L 633.539126 162.211278 
L 665.939181 162.313666 
L 698.339236 162.868114 
L 730.739291 163.945048 
L 763.139346 165.076235 
L 795.539401 168.028765 
L 827.939457 173.435348 
" clip-path="url(#p58337e2653)" style="fill: none; stroke: #2ca02c; stroke-width: 2; stroke-linecap: square"/>
   </g>
   <g id="line2d_100">
    <path d="M 82.738188 182.322584 
L 115.138244 193.534608 
L 147.538299 195.213283 
L 179.938354 197.178005 
L 212.338409 198.854691 
L 244.738464 198.119308 
L 277.138519 195.346927 
L 309.538574 193.180676 
L 341.93863 187.70514 
L 374.338685 172.470762 
L 406.73874 159.367475 
L 439.138795 155.575247 
L 471.53885 154.023922 
L 503.938905 152.87977 
L 536.33896 152.610624 
L 568.739015 152.345677 
L 601.139071 152.123152 
L 633.539126 151.844184 
L 665.939181 151.686328 
L 698.339236 151.937738 
L 730.739291 152.192246 
L 763.139346 153.189764 
L 795.539401 158.969343 
L 827.939457 168.874769 
" clip-path="url(#p58337e2653)" style="fill: none; stroke: #d62728; stroke-width: 2; stroke-linecap: square"/>
   </g>
   <g id="line2d_101">
    <path d="M 82.738188 313.851583 
L 115.138244 313.658398 
L 147.538299 313.298779 
L 179.938354 313.613696 
L 212.338409 313.620464 
L 244.738464 313.492148 
L 277.138519 313.253319 
L 309.538574 316.8194 
L 341.93863 286.876391 
L 374.338685 257.600048 
L 406.73874 241.227492 
L 439.138795 237.974917 
L 471.53885 274.650138 
L 503.938905 228.602758 
L 536.33896 219.135436 
L 568.739015 219.713904 
L 601.139071 219.80061 
L 633.539126 248.955854 
L 665.939181 259.275809 
L 698.339236 299.054534 
L 730.739291 314.113583 
L 763.139346 311.907971 
L 795.539401 311.756975 
L 827.939457 312.528166 
" clip-path="url(#p58337e2653)" style="fill: none; stroke: #9467bd; stroke-width: 2; stroke-linecap: square"/>
   </g>
   <g id="line2d_102">
    <path d="M 82.738188 251.466339 
L 115.138244 253.598532 
L 147.538299 254.344142 
L 179.938354 254.867143 
L 212.338409 254.362433 
L 244.738464 254.362433 
L 277.138519 257.145162 
L 309.538574 270.258099 
L 341.93863 286.101916 
L 374.338685 286.185559 
L 406.73874 290.426133 
L 439.138795 289.677417 
L 471.53885 289.177357 
L 503.938905 287.39072 
L 536.33896 285.788909 
L 568.739015 286.101916 
L 601.139071 286.483578 
L 633.539126 286.386043 
L 665.939181 286.607618 
L 698.339236 287.303348 
L 730.739291 287.559524 
L 763.139346 286.883808 
L 795.539401 286.745367 
L 827.939457 286.192003 
" clip-path="url(#p58337e2653)" style="fill: none; stroke: #8c564b; stroke-width: 2; stroke-linecap: square"/>
   </g>
   <g id="line2d_103">
    <path d="M 82.738188 61.145375 
L 115.138244 73.744254 
L 147.538299 76.931496 
L 179.938354 79.597359 
L 212.338409 83.892647 
L 244.738464 85.118944 
L 277.138519 86.135774 
L 309.538574 85.934483 
L 341.93863 81.782485 
L 374.338685 56.399467 
L 406.73874 42.653191 
L 439.138795 39.047415 
L 471.53885 37.914749 
L 503.938905 37.33543 
L 536.33896 36.969016 
L 568.739015 36.522891 
L 601.139071 36.346055 
L 633.539126 36.373745 
L 665.939181 36.341995 
L 698.339236 36.90073 
L 730.739291 37.730534 
L 763.139346 39.018353 
L 795.539401 40.747193 
L 827.939457 49.135616 
" clip-path="url(#p58337e2653)" style="fill: none; stroke: #e377c2; stroke-width: 2; stroke-linecap: square"/>
   </g>
   <g id="line2d_104">
    <path d="M 82.738188 169.137803 
L 115.138244 169.328283 
L 147.538299 170.190999 
L 179.938354 171.367446 
L 212.338409 171.748221 
L 244.738464 171.929039 
L 277.138519 171.667058 
L 309.538574 171.208437 
L 341.93863 170.250677 
L 374.338685 169.449333 
L 406.73874 169.120609 
L 439.138795 168.639571 
L 471.53885 168.280392 
L 503.938905 168.496908 
L 536.33896 168.277279 
L 568.739015 167.902423 
L 601.139071 167.617862 
L 633.539126 167.761847 
L 665.939181 167.308319 
L 698.339236 167.73599 
L 730.739291 168.859097 
L 763.139346 169.031566 
L 795.539401 168.595875 
L 827.939457 168.645873 
" clip-path="url(#p58337e2653)" style="fill: none; stroke: #7f7f7f; stroke-width: 2; stroke-linecap: square"/>
   </g>
   <g id="line2d_105">
    <path d="M 82.738188 222.599968 
L 115.138244 242.485368 
L 147.538299 243.848519 
L 179.938354 243.237687 
L 212.338409 238.340492 
L 244.738464 233.295137 
L 277.138519 229.81082 
L 309.538574 239.299601 
L 341.93863 251.682357 
L 374.338685 257.067222 
L 406.73874 264.474127 
L 439.138795 265.052149 
L 471.53885 266.009587 
L 503.938905 261.41725 
L 536.33896 256.900604 
L 568.739015 263.061898 
L 601.139071 262.003267 
L 633.539126 260.633595 
L 665.939181 259.334183 
L 698.339236 261.146425 
L 730.739291 260.87982 
L 763.139346 261.851421 
L 795.539401 253.756746 
L 827.939457 258.906466 
" clip-path="url(#p58337e2653)" style="fill: none; stroke: #bcbd22; stroke-width: 2; stroke-linecap: square"/>
   </g>
   <g id="line2d_106">
    <path d="M 82.738188 304.874551 
L 115.138244 304.62426 
L 147.538299 304.872087 
L 179.938354 304.859765 
L 212.338409 304.504824 
L 244.738464 304.749122 
L 277.138519 305.449927 
L 309.538574 305.424769 
L 341.93863 301.54199 
L 374.338685 292.629561 
L 406.73874 301.655819 
L 439.138795 302.499953 
L 471.53885 305.535637 
L 503.938905 306.480769 
L 536.33896 303.345072 
L 568.739015 304.15199 
L 601.139071 307.042984 
L 633.539126 305.657094 
L 665.939181 304.398015 
L 698.339236 306.184506 
L 730.739291 305.538162 
L 763.139346 303.073562 
L 795.539401 303.687671 
L 827.939457 303.149871 
" clip-path="url(#p58337e2653)" style="fill: none; stroke: #17becf; stroke-width: 2; stroke-linecap: square"/>
   </g>
   <g id="line2d_107">
    <path d="M 82.738188 210.444136 
L 115.138244 211.010118 
L 147.538299 219.365936 
L 179.938354 226.115615 
L 212.338409 228.050951 
L 244.738464 230.620187 
L 277.138519 229.803859 
L 309.538574 228.410264 
L 341.93863 220.875526 
L 374.338685 219.754466 
L 406.73874 222.38523 
L 439.138795 222.510279 
L 471.53885 220.676611 
L 503.938905 221.667081 
L 536.33896 221.032307 
L 568.739015 220.29268 
L 601.139071 217.605256 
L 633.539126 215.911865 
L 665.939181 214.143321 
L 698.339236 212.744141 
L 730.739291 213.625216 
L 763.139346 211.51986 
L 795.539401 210.26801 
L 827.939457 210.744041 
" clip-path="url(#p58337e2653)" style="fill: none; stroke: #1f77b4; stroke-width: 2; stroke-linecap: square"/>
   </g>
   <g id="line2d_108">
    <path d="M 82.738188 226.957197 
L 115.138244 228.939544 
L 147.538299 229.803628 
L 179.938354 230.412357 
L 212.338409 230.945658 
L 244.738464 231.115873 
L 277.138519 226.061295 
L 309.538574 222.621409 
L 341.93863 220.919339 
L 374.338685 217.915272 
L 406.73874 215.886558 
L 439.138795 215.803574 
L 471.53885 215.50039 
L 503.938905 215.32721 
L 536.33896 215.126866 
L 568.739015 216.484314 
L 601.139071 216.843853 
L 633.539126 216.593711 
L 665.939181 214.859141 
L 698.339236 213.775589 
L 730.739291 214.119003 
L 763.139346 215.530321 
L 795.539401 219.763744 
L 827.939457 225.307959 
" clip-path="url(#p58337e2653)" style="fill: none; stroke: #ff7f0e; stroke-width: 2; stroke-linecap: square"/>
   </g>
   <g id="line2d_109">
    <path d="M 82.738188 231.63201 
L 115.138244 232.837433 
L 147.538299 233.681057 
L 179.938354 234.187239 
L 212.338409 234.479764 
L 244.738464 233.913499 
L 277.138519 230.461068 
L 309.538574 225.982757 
L 341.93863 218.755476 
L 374.338685 213.800562 
L 406.73874 212.948305 
L 439.138795 212.340588 
L 471.53885 212.750728 
L 503.938905 214.534571 
L 536.33896 213.730085 
L 568.739015 213.725311 
L 601.139071 213.881072 
L 633.539126 214.543869 
L 665.939181 216.181951 
L 698.339236 218.523691 
L 730.739291 220.860699 
L 763.139346 223.026812 
L 795.539401 225.965763 
L 827.939457 228.407338 
" clip-path="url(#p58337e2653)" style="fill: none; stroke: #2ca02c; stroke-width: 2; stroke-linecap: square"/>
   </g>
   <g id="patch_3">
    <path d="M 45.478125 330.84327 
L 45.478125 22.318125 
" style="fill: none; stroke: #000000; stroke-width: 0.8; stroke-linejoin: miter; stroke-linecap: square"/>
   </g>
   <g id="patch_4">
    <path d="M 865.19952 330.84327 
L 865.19952 22.318125 
" style="fill: none; stroke: #000000; stroke-width: 0.8; stroke-linejoin: miter; stroke-linecap: square"/>
   </g>
   <g id="patch_5">
    <path d="M 45.478125 330.84327 
L 865.19952 330.84327 
" style="fill: none; stroke: #000000; stroke-width: 0.8; stroke-linejoin: miter; stroke-linecap: square"/>
   </g>
   <g id="patch_6">
    <path d="M 45.478125 22.318125 
L 865.19952 22.318125 
" style="fill: none; stroke: #000000; stroke-width: 0.8; stroke-linejoin: miter; stroke-linecap: square"/>
   </g>
   <g id="text_32">
    <!-- Hour-of-day profile by cluster (train hourly mean) -->
    <g transform="translate(307.556947 16.318125) scale(0.12 -0.12)">
     <defs>
      <path id="DejaVuSans-2d" d="M 313 2009 
L 1997 2009 
L 1997 1497 
L 313 1497 
L 313 2009 
z
" transform="scale(0.015625)"/>
      <path id="DejaVuSans-70" d="M 1159 525 
L 1159 -1331 
L 581 -1331 
L 581 3500 
L 1159 3500 
L 1159 2969 
Q 1341 3281 1617 3432 
Q 1894 3584 2278 3584 
Q 2916 3584 3314 3078 
Q 3713 2572 3713 1747 
Q 3713 922 3314 415 
Q 2916 -91 2278 -91 
Q 1894 -91 1617 61 
Q 1341 213 1159 525 
z
M 3116 1747 
Q 3116 2381 2855 2742 
Q 2594 3103 2138 3103 
Q 1681 3103 1420 2742 
Q 1159 2381 1159 1747 
Q 1159 1113 1420 752 
Q 1681 391 2138 391 
Q 2594 391 2855 752 
Q 3116 1113 3116 1747 
z
" transform="scale(0.015625)"/>
      <path id="DejaVuSans-69" d="M 603 3500 
L 1178 3500 
L 1178 0 
L 603 0 
L 603 3500 
z
M 603 4863 
L 1178 4863 
L 1178 4134 
L 603 4134 
L 603 4863 
z
" transform="scale(0.015625)"/>
      <path id="DejaVuSans-62" d="M 3116 1747 
Q 3116 2381 2855 2742 
Q 2594 3103 2138 3103 
Q 1681 3103 1420 2742 
Q 1159 2381 1159 1747 
Q 1159 1113 1420 752 
Q 1681 391 2138 391 
Q 2594 391 2855 752 
Q 3116 1113 3116 1747 
z
M 1159 2969 
Q 1341 3281 1617 3432 
Q 1894 3584 2278 3584 
Q 2916 3584 3314 3078 
Q 3713 2572 3713 1747 
Q 3713 922 3314 415 
Q 2916 -91 2278 -91 
Q 1894 -91 1617 61 
Q 1341 213 1159 525 
L 1159 0 
L 581 0 
L 581 4863 
L 1159 4863 
L 1159 2969 
z
" transform="scale(0.015625)"/>
      <path id="DejaVuSans-74" d="M 1172 4494 
L 1172 3500 
L 2356 3500 
L 2356 3053 
L 1172 3053 
L 1172 1153 
Q 1172 725 1289 603 
Q 1406 481 1766 481 
L 2356 481 
L 2356 0 
L 1766 0 
Q 1100 0 847 248 
Q 594 497 594 1153 
L 594 3053 
L 172 3053 
L 172 3500 
L 594 3500 
L 594 4494 
L 1172 4494 
z
" transform="scale(0.015625)"/>
      <path id="DejaVuSans-6d" d="M 3328 2828 
Q 3544 3216 3844 3400 
Q 4144 3584 4550 3584 
Q 5097 3584 5394 3201 
Q 5691 2819 5691 2113 
L 5691 0 
L 5113 0 
L 5113 2094 
Q 5113 2597 4934 2840 
Q 4756 3084 4391 3084 
Q 3944 3084 3684 2787 
Q 3425 2491 3425 1978 
L 3425 0 
L 2847 0 
L 2847 2094 
Q 2847 2600 2669 2842 
Q 2491 3084 2119 3084 
Q 1678 3084 1418 2786 
Q 1159 2488 1159 1978 
L 1159 0 
L 581 0 
L 581 3500 
L 1159 3500 
L 1159 2956 
Q 1356 3278 1631 3431 
Q 1906 3584 2284 3584 
Q 2666 3584 2933 3390 
Q 3200 3197 3328 2828 
z
" transform="scale(0.015625)"/>
     </defs>
     <use xlink:href="#DejaVuSans-48"/>
     <use xlink:href="#DejaVuSans-6f" transform="translate(75.195312 0)"/>
     <use xlink:href="#DejaVuSans-75" transform="translate(136.376953 0)"/>
     <use xlink:href="#DejaVuSans-72" transform="translate(199.755859 0)"/>
     <use xlink:href="#DejaVuSans-2d" transform="translate(234.494141 0)"/>
     <use xlink:href="#DejaVuSans-6f" transform="translate(272.453125 0)"/>
     <use xlink:href="#DejaVuSans-66" transform="translate(333.634766 0)"/>
     <use xlink:href="#DejaVuSans-2d" transform="translate(363.339844 0)"/>
     <use xlink:href="#DejaVuSans-64" transform="translate(399.423828 0)"/>
     <use xlink:href="#DejaVuSans-61" transform="translate(462.900391 0)"/>
     <use xlink:href="#DejaVuSans-79" transform="translate(524.179688 0)"/>
     <use xlink:href="#DejaVuSans-20" transform="translate(583.359375 0)"/>
     <use xlink:href="#DejaVuSans-70" transform="translate(615.146484 0)"/>
     <use xlink:href="#DejaVuSans-72" transform="translate(678.623047 0)"/>
     <use xlink:href="#DejaVuSans-6f" transform="translate(717.486328 0)"/>
     <use xlink:href="#DejaVuSans-66" transform="translate(778.667969 0)"/>
     <use xlink:href="#DejaVuSans-69" transform="translate(813.873047 0)"/>
     <use xlink:href="#DejaVuSans-6c" transform="translate(841.65625 0)"/>
     <use xlink:href="#DejaVuSans-65" transform="translate(869.439453 0)"/>
     <use xlink:href="#DejaVuSans-20" transform="translate(930.962891 0)"/>
     <use xlink:href="#DejaVuSans-62" transform="translate(962.75 0)"/>
     <use xlink:href="#DejaVuSans-79" transform="translate(1026.226562 0)"/>
     <use xlink:href="#DejaVuSans-20" transform="translate(1085.40625 0)"/>
     <use xlink:href="#DejaVuSans-63" transform="translate(1117.193359 0)"/>
     <use xlink:href="#DejaVuSans-6c" transform="translate(1172.173828 0)"/>
     <use xlink:href="#DejaVuSans-75" transform="translate(1199.957031 0)"/>
     <use xlink:href="#DejaVuSans-73" transform="translate(1263.335938 0)"/>
     <use xlink:href="#DejaVuSans-74" transform="translate(1315.435547 0)"/>
     <use xlink:href="#DejaVuSans-65" transform="translate(1354.644531 0)"/>
     <use xlink:href="#DejaVuSans-72" transform="translate(1416.167969 0)"/>
     <use xlink:href="#DejaVuSans-20" transform="translate(1457.28125 0)"/>
     <use xlink:href="#DejaVuSans-28" transform="translate(1489.068359 0)"/>
     <use xlink:href="#DejaVuSans-74" transform="translate(1528.082031 0)"/>
     <use xlink:href="#DejaVuSans-72" transform="translate(1567.291016 0)"/>
     <use xlink:href="#DejaVuSans-61" transform="translate(1608.404297 0)"/>
     <use xlink:href="#DejaVuSans-69" transform="translate(1669.683594 0)"/>
     <use xlink:href="#DejaVuSans-6e" transform="translate(1697.466797 0)"/>
     <use xlink:href="#DejaVuSans-20" transform="translate(1760.845703 0)"/>
     <use xlink:href="#DejaVuSans-68" transform="translate(1792.632812 0)"/>
     <use xlink:href="#DejaVuSans-6f" transform="translate(1856.011719 0)"/>
     <use xlink:href="#DejaVuSans-75" transform="translate(1917.193359 0)"/>
     <use xlink:href="#DejaVuSans-72" transform="translate(1980.572266 0)"/>
     <use xlink:href="#DejaVuSans-6c" transform="translate(2021.685547 0)"/>
     <use xlink:href="#DejaVuSans-79" transform="translate(2049.46875 0)"/>
     <use xlink:href="#DejaVuSans-20" transform="translate(2108.648438 0)"/>
     <use xlink:href="#DejaVuSans-6d" transform="translate(2140.435547 0)"/>
     <use xlink:href="#DejaVuSans-65" transform="translate(2237.847656 0)"/>
     <use xlink:href="#DejaVuSans-61" transform="translate(2299.371094 0)"/>
     <use xlink:href="#DejaVuSans-6e" transform="translate(2360.650391 0)"/>
     <use xlink:href="#DejaVuSans-29" transform="translate(2424.029297 0)"/>
    </g>
   </g>
   <g id="legend_1">
    <g id="patch_7">
     <path d="M 736.38077 235.811875 
L 858.19952 235.811875 
Q 860.19952 235.811875 860.19952 233.811875 
L 860.19952 29.318125 
Q 860.19952 27.318125 858.19952 27.318125 
L 736.38077 27.318125 
Q 734.38077 27.318125 734.38077 29.318125 
L 734.38077 233.811875 
Q 734.38077 235.811875 736.38077 235.811875 
z
" style="fill: #ffffff; opacity: 0.8; stroke: #cccccc; stroke-linejoin: miter"/>
    </g>
    <g id="text_33">
     <!-- Cluster -->
     <g transform="translate(779.544051 38.916562) scale(0.1 -0.1)">
      <defs>
       <path id="DejaVuSans-43" d="M 4122 4306 
L 4122 3641 
Q 3803 3938 3442 4084 
Q 3081 4231 2675 4231 
Q 1875 4231 1450 3742 
Q 1025 3253 1025 2328 
Q 1025 1406 1450 917 
Q 1875 428 2675 428 
Q 3081 428 3442 575 
Q 3803 722 4122 1019 
L 4122 359 
Q 3791 134 3420 21 
Q 3050 -91 2638 -91 
Q 1578 -91 968 557 
Q 359 1206 359 2328 
Q 359 3453 968 4101 
Q 1578 4750 2638 4750 
Q 3056 4750 3426 4639 
Q 3797 4528 4122 4306 
z
" transform="scale(0.015625)"/>
      </defs>
      <use xlink:href="#DejaVuSans-43"/>
      <use xlink:href="#DejaVuSans-6c" transform="translate(69.824219 0)"/>
      <use xlink:href="#DejaVuSans-75" transform="translate(97.607422 0)"/>
      <use xlink:href="#DejaVuSans-73" transform="translate(160.986328 0)"/>
      <use xlink:href="#DejaVuSans-74" transform="translate(213.085938 0)"/>
      <use xlink:href="#DejaVuSans-65" transform="translate(252.294922 0)"/>
      <use xlink:href="#DejaVuSans-72" transform="translate(313.818359 0)"/>
     </g>
    </g>
    <g id="line2d_110">
     <path d="M 738.38077 50.094687 
L 748.38077 50.094687 
L 758.38077 50.094687 
" style="fill: none; stroke: #1f77b4; stroke-width: 2; stroke-linecap: square"/>
    </g>
    <g id="text_34">
     <!-- Cluster 0 (n=3) -->
     <g transform="translate(766.38077 53.594687) scale(0.1 -0.1)">
      <defs>
       <path id="DejaVuSans-3d" d="M 678 2906 
L 4684 2906 
L 4684 2381 
L 678 2381 
L 678 2906 
z
M 678 1631 
L 4684 1631 
L 4684 1100 
L 678 1100 
L 678 1631 
z
" transform="scale(0.015625)"/>
      </defs>
      <use xlink:href="#DejaVuSans-43"/>
      <use xlink:href="#DejaVuSans-6c" transform="translate(69.824219 0)"/>
      <use xlink:href="#DejaVuSans-75" transform="translate(97.607422 0)"/>
      <use xlink:href="#DejaVuSans-73" transform="translate(160.986328 0)"/>
      <use xlink:href="#DejaVuSans-74" transform="translate(213.085938 0)"/>
      <use xlink:href="#DejaVuSans-65" transform="translate(252.294922 0)"/>
      <use xlink:href="#DejaVuSans-72" transform="translate(313.818359 0)"/>
      <use xlink:href="#DejaVuSans-20" transform="translate(354.931641 0)"/>
      <use xlink:href="#DejaVuSans-30" transform="translate(386.71875 0)"/>
      <use xlink:href="#DejaVuSans-20" transform="translate(450.341797 0)"/>
      <use xlink:href="#DejaVuSans-28" transform="translate(482.128906 0)"/>
      <use xlink:href="#DejaVuSans-6e" transform="translate(521.142578 0)"/>
      <use xlink:href="#DejaVuSans-3d" transform="translate(584.521484 0)"/>
      <use xlink:href="#DejaVuSans-33" transform="translate(668.310547 0)"/>
      <use xlink:href="#DejaVuSans-29" transform="translate(731.933594 0)"/>
     </g>
    </g>
    <g id="line2d_111">
     <path d="M 738.38077 64.772812 
L 748.38077 64.772812 
L 758.38077 64.772812 
" style="fill: none; stroke: #ff7f0e; stroke-width: 2; stroke-linecap: square"/>
    </g>
    <g id="text_35">
     <!-- Cluster 1 (n=74) -->
     <g transform="translate(766.38077 68.272812) scale(0.1 -0.1)">
      <use xlink:href="#DejaVuSans-43"/>
      <use xlink:href="#DejaVuSans-6c" transform="translate(69.824219 0)"/>
      <use xlink:href="#DejaVuSans-75" transform="translate(97.607422 0)"/>
      <use xlink:href="#DejaVuSans-73" transform="translate(160.986328 0)"/>
      <use xlink:href="#DejaVuSans-74" transform="translate(213.085938 0)"/>
      <use xlink:href="#DejaVuSans-65" transform="translate(252.294922 0)"/>
      <use xlink:href="#DejaVuSans-72" transform="translate(313.818359 0)"/>
      <use xlink:href="#DejaVuSans-20" transform="translate(354.931641 0)"/>
      <use xlink:href="#DejaVuSans-31" transform="translate(386.71875 0)"/>
      <use xlink:href="#DejaVuSans-20" transform="translate(450.341797 0)"/>
      <use xlink:href="#DejaVuSans-28" transform="translate(482.128906 0)"/>
      <use xlink:href="#DejaVuSans-6e" transform="translate(521.142578 0)"/>
      <use xlink:href="#DejaVuSans-3d" transform="translate(584.521484 0)"/>
      <use xlink:href="#DejaVuSans-37" transform="translate(668.310547 0)"/>
      <use xlink:href="#DejaVuSans-34" transform="translate(731.933594 0)"/>
      <use xlink:href="#DejaVuSans-29" transform="translate(795.556641 0)"/>
     </g>
    </g>
    <g id="line2d_112">
     <path d="M 738.38077 79.450937 
L 748.38077 79.450937 
L 758.38077 79.450937 
" style="fill: none; stroke: #2ca02c; stroke-width: 2; stroke-linecap: square"/>
    </g>
    <g id="text_36">
     <!-- Cluster 2 (n=162) -->
     <g transform="translate(766.38077 82.950937) scale(0.1 -0.1)">
      <use xlink:href="#DejaVuSans-43"/>
      <use xlink:href="#DejaVuSans-6c" transform="translate(69.824219 0)"/>
      <use xlink:href="#DejaVuSans-75" transform="translate(97.607422 0)"/>
      <use xlink:href="#DejaVuSans-73" transform="translate(160.986328 0)"/>
      <use xlink:href="#DejaVuSans-74" transform="translate(213.085938 0)"/>
      <use xlink:href="#DejaVuSans-65" transform="translate(252.294922 0)"/>
      <use xlink:href="#DejaVuSans-72" transform="translate(313.818359 0)"/>
      <use xlink:href="#DejaVuSans-20" transform="translate(354.931641 0)"/>
      <use xlink:href="#DejaVuSans-32" transform="translate(386.71875 0)"/>
      <use xlink:href="#DejaVuSans-20" transform="translate(450.341797 0)"/>
      <use xlink:href="#DejaVuSans-28" transform="translate(482.128906 0)"/>
      <use xlink:href="#DejaVuSans-6e" transform="translate(521.142578 0)"/>
      <use xlink:href="#DejaVuSans-3d" transform="translate(584.521484 0)"/>
      <use xlink:href="#DejaVuSans-31" transform="translate(668.310547 0)"/>
      <use xlink:href="#DejaVuSans-36" transform="translate(731.933594 0)"/>
      <use xlink:href="#DejaVuSans-32" transform="translate(795.556641 0)"/>
      <use xlink:href="#DejaVuSans-29" transform="translate(859.179688 0)"/>
     </g>
    </g>
    <g id="line2d_113">
     <path d="M 738.38077 94.129062 
L 748.38077 94.129062 
L 758.38077 94.129062 
" style="fill: none; stroke: #d62728; stroke-width: 2; stroke-linecap: square"/>
    </g>
    <g id="text_37">
     <!-- Cluster 3 (n=31) -->
     <g transform="translate(766.38077 97.629062) scale(0.1 -0.1)">
      <use xlink:href="#DejaVuSans-43"/>
      <use xlink:href="#DejaVuSans-6c" transform="translate(69.824219 0)"/>
      <use xlink:href="#DejaVuSans-75" transform="translate(97.607422 0)"/>
      <use xlink:href="#DejaVuSans-73" transform="translate(160.986328 0)"/>
      <use xlink:href="#DejaVuSans-74" transform="translate(213.085938 0)"/>
      <use xlink:href="#DejaVuSans-65" transform="translate(252.294922 0)"/>
      <use xlink:href="#DejaVuSans-72" transform="translate(313.818359 0)"/>
      <use xlink:href="#DejaVuSans-20" transform="translate(354.931641 0)"/>
      <use xlink:href="#DejaVuSans-33" transform="translate(386.71875 0)"/>
      <use xlink:href="#DejaVuSans-20" transform="translate(450.341797 0)"/>
      <use xlink:href="#DejaVuSans-28" transform="translate(482.128906 0)"/>
      <use xlink:href="#DejaVuSans-6e" transform="translate(521.142578 0)"/>
      <use xlink:href="#DejaVuSans-3d" transform="translate(584.521484 0)"/>
      <use xlink:href="#DejaVuSans-33" transform="translate(668.310547 0)"/>
      <use xlink:href="#DejaVuSans-31" transform="translate(731.933594 0)"/>
      <use xlink:href="#DejaVuSans-29" transform="translate(795.556641 0)"/>
     </g>
    </g>
    <g id="line2d_114">
     <path d="M 738.38077 108.807187 
L 748.38077 108.807187 
L 758.38077 108.807187 
" style="fill: none; stroke: #9467bd; stroke-width: 2; stroke-linecap: square"/>
    </g>
    <g id="text_38">
     <!-- Cluster 4 (n=1) -->
     <g transform="translate(766.38077 112.307187) scale(0.1 -0.1)">
      <use xlink:href="#DejaVuSans-43"/>
      <use xlink:href="#DejaVuSans-6c" transform="translate(69.824219 0)"/>
      <use xlink:href="#DejaVuSans-75" transform="translate(97.607422 0)"/>
      <use xlink:href="#DejaVuSans-73" transform="translate(160.986328 0)"/>
      <use xlink:href="#DejaVuSans-74" transform="translate(213.085938 0)"/>
      <use xlink:href="#DejaVuSans-65" transform="translate(252.294922 0)"/>
      <use xlink:href="#DejaVuSans-72" transform="translate(313.818359 0)"/>
      <use xlink:href="#DejaVuSans-20" transform="translate(354.931641 0)"/>
      <use xlink:href="#DejaVuSans-34" transform="translate(386.71875 0)"/>
      <use xlink:href="#DejaVuSans-20" transform="translate(450.341797 0)"/>
      <use xlink:href="#DejaVuSans-28" transform="translate(482.128906 0)"/>
      <use xlink:href="#DejaVuSans-6e" transform="translate(521.142578 0)"/>
      <use xlink:href="#DejaVuSans-3d" transform="translate(584.521484 0)"/>
      <use xlink:href="#DejaVuSans-31" transform="translate(668.310547 0)"/>
      <use xlink:href="#DejaVuSans-29" transform="translate(731.933594 0)"/>
     </g>
    </g>
    <g id="line2d_115">
     <path d="M 738.38077 123.485312 
L 748.38077 123.485312 
L 758.38077 123.485312 
" style="fill: none; stroke: #8c564b; stroke-width: 2; stroke-linecap: square"/>
    </g>
    <g id="text_39">
     <!-- Cluster 5 (n=1) -->
     <g transform="translate(766.38077 126.985312) scale(0.1 -0.1)">
      <use xlink:href="#DejaVuSans-43"/>
      <use xlink:href="#DejaVuSans-6c" transform="translate(69.824219 0)"/>
      <use xlink:href="#DejaVuSans-75" transform="translate(97.607422 0)"/>
      <use xlink:href="#DejaVuSans-73" transform="translate(160.986328 0)"/>
      <use xlink:href="#DejaVuSans-74" transform="translate(213.085938 0)"/>
      <use xlink:href="#DejaVuSans-65" transform="translate(252.294922 0)"/>
      <use xlink:href="#DejaVuSans-72" transform="translate(313.818359 0)"/>
      <use xlink:href="#DejaVuSans-20" transform="translate(354.931641 0)"/>
      <use xlink:href="#DejaVuSans-35" transform="translate(386.71875 0)"/>
      <use xlink:href="#DejaVuSans-20" transform="translate(450.341797 0)"/>
      <use xlink:href="#DejaVuSans-28" transform="translate(482.128906 0)"/>
      <use xlink:href="#DejaVuSans-6e" transform="translate(521.142578 0)"/>
      <use xlink:href="#DejaVuSans-3d" transform="translate(584.521484 0)"/>
      <use xlink:href="#DejaVuSans-31" transform="translate(668.310547 0)"/>
      <use xlink:href="#DejaVuSans-29" transform="translate(731.933594 0)"/>
     </g>
    </g>
    <g id="line2d_116">
     <path d="M 738.38077 138.163437 
L 748.38077 138.163437 
L 758.38077 138.163437 
" style="fill: none; stroke: #e377c2; stroke-width: 2; stroke-linecap: square"/>
    </g>
    <g id="text_40">
     <!-- Cluster 6 (n=1) -->
     <g transform="translate(766.38077 141.663437) scale(0.1 -0.1)">
      <use xlink:href="#DejaVuSans-43"/>
      <use xlink:href="#DejaVuSans-6c" transform="translate(69.824219 0)"/>
      <use xlink:href="#DejaVuSans-75" transform="translate(97.607422 0)"/>
      <use xlink:href="#DejaVuSans-73" transform="translate(160.986328 0)"/>
      <use xlink:href="#DejaVuSans-74" transform="translate(213.085938 0)"/>
      <use xlink:href="#DejaVuSans-65" transform="translate(252.294922 0)"/>
      <use xlink:href="#DejaVuSans-72" transform="translate(313.818359 0)"/>
      <use xlink:href="#DejaVuSans-20" transform="translate(354.931641 0)"/>
      <use xlink:href="#DejaVuSans-36" transform="translate(386.71875 0)"/>
      <use xlink:href="#DejaVuSans-20" transform="translate(450.341797 0)"/>
      <use xlink:href="#DejaVuSans-28" transform="translate(482.128906 0)"/>
      <use xlink:href="#DejaVuSans-6e" transform="translate(521.142578 0)"/>
      <use xlink:href="#DejaVuSans-3d" transform="translate(584.521484 0)"/>
      <use xlink:href="#DejaVuSans-31" transform="translate(668.310547 0)"/>
      <use xlink:href="#DejaVuSans-29" transform="translate(731.933594 0)"/>
     </g>
    </g>
    <g id="line2d_117">
     <path d="M 738.38077 152.841562 
L 748.38077 152.841562 
L 758.38077 152.841562 
" style="fill: none; stroke: #7f7f7f; stroke-width: 2; stroke-linecap: square"/>
    </g>
    <g id="text_41">
     <!-- Cluster 7 (n=18) -->
     <g transform="translate(766.38077 156.341562) scale(0.1 -0.1)">
      <use xlink:href="#DejaVuSans-43"/>
      <use xlink:href="#DejaVuSans-6c" transform="translate(69.824219 0)"/>
      <use xlink:href="#DejaVuSans-75" transform="translate(97.607422 0)"/>
      <use xlink:href="#DejaVuSans-73" transform="translate(160.986328 0)"/>
      <use xlink:href="#DejaVuSans-74" transform="translate(213.085938 0)"/>
      <use xlink:href="#DejaVuSans-65" transform="translate(252.294922 0)"/>
      <use xlink:href="#DejaVuSans-72" transform="translate(313.818359 0)"/>
      <use xlink:href="#DejaVuSans-20" transform="translate(354.931641 0)"/>
      <use xlink:href="#DejaVuSans-37" transform="translate(386.71875 0)"/>
      <use xlink:href="#DejaVuSans-20" transform="translate(450.341797 0)"/>
      <use xlink:href="#DejaVuSans-28" transform="translate(482.128906 0)"/>
      <use xlink:href="#DejaVuSans-6e" transform="translate(521.142578 0)"/>
      <use xlink:href="#DejaVuSans-3d" transform="translate(584.521484 0)"/>
      <use xlink:href="#DejaVuSans-31" transform="translate(668.310547 0)"/>
      <use xlink:href="#DejaVuSans-38" transform="translate(731.933594 0)"/>
      <use xlink:href="#DejaVuSans-29" transform="translate(795.556641 0)"/>
     </g>
    </g>
    <g id="line2d_118">
     <path d="M 738.38077 167.519687 
L 748.38077 167.519687 
L 758.38077 167.519687 
" style="fill: none; stroke: #bcbd22; stroke-width: 2; stroke-linecap: square"/>
    </g>
    <g id="text_42">
     <!-- Cluster 8 (n=2) -->
     <g transform="translate(766.38077 171.019687) scale(0.1 -0.1)">
      <use xlink:href="#DejaVuSans-43"/>
      <use xlink:href="#DejaVuSans-6c" transform="translate(69.824219 0)"/>
      <use xlink:href="#DejaVuSans-75" transform="translate(97.607422 0)"/>
      <use xlink:href="#DejaVuSans-73" transform="translate(160.986328 0)"/>
      <use xlink:href="#DejaVuSans-74" transform="translate(213.085938 0)"/>
      <use xlink:href="#DejaVuSans-65" transform="translate(252.294922 0)"/>
      <use xlink:href="#DejaVuSans-72" transform="translate(313.818359 0)"/>
      <use xlink:href="#DejaVuSans-20" transform="translate(354.931641 0)"/>
      <use xlink:href="#DejaVuSans-38" transform="translate(386.71875 0)"/>
      <use xlink:href="#DejaVuSans-20" transform="translate(450.341797 0)"/>
      <use xlink:href="#DejaVuSans-28" transform="translate(482.128906 0)"/>
      <use xlink:href="#DejaVuSans-6e" transform="translate(521.142578 0)"/>
      <use xlink:href="#DejaVuSans-3d" transform="translate(584.521484 0)"/>
      <use xlink:href="#DejaVuSans-32" transform="translate(668.310547 0)"/>
      <use xlink:href="#DejaVuSans-29" transform="translate(731.933594 0)"/>
     </g>
    </g>
    <g id="line2d_119">
     <path d="M 738.38077 182.197812 
L 748.38077 182.197812 
L 758.38077 182.197812 
" style="fill: none; stroke: #17becf; stroke-width: 2; stroke-linecap: square"/>
    </g>
    <g id="text_43">
     <!-- Cluster 9 (n=1) -->
     <g transform="translate(766.38077 185.697812) scale(0.1 -0.1)">
      <use xlink:href="#DejaVuSans-43"/>
      <use xlink:href="#DejaVuSans-6c" transform="translate(69.824219 0)"/>
      <use xlink:href="#DejaVuSans-75" transform="translate(97.607422 0)"/>
      <use xlink:href="#DejaVuSans-73" transform="translate(160.986328 0)"/>
      <use xlink:href="#DejaVuSans-74" transform="translate(213.085938 0)"/>
      <use xlink:href="#DejaVuSans-65" transform="translate(252.294922 0)"/>
      <use xlink:href="#DejaVuSans-72" transform="translate(313.818359 0)"/>
      <use xlink:href="#DejaVuSans-20" transform="translate(354.931641 0)"/>
      <use xlink:href="#DejaVuSans-39" transform="translate(386.71875 0)"/>
      <use xlink:href="#DejaVuSans-20" transform="translate(450.341797 0)"/>
      <use xlink:href="#DejaVuSans-28" transform="translate(482.128906 0)"/>
      <use xlink:href="#DejaVuSans-6e" transform="translate(521.142578 0)"/>
      <use xlink:href="#DejaVuSans-3d" transform="translate(584.521484 0)"/>
      <use xlink:href="#DejaVuSans-31" transform="translate(668.310547 0)"/>
      <use xlink:href="#DejaVuSans-29" transform="translate(731.933594 0)"/>
     </g>
    </g>
    <g id="line2d_120">
     <path d="M 738.38077 196.875937 
L 748.38077 196.875937 
L 758.38077 196.875937 
" style="fill: none; stroke: #1f77b4; stroke-width: 2; stroke-linecap: square"/>
    </g>
    <g id="text_44">
     <!-- Cluster 10 (n=7) -->
     <g transform="translate(766.38077 200.375937) scale(0.1 -0.1)">
      <use xlink:href="#DejaVuSans-43"/>
      <use xlink:href="#DejaVuSans-6c" transform="translate(69.824219 0)"/>
      <use xlink:href="#DejaVuSans-75" transform="translate(97.607422 0)"/>
      <use xlink:href="#DejaVuSans-73" transform="translate(160.986328 0)"/>
      <use xlink:href="#DejaVuSans-74" transform="translate(213.085938 0)"/>
      <use xlink:href="#DejaVuSans-65" transform="translate(252.294922 0)"/>
      <use xlink:href="#DejaVuSans-72" transform="translate(313.818359 0)"/>
      <use xlink:href="#DejaVuSans-20" transform="translate(354.931641 0)"/>
      <use xlink:href="#DejaVuSans-31" transform="translate(386.71875 0)"/>
      <use xlink:href="#DejaVuSans-30" transform="translate(450.341797 0)"/>
      <use xlink:href="#DejaVuSans-20" transform="translate(513.964844 0)"/>
      <use xlink:href="#DejaVuSans-28" transform="translate(545.751953 0)"/>
      <use xlink:href="#DejaVuSans-6e" transform="translate(584.765625 0)"/>
      <use xlink:href="#DejaVuSans-3d" transform="translate(648.144531 0)"/>
      <use xlink:href="#DejaVuSans-37" transform="translate(731.933594 0)"/>
      <use xlink:href="#DejaVuSans-29" transform="translate(795.556641 0)"/>
     </g>
    </g>
    <g id="line2d_121">
     <path d="M 738.38077 211.554062 
L 748.38077 211.554062 
L 758.38077 211.554062 
" style="fill: none; stroke: #ff7f0e; stroke-width: 2; stroke-linecap: square"/>
    </g>
    <g id="text_45">
     <!-- Cluster 11 (n=6) -->
     <g transform="translate(766.38077 215.054062) scale(0.1 -0.1)">
      <use xlink:href="#DejaVuSans-43"/>
      <use xlink:href="#DejaVuSans-6c" transform="translate(69.824219 0)"/>
      <use xlink:href="#DejaVuSans-75" transform="translate(97.607422 0)"/>
      <use xlink:href="#DejaVuSans-73" transform="translate(160.986328 0)"/>
      <use xlink:href="#DejaVuSans-74" transform="translate(213.085938 0)"/>
      <use xlink:href="#DejaVuSans-65" transform="translate(252.294922 0)"/>
      <use xlink:href="#DejaVuSans-72" transform="translate(313.818359 0)"/>
      <use xlink:href="#DejaVuSans-20" transform="translate(354.931641 0)"/>
      <use xlink:href="#DejaVuSans-31" transform="translate(386.71875 0)"/>
      <use xlink:href="#DejaVuSans-31" transform="translate(450.341797 0)"/>
      <use xlink:href="#DejaVuSans-20" transform="translate(513.964844 0)"/>
      <use xlink:href="#DejaVuSans-28" transform="translate(545.751953 0)"/>
      <use xlink:href="#DejaVuSans-6e" transform="translate(584.765625 0)"/>
      <use xlink:href="#DejaVuSans-3d" transform="translate(648.144531 0)"/>
      <use xlink:href="#DejaVuSans-36" transform="translate(731.933594 0)"/>
      <use xlink:href="#DejaVuSans-29" transform="translate(795.556641 0)"/>
     </g>
    </g>
    <g id="line2d_122">
     <path d="M 738.38077 226.232187 
L 748.38077 226.232187 
L 758.38077 226.232187 
" style="fill: none; stroke: #2ca02c; stroke-width: 2; stroke-linecap: square"/>
    </g>
    <g id="text_46">
     <!-- Cluster 12 (n=18) -->
     <g transform="translate(766.38077 229.732187) scale(0.1 -0.1)">
      <use xlink:href="#DejaVuSans-43"/>
      <use xlink:href="#DejaVuSans-6c" transform="translate(69.824219 0)"/>
      <use xlink:href="#DejaVuSans-75" transform="translate(97.607422 0)"/>
      <use xlink:href="#DejaVuSans-73" transform="translate(160.986328 0)"/>
      <use xlink:href="#DejaVuSans-74" transform="translate(213.085938 0)"/>
      <use xlink:href="#DejaVuSans-65" transform="translate(252.294922 0)"/>
      <use xlink:href="#DejaVuSans-72" transform="translate(313.818359 0)"/>
      <use xlink:href="#DejaVuSans-20" transform="translate(354.931641 0)"/>
      <use xlink:href="#DejaVuSans-31" transform="translate(386.71875 0)"/>
      <use xlink:href="#DejaVuSans-32" transform="translate(450.341797 0)"/>
      <use xlink:href="#DejaVuSans-20" transform="translate(513.964844 0)"/>
      <use xlink:href="#DejaVuSans-28" transform="translate(545.751953 0)"/>
      <use xlink:href="#DejaVuSans-6e" transform="translate(584.765625 0)"/>
      <use xlink:href="#DejaVuSans-3d" transform="translate(648.144531 0)"/>
      <use xlink:href="#DejaVuSans-31" transform="translate(731.933594 0)"/>
      <use xlink:href="#DejaVuSans-38" transform="translate(795.556641 0)"/>
      <use xlink:href="#DejaVuSans-29" transform="translate(859.179688 0)"/>
     </g>
    </g>
   </g>
  </g>
 </g>
 <defs>
  <clipPath id="p58337e2653">
   <rect x="45.478125" y="22.318125" width="819.721395" height="308.525145"/>
  </clipPath>
 </defs>
</svg>
